<?xml version="1.0" encoding="UTF-8" standalone="no"?>
<svg
   width="720pt"
   height="432pt"
   viewBox="0 0 720 432"
   version="1.1"
   id="svg252"
   sodipodi:docname="iq.svg"
   inkscape:version="1.4.2 (ebf0e940, 2025-05-08)"
   inkscape:export-filename="../../figures/supplementary_fig2.png"
   inkscape:export-xdpi="300"
   inkscape:export-ydpi="300"
   xmlns:inkscape="http://www.inkscape.org/namespaces/inkscape"
   xmlns:sodipodi="http://sodipodi.sourceforge.net/DTD/sodipodi-0.dtd"
   xmlns:xlink="http://www.w3.org/1999/xlink"
   xmlns="http://www.w3.org/2000/svg"
   xmlns:svg="http://www.w3.org/2000/svg"
   xmlns:rdf="http://www.w3.org/1999/02/22-rdf-syntax-ns#"
   xmlns:cc="http://creativecommons.org/ns#"
   xmlns:dc="http://purl.org/dc/elements/1.1/">
  <sodipodi:namedview
     id="namedview252"
     pagecolor="#ffffff"
     bordercolor="#cccccc"
     borderopacity="1"
     inkscape:showpageshadow="0"
     inkscape:pageopacity="1"
     inkscape:pagecheckerboard="0"
     inkscape:deskcolor="#d1d1d1"
     inkscape:document-units="pt"
     inkscape:zoom="0.72222222"
     inkscape:cx="486"
     inkscape:cy="284.53846"
     inkscape:window-width="1440"
     inkscape:window-height="900"
     inkscape:window-x="0"
     inkscape:window-y="0"
     inkscape:window-maximized="0"
     inkscape:current-layer="text_18" />
  <metadata
     id="metadata1">
    <rdf:RDF>
      <cc:Work>
        <dc:type
           rdf:resource="http://purl.org/dc/dcmitype/StillImage" />
        <dc:date>2025-10-10T15:10:04.759689</dc:date>
        <dc:format>image/svg+xml</dc:format>
        <dc:creator>
          <cc:Agent>
            <dc:title>Matplotlib v3.9.0, https://matplotlib.org/</dc:title>
          </cc:Agent>
        </dc:creator>
      </cc:Work>
    </rdf:RDF>
  </metadata>
  <defs
     id="defs1">
    <style
       type="text/css"
       id="style1">*{stroke-linejoin: round; stroke-linecap: butt}</style>
  </defs>
  <g
     id="figure_1">
    <g
       id="patch_1">
      <path
         d="M 0 432  L 720 432  L 720 0  L 0 0  z "
         style="fill: #ffffff"
         id="path1" />
    </g>
    <g
       id="axes_1">
      <g
         id="patch_2">
        <path
           d="M 76.98 362.076  L 666.717902 362.076  L 666.717902 61.44  L 76.98 61.44  z "
           style="fill: #ffffff"
           id="path2" />
      </g>
      <g
         id="matplotlib.axis_1">
        <g
           id="xtick_1">
          <g
             id="line2d_1">
            <path
               d="M 113.619341 362.076  L 113.619341 61.44  "
               clip-path="url(#paadb079758)"
               style="fill: none; stroke: #cccccc; stroke-width: 1.5; stroke-linecap: round"
               id="path3" />
          </g>
          <g
             id="text_1">
            <!-- 0.955 -->
            <g
               style="fill: #262626"
               transform="translate(96.442466 383.694125) scale(0.12 -0.12)"
               id="g7">
              <defs
                 id="defs3">
                <path
                   id="DejaVuSans-30"
                   d="M 2034 4250  Q 1547 4250 1301 3770  Q 1056 3291 1056 2328  Q 1056 1369 1301 889  Q 1547 409 2034 409  Q 2525 409 2770 889  Q 3016 1369 3016 2328  Q 3016 3291 2770 3770  Q 2525 4250 2034 4250  z M 2034 4750  Q 2819 4750 3233 4129  Q 3647 3509 3647 2328  Q 3647 1150 3233 529  Q 2819 -91 2034 -91  Q 1250 -91 836 529  Q 422 1150 422 2328  Q 422 3509 836 4129  Q 1250 4750 2034 4750  z "
                   transform="scale(0.015625)" />
                <path
                   id="DejaVuSans-2e"
                   d="M 684 794  L 1344 794  L 1344 0  L 684 0  L 684 794  z "
                   transform="scale(0.015625)" />
                <path
                   id="DejaVuSans-39"
                   d="M 703 97  L 703 672  Q 941 559 1184 500  Q 1428 441 1663 441  Q 2288 441 2617 861  Q 2947 1281 2994 2138  Q 2813 1869 2534 1725  Q 2256 1581 1919 1581  Q 1219 1581 811 2004  Q 403 2428 403 3163  Q 403 3881 828 4315  Q 1253 4750 1959 4750  Q 2769 4750 3195 4129  Q 3622 3509 3622 2328  Q 3622 1225 3098 567  Q 2575 -91 1691 -91  Q 1453 -91 1209 -44  Q 966 3 703 97  z M 1959 2075  Q 2384 2075 2632 2365  Q 2881 2656 2881 3163  Q 2881 3666 2632 3958  Q 2384 4250 1959 4250  Q 1534 4250 1286 3958  Q 1038 3666 1038 3163  Q 1038 2656 1286 2365  Q 1534 2075 1959 2075  z "
                   transform="scale(0.015625)" />
                <path
                   id="DejaVuSans-35"
                   d="M 691 4666  L 3169 4666  L 3169 4134  L 1269 4134  L 1269 2991  Q 1406 3038 1543 3061  Q 1681 3084 1819 3084  Q 2600 3084 3056 2656  Q 3513 2228 3513 1497  Q 3513 744 3044 326  Q 2575 -91 1722 -91  Q 1428 -91 1123 -41  Q 819 9 494 109  L 494 744  Q 775 591 1075 516  Q 1375 441 1709 441  Q 2250 441 2565 725  Q 2881 1009 2881 1497  Q 2881 1984 2565 2268  Q 2250 2553 1709 2553  Q 1456 2553 1204 2497  Q 953 2441 691 2322  L 691 4666  z "
                   transform="scale(0.015625)" />
              </defs>
              <use
                 xlink:href="#DejaVuSans-30"
                 id="use3" />
              <use
                 xlink:href="#DejaVuSans-2e"
                 x="63.623047"
                 id="use4" />
              <use
                 xlink:href="#DejaVuSans-39"
                 x="95.410156"
                 id="use5" />
              <use
                 xlink:href="#DejaVuSans-35"
                 x="159.033203"
                 id="use6" />
              <use
                 xlink:href="#DejaVuSans-35"
                 x="222.65625"
                 id="use7" />
            </g>
          </g>
        </g>
        <g
           id="xtick_2">
          <g
             id="line2d_2">
            <path
               d="M 206.861142 362.076  L 206.861142 61.44  "
               clip-path="url(#paadb079758)"
               style="fill: none; stroke: #cccccc; stroke-width: 1.5; stroke-linecap: round"
               id="path7" />
          </g>
          <g
             id="text_2">
            <!-- 0.960 -->
            <g
               style="fill: #262626"
               transform="translate(189.684267 383.694125) scale(0.12 -0.12)"
               id="g12">
              <defs
                 id="defs7">
                <path
                   id="DejaVuSans-36"
                   d="M 2113 2584  Q 1688 2584 1439 2293  Q 1191 2003 1191 1497  Q 1191 994 1439 701  Q 1688 409 2113 409  Q 2538 409 2786 701  Q 3034 994 3034 1497  Q 3034 2003 2786 2293  Q 2538 2584 2113 2584  z M 3366 4563  L 3366 3988  Q 3128 4100 2886 4159  Q 2644 4219 2406 4219  Q 1781 4219 1451 3797  Q 1122 3375 1075 2522  Q 1259 2794 1537 2939  Q 1816 3084 2150 3084  Q 2853 3084 3261 2657  Q 3669 2231 3669 1497  Q 3669 778 3244 343  Q 2819 -91 2113 -91  Q 1303 -91 875 529  Q 447 1150 447 2328  Q 447 3434 972 4092  Q 1497 4750 2381 4750  Q 2619 4750 2861 4703  Q 3103 4656 3366 4563  z "
                   transform="scale(0.015625)" />
              </defs>
              <use
                 xlink:href="#DejaVuSans-30"
                 id="use8" />
              <use
                 xlink:href="#DejaVuSans-2e"
                 x="63.623047"
                 id="use9" />
              <use
                 xlink:href="#DejaVuSans-39"
                 x="95.410156"
                 id="use10" />
              <use
                 xlink:href="#DejaVuSans-36"
                 x="159.033203"
                 id="use11" />
              <use
                 xlink:href="#DejaVuSans-30"
                 x="222.65625"
                 id="use12" />
            </g>
          </g>
        </g>
        <g
           id="xtick_3">
          <g
             id="line2d_3">
            <path
               d="M 300.102942 362.076  L 300.102942 61.44  "
               clip-path="url(#paadb079758)"
               style="fill: none; stroke: #cccccc; stroke-width: 1.5; stroke-linecap: round"
               id="path12" />
          </g>
          <g
             id="text_3">
            <!-- 0.965 -->
            <g
               style="fill: #262626"
               transform="translate(282.926067 383.694125) scale(0.12 -0.12)"
               id="g17">
              <use
                 xlink:href="#DejaVuSans-30"
                 id="use13" />
              <use
                 xlink:href="#DejaVuSans-2e"
                 x="63.623047"
                 id="use14" />
              <use
                 xlink:href="#DejaVuSans-39"
                 x="95.410156"
                 id="use15" />
              <use
                 xlink:href="#DejaVuSans-36"
                 x="159.033203"
                 id="use16" />
              <use
                 xlink:href="#DejaVuSans-35"
                 x="222.65625"
                 id="use17" />
            </g>
          </g>
        </g>
        <g
           id="xtick_4">
          <g
             id="line2d_4">
            <path
               d="M 393.344742 362.076  L 393.344742 61.44  "
               clip-path="url(#paadb079758)"
               style="fill: none; stroke: #cccccc; stroke-width: 1.5; stroke-linecap: round"
               id="path17" />
          </g>
          <g
             id="text_4">
            <!-- 0.970 -->
            <g
               style="fill: #262626"
               transform="translate(376.167867 383.694125) scale(0.12 -0.12)"
               id="g22">
              <defs
                 id="defs17">
                <path
                   id="DejaVuSans-37"
                   d="M 525 4666  L 3525 4666  L 3525 4397  L 1831 0  L 1172 0  L 2766 4134  L 525 4134  L 525 4666  z "
                   transform="scale(0.015625)" />
              </defs>
              <use
                 xlink:href="#DejaVuSans-30"
                 id="use18" />
              <use
                 xlink:href="#DejaVuSans-2e"
                 x="63.623047"
                 id="use19" />
              <use
                 xlink:href="#DejaVuSans-39"
                 x="95.410156"
                 id="use20" />
              <use
                 xlink:href="#DejaVuSans-37"
                 x="159.033203"
                 id="use21" />
              <use
                 xlink:href="#DejaVuSans-30"
                 x="222.65625"
                 id="use22" />
            </g>
          </g>
        </g>
        <g
           id="xtick_5">
          <g
             id="line2d_5">
            <path
               d="M 486.586543 362.076  L 486.586543 61.44  "
               clip-path="url(#paadb079758)"
               style="fill: none; stroke: #cccccc; stroke-width: 1.5; stroke-linecap: round"
               id="path22" />
          </g>
          <g
             id="text_5">
            <!-- 0.975 -->
            <g
               style="fill: #262626"
               transform="translate(469.409668 383.694125) scale(0.12 -0.12)"
               id="g27">
              <use
                 xlink:href="#DejaVuSans-30"
                 id="use23" />
              <use
                 xlink:href="#DejaVuSans-2e"
                 x="63.623047"
                 id="use24" />
              <use
                 xlink:href="#DejaVuSans-39"
                 x="95.410156"
                 id="use25" />
              <use
                 xlink:href="#DejaVuSans-37"
                 x="159.033203"
                 id="use26" />
              <use
                 xlink:href="#DejaVuSans-35"
                 x="222.65625"
                 id="use27" />
            </g>
          </g>
        </g>
        <g
           id="xtick_6">
          <g
             id="line2d_6">
            <path
               d="M 579.828343 362.076  L 579.828343 61.44  "
               clip-path="url(#paadb079758)"
               style="fill: none; stroke: #cccccc; stroke-width: 1.5; stroke-linecap: round"
               id="path27" />
          </g>
          <g
             id="text_6">
            <!-- 0.980 -->
            <g
               style="fill: #262626"
               transform="translate(562.651468 383.694125) scale(0.12 -0.12)"
               id="g32">
              <defs
                 id="defs27">
                <path
                   id="DejaVuSans-38"
                   d="M 2034 2216  Q 1584 2216 1326 1975  Q 1069 1734 1069 1313  Q 1069 891 1326 650  Q 1584 409 2034 409  Q 2484 409 2743 651  Q 3003 894 3003 1313  Q 3003 1734 2745 1975  Q 2488 2216 2034 2216  z M 1403 2484  Q 997 2584 770 2862  Q 544 3141 544 3541  Q 544 4100 942 4425  Q 1341 4750 2034 4750  Q 2731 4750 3128 4425  Q 3525 4100 3525 3541  Q 3525 3141 3298 2862  Q 3072 2584 2669 2484  Q 3125 2378 3379 2068  Q 3634 1759 3634 1313  Q 3634 634 3220 271  Q 2806 -91 2034 -91  Q 1263 -91 848 271  Q 434 634 434 1313  Q 434 1759 690 2068  Q 947 2378 1403 2484  z M 1172 3481  Q 1172 3119 1398 2916  Q 1625 2713 2034 2713  Q 2441 2713 2670 2916  Q 2900 3119 2900 3481  Q 2900 3844 2670 4047  Q 2441 4250 2034 4250  Q 1625 4250 1398 4047  Q 1172 3844 1172 3481  z "
                   transform="scale(0.015625)" />
              </defs>
              <use
                 xlink:href="#DejaVuSans-30"
                 id="use28" />
              <use
                 xlink:href="#DejaVuSans-2e"
                 x="63.623047"
                 id="use29" />
              <use
                 xlink:href="#DejaVuSans-39"
                 x="95.410156"
                 id="use30" />
              <use
                 xlink:href="#DejaVuSans-38"
                 x="159.033203"
                 id="use31" />
              <use
                 xlink:href="#DejaVuSans-30"
                 x="222.65625"
                 id="use32" />
            </g>
          </g>
        </g>
        <text
           xml:space="preserve"
           style="font-size:16px;line-height:16px;font-family:Calibri;-inkscape-font-specification:Calibri;text-align:center;letter-spacing:0px;word-spacing:0px;writing-mode:lr-tb;direction:ltr;text-anchor:middle;fill:#000000;stroke-width:1.06582;paint-order:stroke fill markers"
           x="354.11539"
           y="412.26923"
           id="text252"><tspan
             sodipodi:role="line"
             id="tspan252"
             style="font-size:16px;line-height:16px;stroke-width:1.06583"
             x="354.11539"
             y="412.26923">Boot-strapped Interreplicate Correlation (R<tspan
   style="font-size:65%;baseline-shift:super"
   id="tspan253">2</tspan>)</tspan></text>
      </g>
      <g
         id="matplotlib.axis_2">
        <g
           id="ytick_1">
          <g
             id="line2d_7">
            <path
               d="M 76.98 362.076  L 666.717902 362.076  "
               clip-path="url(#paadb079758)"
               style="fill: none; stroke: #cccccc; stroke-width: 1.5; stroke-linecap: round"
               id="path60" />
          </g>
          <g
             id="text_8">
            <!-- 0.00 -->
            <g
               style="fill: #262626"
               transform="translate(37.76125 366.635063) scale(0.12 -0.12)"
               id="g64">
              <use
                 xlink:href="#DejaVuSans-30"
                 id="use61" />
              <use
                 xlink:href="#DejaVuSans-2e"
                 x="63.623047"
                 id="use62" />
              <use
                 xlink:href="#DejaVuSans-30"
                 x="95.410156"
                 id="use63" />
              <use
                 xlink:href="#DejaVuSans-30"
                 x="159.033203"
                 id="use64" />
            </g>
          </g>
        </g>
        <g
           id="ytick_2">
          <g
             id="line2d_8">
            <path
               d="M 76.98 326.286  L 666.717902 326.286  "
               clip-path="url(#paadb079758)"
               style="fill: none; stroke: #cccccc; stroke-width: 1.5; stroke-linecap: round"
               id="path64" />
          </g>
          <g
             id="text_9">
            <!-- 0.25 -->
            <g
               style="fill: #262626"
               transform="translate(37.76125 330.845062) scale(0.12 -0.12)"
               id="g68">
              <use
                 xlink:href="#DejaVuSans-30"
                 id="use65" />
              <use
                 xlink:href="#DejaVuSans-2e"
                 x="63.623047"
                 id="use66" />
              <path
                 id="use67"
                 d="m 114.59766,8.296875 h 34.42187 V 0 h -46.28125 v 8.296875 q 5.60938,5.8125 15.29688,15.59375 9.70312,9.796875 12.1875,12.640625 4.73437,5.3125 6.60937,9 1.89063,3.6875 1.89063,7.25 0,5.8125 -4.07813,9.46875 -4.07812,3.671875 -10.625,3.671875 -4.64062,0 -9.79687,-1.609375 -5.14063,-1.609375 -11,-4.890625 v 9.96875 q 5.95312,2.390625 11.125,3.609375 5.1875,1.21875 9.48437,1.21875 11.32813,0 18.0625,-5.671875 6.73438,-5.65625 6.73438,-15.125 0,-4.5 -1.6875,-8.53125 -1.67188,-4.015625 -6.125,-9.484375 -1.21875,-1.421875 -7.76563,-8.1875 -6.53125,-6.765625 -18.45312,-18.921875 z"
                 style="stroke-width:0.015625" />
              <use
                 xlink:href="#DejaVuSans-35"
                 x="159.033203"
                 id="use68" />
            </g>
          </g>
        </g>
        <g
           id="ytick_3">
          <g
             id="line2d_9">
            <path
               d="M 76.98 290.496  L 666.717902 290.496  "
               clip-path="url(#paadb079758)"
               style="fill: none; stroke: #cccccc; stroke-width: 1.5; stroke-linecap: round"
               id="path68" />
          </g>
          <g
             id="text_10">
            <!-- 0.50 -->
            <g
               style="fill: #262626"
               transform="translate(37.76125 295.055062) scale(0.12 -0.12)"
               id="g72">
              <use
                 xlink:href="#DejaVuSans-30"
                 id="use69" />
              <use
                 xlink:href="#DejaVuSans-2e"
                 x="63.623047"
                 id="use70" />
              <use
                 xlink:href="#DejaVuSans-35"
                 x="95.410156"
                 id="use71" />
              <use
                 xlink:href="#DejaVuSans-30"
                 x="159.033203"
                 id="use72" />
            </g>
          </g>
        </g>
        <g
           id="ytick_4">
          <g
             id="line2d_10">
            <path
               d="M 76.98 254.706  L 666.717902 254.706  "
               clip-path="url(#paadb079758)"
               style="fill: none; stroke: #cccccc; stroke-width: 1.5; stroke-linecap: round"
               id="path72" />
          </g>
          <g
             id="text_11">
            <!-- 0.75 -->
            <g
               style="fill: #262626"
               transform="translate(37.76125 259.265062) scale(0.12 -0.12)"
               id="g76">
              <use
                 xlink:href="#DejaVuSans-30"
                 id="use73" />
              <use
                 xlink:href="#DejaVuSans-2e"
                 x="63.623047"
                 id="use74" />
              <use
                 xlink:href="#DejaVuSans-37"
                 x="95.410156"
                 id="use75" />
              <use
                 xlink:href="#DejaVuSans-35"
                 x="159.033203"
                 id="use76" />
            </g>
          </g>
        </g>
        <g
           id="ytick_5">
          <g
             id="line2d_11">
            <path
               d="M 76.98 218.916  L 666.717902 218.916  "
               clip-path="url(#paadb079758)"
               style="fill: none; stroke: #cccccc; stroke-width: 1.5; stroke-linecap: round"
               id="path76" />
          </g>
          <g
             id="text_12">
            <!-- 1.00 -->
            <g
               style="fill: #262626"
               transform="translate(37.76125 223.475062) scale(0.12 -0.12)"
               id="g80">
              <defs
                 id="defs76">
                <path
                   id="DejaVuSans-31"
                   d="M 794 531  L 1825 531  L 1825 4091  L 703 3866  L 703 4441  L 1819 4666  L 2450 4666  L 2450 531  L 3481 531  L 3481 0  L 794 0  L 794 531  z "
                   transform="scale(0.015625)" />
              </defs>
              <use
                 xlink:href="#DejaVuSans-31"
                 id="use77" />
              <use
                 xlink:href="#DejaVuSans-2e"
                 x="63.623047"
                 id="use78" />
              <use
                 xlink:href="#DejaVuSans-30"
                 x="95.410156"
                 id="use79" />
              <use
                 xlink:href="#DejaVuSans-30"
                 x="159.033203"
                 id="use80" />
            </g>
          </g>
        </g>
        <g
           id="ytick_6">
          <g
             id="line2d_12">
            <path
               d="M 76.98 183.126  L 666.717902 183.126  "
               clip-path="url(#paadb079758)"
               style="fill: none; stroke: #cccccc; stroke-width: 1.5; stroke-linecap: round"
               id="path80" />
          </g>
          <g
             id="text_13">
            <!-- 1.25 -->
            <g
               style="fill: #262626"
               transform="translate(37.76125 187.685062) scale(0.12 -0.12)"
               id="g84">
              <use
                 xlink:href="#DejaVuSans-31"
                 id="use81" />
              <use
                 xlink:href="#DejaVuSans-2e"
                 x="63.623047"
                 id="use82" />
              <path
                 id="use83"
                 d="m 114.59766,8.296875 h 34.42187 V 0 h -46.28125 v 8.296875 q 5.60938,5.8125 15.29688,15.59375 9.70312,9.796875 12.1875,12.640625 4.73437,5.3125 6.60937,9 1.89063,3.6875 1.89063,7.25 0,5.8125 -4.07813,9.46875 -4.07812,3.671875 -10.625,3.671875 -4.64062,0 -9.79687,-1.609375 -5.14063,-1.609375 -11,-4.890625 v 9.96875 q 5.95312,2.390625 11.125,3.609375 5.1875,1.21875 9.48437,1.21875 11.32813,0 18.0625,-5.671875 6.73438,-5.65625 6.73438,-15.125 0,-4.5 -1.6875,-8.53125 -1.67188,-4.015625 -6.125,-9.484375 -1.21875,-1.421875 -7.76563,-8.1875 -6.53125,-6.765625 -18.45312,-18.921875 z"
                 style="stroke-width:0.015625" />
              <use
                 xlink:href="#DejaVuSans-35"
                 x="159.033203"
                 id="use84" />
            </g>
          </g>
        </g>
        <g
           id="ytick_7">
          <g
             id="line2d_13">
            <path
               d="M 76.98 147.336  L 666.717902 147.336  "
               clip-path="url(#paadb079758)"
               style="fill: none; stroke: #cccccc; stroke-width: 1.5; stroke-linecap: round"
               id="path84" />
          </g>
          <g
             id="text_14">
            <!-- 1.50 -->
            <g
               style="fill: #262626"
               transform="translate(37.76125 151.895062) scale(0.12 -0.12)"
               id="g88">
              <use
                 xlink:href="#DejaVuSans-31"
                 id="use85" />
              <use
                 xlink:href="#DejaVuSans-2e"
                 x="63.623047"
                 id="use86" />
              <use
                 xlink:href="#DejaVuSans-35"
                 x="95.410156"
                 id="use87" />
              <use
                 xlink:href="#DejaVuSans-30"
                 x="159.033203"
                 id="use88" />
            </g>
          </g>
        </g>
        <g
           id="ytick_8">
          <g
             id="line2d_14">
            <path
               d="M 76.98 111.546  L 666.717902 111.546  "
               clip-path="url(#paadb079758)"
               style="fill: none; stroke: #cccccc; stroke-width: 1.5; stroke-linecap: round"
               id="path88" />
          </g>
          <g
             id="text_15">
            <!-- 1.75 -->
            <g
               style="fill: #262626"
               transform="translate(37.76125 116.105062) scale(0.12 -0.12)"
               id="g92">
              <use
                 xlink:href="#DejaVuSans-31"
                 id="use89" />
              <use
                 xlink:href="#DejaVuSans-2e"
                 x="63.623047"
                 id="use90" />
              <use
                 xlink:href="#DejaVuSans-37"
                 x="95.410156"
                 id="use91" />
              <use
                 xlink:href="#DejaVuSans-35"
                 x="159.033203"
                 id="use92" />
            </g>
          </g>
        </g>
        <g
           id="ytick_9">
          <g
             id="line2d_15">
            <path
               d="M 76.98 75.756  L 666.717902 75.756  "
               clip-path="url(#paadb079758)"
               style="fill: none; stroke: #cccccc; stroke-width: 1.5; stroke-linecap: round"
               id="path92" />
          </g>
          <g
             id="text_16">
            <!-- 2.00 -->
            <g
               style="fill: #262626"
               transform="translate(37.76125 80.315062) scale(0.12 -0.12)"
               id="g96">
              <path
                 id="use93"
                 d="M 19.1875,8.296875 H 53.609375 V 0 H 7.328125 v 8.296875 q 5.609375,5.8125 15.296875,15.59375 9.703125,9.796875 12.1875,12.640625 4.734375,5.3125 6.609375,9 1.890625,3.6875 1.890625,7.25 0,5.8125 -4.078125,9.46875 -4.078125,3.671875 -10.625,3.671875 -4.640625,0 -9.796875,-1.609375 -5.140625,-1.609375 -11,-4.890625 v 9.96875 Q 13.765625,71.78125 18.9375,73 q 5.1875,1.21875 9.484375,1.21875 11.328125,0 18.0625,-5.671875 6.734375,-5.65625 6.734375,-15.125 0,-4.5 -1.6875,-8.53125 Q 49.859375,40.875 45.40625,35.40625 44.1875,33.984375 37.640625,27.21875 31.109375,20.453125 19.1875,8.296875 Z"
                 style="stroke-width:0.015625" />
              <use
                 xlink:href="#DejaVuSans-2e"
                 x="63.623047"
                 id="use94" />
              <use
                 xlink:href="#DejaVuSans-30"
                 x="95.410156"
                 id="use95" />
              <use
                 xlink:href="#DejaVuSans-30"
                 x="159.033203"
                 id="use96" />
            </g>
          </g>
        </g>
        <text
           xml:space="preserve"
           style="font-size:16px;line-height:16px;font-family:Calibri;-inkscape-font-specification:Calibri;text-align:center;letter-spacing:0px;word-spacing:0px;writing-mode:lr-tb;direction:ltr;text-anchor:middle;fill:#000000;stroke-width:1.06582;paint-order:stroke fill markers"
           x="-219.82542"
           y="24.937201"
           id="text254"
           transform="rotate(-90)"><tspan
             sodipodi:role="line"
             id="tspan254"
             style="stroke-width:1.06583"
             x="-219.82542"
             y="24.937201">Frequency</tspan></text>
      </g>
      <g
         id="patch_3">
        <path
           d="M 103.786268 362.076  L 121.657114 362.076  L 121.657114 218.916  L 103.786268 218.916  z "
           clip-path="url(#paadb079758)"
           style="fill: #4c72b0; fill-opacity: 0.5; stroke: #ffffff; stroke-width: 1.2; stroke-linejoin: miter"
           id="path105" />
      </g>
      <g
         id="patch_4">
        <path
           d="M 121.657114 362.076  L 139.527959 362.076  L 139.527959 218.916  L 121.657114 218.916  z "
           clip-path="url(#paadb079758)"
           style="fill: #4c72b0; fill-opacity: 0.5; stroke: #ffffff; stroke-width: 1.2; stroke-linejoin: miter"
           id="path106" />
      </g>
      <g
         id="patch_5">
        <path
           d="M 139.527959 362.076  L 157.398805 362.076  L 157.398805 362.076  L 139.527959 362.076  z "
           clip-path="url(#paadb079758)"
           style="fill: #4c72b0; fill-opacity: 0.5; stroke: #ffffff; stroke-width: 1.2; stroke-linejoin: miter"
           id="path107" />
      </g>
      <g
         id="patch_6">
        <path
           d="M 157.398805 362.076  L 175.26965 362.076  L 175.26965 362.076  L 157.398805 362.076  z "
           clip-path="url(#paadb079758)"
           style="fill: #4c72b0; fill-opacity: 0.5; stroke: #ffffff; stroke-width: 1.2; stroke-linejoin: miter"
           id="path108" />
      </g>
      <g
         id="patch_7">
        <path
           d="M 175.26965 362.076  L 193.140496 362.076  L 193.140496 362.076  L 175.26965 362.076  z "
           clip-path="url(#paadb079758)"
           style="fill: #4c72b0; fill-opacity: 0.5; stroke: #ffffff; stroke-width: 1.2; stroke-linejoin: miter"
           id="path109" />
      </g>
      <g
         id="patch_8">
        <path
           d="M 193.140496 362.076  L 211.011341 362.076  L 211.011341 362.076  L 193.140496 362.076  z "
           clip-path="url(#paadb079758)"
           style="fill: #4c72b0; fill-opacity: 0.5; stroke: #ffffff; stroke-width: 1.2; stroke-linejoin: miter"
           id="path110" />
      </g>
      <g
         id="patch_9">
        <path
           d="M 211.011341 362.076  L 228.882187 362.076  L 228.882187 218.916  L 211.011341 218.916  z "
           clip-path="url(#paadb079758)"
           style="fill: #4c72b0; fill-opacity: 0.5; stroke: #ffffff; stroke-width: 1.2; stroke-linejoin: miter"
           id="path111" />
      </g>
      <g
         id="patch_10">
        <path
           d="M 228.882187 362.076  L 246.753032 362.076  L 246.753032 362.076  L 228.882187 362.076  z "
           clip-path="url(#paadb079758)"
           style="fill: #4c72b0; fill-opacity: 0.5; stroke: #ffffff; stroke-width: 1.2; stroke-linejoin: miter"
           id="path112" />
      </g>
      <g
         id="patch_11">
        <path
           d="M 246.753032 362.076  L 264.623878 362.076  L 264.623878 362.076  L 246.753032 362.076  z "
           clip-path="url(#paadb079758)"
           style="fill: #4c72b0; fill-opacity: 0.5; stroke: #ffffff; stroke-width: 1.2; stroke-linejoin: miter"
           id="path113" />
      </g>
      <g
         id="patch_12">
        <path
           d="M 264.623878 362.076  L 282.494723 362.076  L 282.494723 362.076  L 264.623878 362.076  z "
           clip-path="url(#paadb079758)"
           style="fill: #4c72b0; fill-opacity: 0.5; stroke: #ffffff; stroke-width: 1.2; stroke-linejoin: miter"
           id="path114" />
      </g>
      <g
         id="patch_13">
        <path
           d="M 282.494723 362.076  L 300.365569 362.076  L 300.365569 362.076  L 282.494723 362.076  z "
           clip-path="url(#paadb079758)"
           style="fill: #4c72b0; fill-opacity: 0.5; stroke: #ffffff; stroke-width: 1.2; stroke-linejoin: miter"
           id="path115" />
      </g>
      <g
         id="patch_14">
        <path
           d="M 300.365569 362.076  L 318.236414 362.076  L 318.236414 218.916  L 300.365569 218.916  z "
           clip-path="url(#paadb079758)"
           style="fill: #4c72b0; fill-opacity: 0.5; stroke: #ffffff; stroke-width: 1.2; stroke-linejoin: miter"
           id="path116" />
      </g>
      <g
         id="patch_15">
        <path
           d="M 318.236414 362.076  L 336.10726 362.076  L 336.10726 218.916  L 318.236414 218.916  z "
           clip-path="url(#paadb079758)"
           style="fill: #4c72b0; fill-opacity: 0.5; stroke: #ffffff; stroke-width: 1.2; stroke-linejoin: miter"
           id="path117" />
      </g>
      <g
         id="patch_16">
        <path
           d="M 336.10726 362.076  L 353.978106 362.076  L 353.978106 218.916  L 336.10726 218.916  z "
           clip-path="url(#paadb079758)"
           style="fill: #4c72b0; fill-opacity: 0.5; stroke: #ffffff; stroke-width: 1.2; stroke-linejoin: miter"
           id="path118" />
      </g>
      <g
         id="patch_17">
        <path
           d="M 353.978106 362.076  L 371.848951 362.076  L 371.848951 362.076  L 353.978106 362.076  z "
           clip-path="url(#paadb079758)"
           style="fill: #4c72b0; fill-opacity: 0.5; stroke: #ffffff; stroke-width: 1.2; stroke-linejoin: miter"
           id="path119" />
      </g>
      <g
         id="patch_18">
        <path
           d="M 371.848951 362.076  L 389.719797 362.076  L 389.719797 362.076  L 371.848951 362.076  z "
           clip-path="url(#paadb079758)"
           style="fill: #4c72b0; fill-opacity: 0.5; stroke: #ffffff; stroke-width: 1.2; stroke-linejoin: miter"
           id="path120" />
      </g>
      <g
         id="patch_19">
        <path
           d="M 389.719797 362.076  L 407.590642 362.076  L 407.590642 362.076  L 389.719797 362.076  z "
           clip-path="url(#paadb079758)"
           style="fill: #4c72b0; fill-opacity: 0.5; stroke: #ffffff; stroke-width: 1.2; stroke-linejoin: miter"
           id="path121" />
      </g>
      <g
         id="patch_20">
        <path
           d="M 407.590642 362.076  L 425.461488 362.076  L 425.461488 218.916  L 407.590642 218.916  z "
           clip-path="url(#paadb079758)"
           style="fill: #4c72b0; fill-opacity: 0.5; stroke: #ffffff; stroke-width: 1.2; stroke-linejoin: miter"
           id="path122" />
      </g>
      <g
         id="patch_21">
        <path
           d="M 425.461488 362.076  L 443.332333 362.076  L 443.332333 362.076  L 425.461488 362.076  z "
           clip-path="url(#paadb079758)"
           style="fill: #4c72b0; fill-opacity: 0.5; stroke: #ffffff; stroke-width: 1.2; stroke-linejoin: miter"
           id="path123" />
      </g>
      <g
         id="patch_22">
        <path
           d="M 443.332333 362.076  L 461.203179 362.076  L 461.203179 362.076  L 443.332333 362.076  z "
           clip-path="url(#paadb079758)"
           style="fill: #4c72b0; fill-opacity: 0.5; stroke: #ffffff; stroke-width: 1.2; stroke-linejoin: miter"
           id="path124" />
      </g>
      <g
         id="patch_23">
        <path
           d="M 461.203179 362.076  L 479.074024 362.076  L 479.074024 362.076  L 461.203179 362.076  z "
           clip-path="url(#paadb079758)"
           style="fill: #4c72b0; fill-opacity: 0.5; stroke: #ffffff; stroke-width: 1.2; stroke-linejoin: miter"
           id="path125" />
      </g>
      <g
         id="patch_24">
        <path
           d="M 479.074024 362.076  L 496.94487 362.076  L 496.94487 75.756  L 479.074024 75.756  z "
           clip-path="url(#paadb079758)"
           style="fill: #4c72b0; fill-opacity: 0.5; stroke: #ffffff; stroke-width: 1.2; stroke-linejoin: miter"
           id="path126" />
      </g>
      <g
         id="patch_25">
        <path
           d="M 496.94487 362.076  L 514.815715 362.076  L 514.815715 362.076  L 496.94487 362.076  z "
           clip-path="url(#paadb079758)"
           style="fill: #4c72b0; fill-opacity: 0.5; stroke: #ffffff; stroke-width: 1.2; stroke-linejoin: miter"
           id="path127" />
      </g>
      <g
         id="patch_26">
        <path
           d="M 514.815715 362.076  L 532.686561 362.076  L 532.686561 362.076  L 514.815715 362.076  z "
           clip-path="url(#paadb079758)"
           style="fill: #4c72b0; fill-opacity: 0.5; stroke: #ffffff; stroke-width: 1.2; stroke-linejoin: miter"
           id="path128" />
      </g>
      <g
         id="patch_27">
        <path
           d="M 532.686561 362.076  L 550.557406 362.076  L 550.557406 362.076  L 532.686561 362.076  z "
           clip-path="url(#paadb079758)"
           style="fill: #4c72b0; fill-opacity: 0.5; stroke: #ffffff; stroke-width: 1.2; stroke-linejoin: miter"
           id="path129" />
      </g>
      <g
         id="patch_28">
        <path
           d="M 550.557406 362.076  L 568.428252 362.076  L 568.428252 362.076  L 550.557406 362.076  z "
           clip-path="url(#paadb079758)"
           style="fill: #4c72b0; fill-opacity: 0.5; stroke: #ffffff; stroke-width: 1.2; stroke-linejoin: miter"
           id="path130" />
      </g>
      <g
         id="patch_29">
        <path
           d="M 568.428252 362.076  L 586.299097 362.076  L 586.299097 362.076  L 568.428252 362.076  z "
           clip-path="url(#paadb079758)"
           style="fill: #4c72b0; fill-opacity: 0.5; stroke: #ffffff; stroke-width: 1.2; stroke-linejoin: miter"
           id="path131" />
      </g>
      <g
         id="patch_30">
        <path
           d="M 586.299097 362.076  L 604.169943 362.076  L 604.169943 362.076  L 586.299097 362.076  z "
           clip-path="url(#paadb079758)"
           style="fill: #4c72b0; fill-opacity: 0.5; stroke: #ffffff; stroke-width: 1.2; stroke-linejoin: miter"
           id="path132" />
      </g>
      <g
         id="patch_31">
        <path
           d="M 604.169943 362.076  L 622.040788 362.076  L 622.040788 362.076  L 604.169943 362.076  z "
           clip-path="url(#paadb079758)"
           style="fill: #4c72b0; fill-opacity: 0.5; stroke: #ffffff; stroke-width: 1.2; stroke-linejoin: miter"
           id="path133" />
      </g>
      <g
         id="patch_32">
        <path
           d="M 622.040788 362.076  L 639.911634 362.076  L 639.911634 218.916  L 622.040788 218.916  z "
           clip-path="url(#paadb079758)"
           style="fill: #4c72b0; fill-opacity: 0.5; stroke: #ffffff; stroke-width: 1.2; stroke-linejoin: miter"
           id="path134" />
      </g>
      <g
         id="line2d_16">
        <path
           d="M 103.786268 334.229716  L 125.339047 331.229481  L 146.891825 328.473943  L 168.444604 325.95128  L 192.69148 323.346651  L 219.632453 320.684075  L 246.573426 318.25175  L 268.126204 316.516168  L 286.984886 315.209502  L 303.14947 314.292275  L 319.314053 313.599577  L 335.478637 313.161333  L 348.949124 313.006262  L 362.41961 313.050066  L 375.890097 313.294992  L 389.360584 313.738875  L 402.83107 314.375874  L 418.995654 315.382833  L 435.160238 316.636587  L 451.324822 318.11569  L 470.183503 320.094863  L 489.042184 322.308909  L 510.594963 325.07133  L 537.535936 328.770882  L 639.911634 343.132631  L 639.911634 343.132631  "
           clip-path="url(#paadb079758)"
           style="fill: none; stroke: #4c72b0; stroke-width: 2.25; stroke-linecap: round"
           id="path135" />
      </g>
      <g
         id="line2d_17">
        <path
           d="M 348.116205 362.076  L 348.116205 61.44  "
           clip-path="url(#paadb079758)"
           style="fill: none; stroke-dasharray: 8.325,3.6; stroke-dashoffset: 0; stroke: #ff0000; stroke-width: 2.25"
           id="path136" />
      </g>
      <g
         id="line2d_18">
        <path
           d="M 109.721781 362.076  L 109.721781 61.44  "
           clip-path="url(#paadb079758)"
           style="fill: none; stroke-dasharray: 1,1.65; stroke-dashoffset: 0; stroke: #808080"
           id="path137" />
      </g>
      <g
         id="line2d_19">
        <path
           d="M 607.65844 362.076  L 607.65844 61.44  "
           clip-path="url(#paadb079758)"
           style="fill: none; stroke-dasharray: 1,1.65; stroke-dashoffset: 0; stroke: #808080"
           id="path138" />
      </g>
      <g
         id="patch_33">
        <path
           d="M 76.98 362.076  L 76.98 61.44  "
           style="fill: none; stroke: #cccccc; stroke-width: 1.875; stroke-linejoin: miter; stroke-linecap: square"
           id="path139" />
      </g>
      <g
         id="patch_34">
        <path
           d="M 666.717902 362.076  L 666.717902 61.44  "
           style="fill: none; stroke: #cccccc; stroke-width: 1.875; stroke-linejoin: miter; stroke-linecap: square"
           id="path140" />
      </g>
      <g
         id="patch_35">
        <path
           d="M 76.98 362.076  L 666.717902 362.076  "
           style="fill: none; stroke: #cccccc; stroke-width: 1.875; stroke-linejoin: miter; stroke-linecap: square"
           id="path141" />
      </g>
      <g
         id="patch_36">
        <path
           d="M 76.98 61.44  L 666.717902 61.44  "
           style="fill: none; stroke: #cccccc; stroke-width: 1.875; stroke-linejoin: miter; stroke-linecap: square"
           id="path142" />
      </g>
      <g
         id="text_18">
        <!-- Mean $R^2$: 0.968 -->
        <g
           transform="matrix(0.14,0,0,-0.14,299.9075,51.890262)"
           id="g156">
          <defs
             id="defs143">
            <path
               id="DejaVuSans-4d"
               d="m 628,4666 h 941 L 2759,1491 3956,4666 h 941 V 0 H 4281 V 4097 L 3078,897 H 2444 L 1241,4097 V 0 H 628 Z"
               transform="scale(0.015625)" />
            <path
               id="DejaVuSans-3a"
               d="m 750,794 h 659 V 0 H 750 Z m 0,2515 h 659 V 2516 H 750 Z"
               transform="scale(0.015625)" />
          </defs>
          <use
             xlink:href="#DejaVuSans-4d"
             transform="translate(0,0.765625)"
             id="use143" />
          <path
             id="use144"
             d="M 142.48242,30.359375 V 25.96875 h -41.3125 q 0.59375,-9.28125 5.59375,-14.140625 5,-4.859375 13.9375,-4.859375 5.17188,0 10.03125,1.265625 4.85938,1.265625 9.65625,3.8125 v -8.5 Q 135.54492,1.5 130.4668,0.421875 125.38867,-0.65625 120.16992,-0.65625 q -13.09375,0 -20.734373,7.609375 -7.640625,7.625 -7.640625,20.625 0,13.421875 7.25,21.296875 7.249998,7.890625 19.562498,7.890625 11.03125,0 17.45313,-7.109375 6.42187,-7.09375 6.42187,-19.296875 z M 133.49805,33 q -0.0937,7.359375 -4.125,11.75 -4.03125,4.40625 -10.67188,4.40625 -7.51562,0 -12.03125,-4.25 -4.51562,-4.25 -5.20312,-11.96875 z"
             style="stroke-width:0.015625" />
          <path
             id="use145"
             d="m 182.08398,28.25 q -10.89062,0 -15.09375,-2.484375 -4.20312,-2.484375 -4.20312,-8.5 0,-4.78125 3.15625,-7.59375 3.15625,-2.796875 8.5625,-2.796875 7.48437,0 12,5.296875 4.51562,5.296875 4.51562,14.078125 v 2 z m 17.92188,3.71875 V 0.765625 h -8.98438 V 9.0625 q -3.07812,-4.96875 -7.67187,-7.34375 -4.59375,-2.375 -11.23438,-2.375 -8.39062,0 -13.35937,4.71875 -4.95313,4.71875 -4.95313,12.625 0,9.21875 6.17188,13.90625 6.1875,4.6875 18.4375,4.6875 h 12.60937 v 0.890625 q 0,6.203125 -4.07812,9.59375 -4.07813,3.390625 -11.45313,3.390625 -4.6875,0 -9.14062,-1.125 -4.4375,-1.125 -8.53125,-3.375 v 8.3125 q 4.92187,1.90625 9.5625,2.84375 4.64062,0.953125 9.03125,0.953125 11.875,0 17.73437,-6.15625 5.85938,-6.140625 5.85938,-18.640625 z"
             style="stroke-width:0.015625" />
          <path
             id="use146"
             d="M 263.97266,33.78125 V 0.765625 h -8.98438 v 32.71875 q 0,7.765625 -3.03125,11.609375 -3.03125,3.859375 -9.07812,3.859375 -7.28125,0 -11.48438,-4.640625 -4.20312,-4.625 -4.20312,-12.640625 V 0.765625 h -9.03125 v 54.6875 h 9.03125 v -8.5 q 3.23437,4.9375 7.59375,7.375 4.375,2.4375 10.09375,2.4375 9.42187,0 14.25,-5.828125 4.84375,-5.828125 4.84375,-17.15625 z"
             style="stroke-width:0.015625" />
          <path
             id="use147"
             d=""
             style="stroke-width:0.015625" />
          <path
             id="use148"
             d="m 329.45117,65.5625 -4.98437,-25.875 h 12.6875 q 7.46875,0 12.07812,4.125 4.625,4.125 4.625,10.765625 0,5.3125 -3.10937,8.140625 -3.09375,2.84375 -8.90625,2.84375 z m 18.10938,-29.78125 q 3.125,-0.734375 5.20312,-3.625 2.07813,-2.875 4.8125,-11.46875 l 6.1875,-19.921875 H 353.37305 L 347.6543,19.46875 q -2.1875,7.21875 -5.07813,9.65625 -2.875,2.453125 -8.82812,2.453125 h -10.89063 l -6.01562,-30.8125 h -9.90625 l 14.20312,72.90625 h 22.21875 q 10.10938,0 15.5,-4.578125 5.40625,-4.5625 5.40625,-13.15625 0,-7.609375 -4.59375,-13.1875 -4.59375,-5.5625 -12.10937,-6.96875 z"
             style="stroke-width:0.015625" />
          <path
             id="use149"
             d="m 394.17849,44.854687 h 24.09531 v -5.807812 h -32.39687 v 5.807812 q 3.92656,4.06875 10.70781,10.915626 6.79219,6.857812 8.53125,8.848437 3.31406,3.71875 4.62656,6.3 1.32344,2.58125 1.32344,5.075 0,4.06875 -2.85469,6.628125 -2.85469,2.570312 -7.4375,2.570312 -3.24844,0 -6.85781,-1.126562 -3.59844,-1.126562 -7.7,-3.423437 v 6.978124 q 4.16719,1.673438 7.7875,2.526563 Q 397.63474,91 400.64255,91 q 7.92969,0 12.64375,-3.970313 4.71406,-3.959375 4.71406,-10.5875 0,-3.15 -1.18125,-5.971874 -1.17031,-2.810938 -4.2875,-6.639063 Q 411.67849,62.835937 407.09568,58.1 402.5238,53.364063 394.17849,44.854687 Z"
             style="stroke-width:0.0109375" />
          <use
             xlink:href="#DejaVuSans-3a"
             transform="translate(428.01775,0.765625)"
             id="use150" />
          <path
             id="use151"
             d=""
             style="stroke-width:0.015625" />
          <use
             xlink:href="#DejaVuSans-30"
             transform="translate(493.49626,0.765625)"
             id="use152" />
          <use
             xlink:href="#DejaVuSans-2e"
             transform="translate(557.11931,0.765625)"
             id="use153" />
          <use
             xlink:href="#DejaVuSans-39"
             transform="translate(588.90642,0.765625)"
             id="use154" />
          <use
             xlink:href="#DejaVuSans-36"
             transform="translate(652.52947,0.765625)"
             id="use155" />
          <use
             xlink:href="#DejaVuSans-38"
             transform="translate(716.15251,0.765625)"
             id="use156" />
        </g>
        <!-- 95% CI: [0.955, 0.981] -->
      </g>
      <g
         id="text_19">
        <!-- Distribution of Variant Effect $R^2$ -->
        <!-- from Bootstrapped Replicate Splits -->
      </g>
    </g>
  </g>
  <defs
     id="defs252">
    <clipPath
       id="paadb079758">
      <rect
         x="76.98"
         y="61.44"
         width="589.737902"
         height="300.636"
         id="rect252" />
    </clipPath>
  </defs>
</svg>
