<?xml version="1.0" encoding="UTF-8" standalone="no"?>
<svg
   width="720pt"
   height="432pt"
   viewBox="0 0 720 432"
   version="1.1"
   id="svg252"
   sodipodi:docname="supplementary_fig2.svg"
   inkscape:version="1.4.2 (ebf0e940, 2025-05-08)"
   inkscape:export-filename="supplementary_fig2.png"
   inkscape:export-xdpi="300"
   inkscape:export-ydpi="300"
   xmlns:inkscape="http://www.inkscape.org/namespaces/inkscape"
   xmlns:sodipodi="http://sodipodi.sourceforge.net/DTD/sodipodi-0.dtd"
   xmlns:xlink="http://www.w3.org/1999/xlink"
   xmlns="http://www.w3.org/2000/svg"
   xmlns:svg="http://www.w3.org/2000/svg"
   xmlns:rdf="http://www.w3.org/1999/02/22-rdf-syntax-ns#"
   xmlns:cc="http://creativecommons.org/ns#"
   xmlns:dc="http://purl.org/dc/elements/1.1/">
  <sodipodi:namedview
     id="namedview252"
     pagecolor="#ffffff"
     bordercolor="#cccccc"
     borderopacity="1"
     inkscape:showpageshadow="0"
     inkscape:pageopacity="1"
     inkscape:pagecheckerboard="0"
     inkscape:deskcolor="#d1d1d1"
     inkscape:document-units="pt"
     inkscape:zoom="1.3002795"
     inkscape:cx="572.18465"
     inkscape:cy="270.71102"
     inkscape:window-width="1920"
     inkscape:window-height="1027"
     inkscape:window-x="1440"
     inkscape:window-y="25"
     inkscape:window-maximized="0"
     inkscape:current-layer="g37" />
  <metadata
     id="metadata1">
    <rdf:RDF>
      <cc:Work>
        <dc:type
           rdf:resource="http://purl.org/dc/dcmitype/StillImage" />
        <dc:date>2025-10-10T15:10:04.759689</dc:date>
        <dc:format>image/svg+xml</dc:format>
        <dc:creator>
          <cc:Agent>
            <dc:title>Matplotlib v3.9.0, https://matplotlib.org/</dc:title>
          </cc:Agent>
        </dc:creator>
      </cc:Work>
    </rdf:RDF>
  </metadata>
  <defs
     id="defs1">
    <linearGradient
       id="swatch8"
       inkscape:swatch="solid">
      <stop
         style="stop-color:#000000;stop-opacity:1;"
         offset="0"
         id="stop8" />
    </linearGradient>
    <style
       type="text/css"
       id="style1">*{stroke-linejoin: round; stroke-linecap: butt}</style>
    <clipPath
       id="p7ad1caf604">
      <rect
         x="106.77"
         y="50.495998"
         width="233.78999"
         height="362.064"
         id="rect120" />
    </clipPath>
    <clipPath
       id="clipPath1">
      <rect
         x="106.77"
         y="50.495998"
         width="233.78999"
         height="362.064"
         id="rect1" />
    </clipPath>
    <clipPath
       id="clipPath2">
      <rect
         x="106.77"
         y="50.495998"
         width="233.78999"
         height="362.064"
         id="rect2" />
    </clipPath>
    <clipPath
       id="clipPath3">
      <rect
         x="106.77"
         y="50.495998"
         width="233.78999"
         height="362.064"
         id="rect3" />
    </clipPath>
    <clipPath
       id="clipPath4">
      <rect
         x="106.77"
         y="50.495998"
         width="233.78999"
         height="362.064"
         id="rect4" />
    </clipPath>
    <clipPath
       id="clipPath5">
      <rect
         x="106.77"
         y="50.495998"
         width="233.78999"
         height="362.064"
         id="rect5" />
    </clipPath>
    <clipPath
       id="clipPath6">
      <rect
         x="106.77"
         y="50.495998"
         width="233.78999"
         height="362.064"
         id="rect6" />
    </clipPath>
    <clipPath
       id="clipPath7">
      <rect
         x="106.77"
         y="50.495998"
         width="233.78999"
         height="362.064"
         id="rect7" />
    </clipPath>
    <clipPath
       id="clipPath8">
      <rect
         x="106.77"
         y="50.495998"
         width="233.78999"
         height="362.064"
         id="rect8" />
    </clipPath>
    <clipPath
       id="clipPath9">
      <rect
         x="106.77"
         y="50.495998"
         width="233.78999"
         height="362.064"
         id="rect9" />
    </clipPath>
    <clipPath
       id="clipPath10">
      <rect
         x="106.77"
         y="50.495998"
         width="233.78999"
         height="362.064"
         id="rect10" />
    </clipPath>
    <clipPath
       id="clipPath11">
      <rect
         x="106.77"
         y="50.495998"
         width="233.78999"
         height="362.064"
         id="rect11" />
    </clipPath>
    <clipPath
       id="clipPath12">
      <rect
         x="106.77"
         y="50.495998"
         width="233.78999"
         height="362.064"
         id="rect12" />
    </clipPath>
    <clipPath
       id="clipPath13">
      <rect
         x="106.77"
         y="50.495998"
         width="233.78999"
         height="362.064"
         id="rect13" />
    </clipPath>
    <clipPath
       id="clipPath14">
      <rect
         x="106.77"
         y="50.495998"
         width="233.78999"
         height="362.064"
         id="rect14" />
    </clipPath>
    <path
       id="DejaVuSans-30"
       d="m 2034,4250 q -487,0 -733,-480 -245,-479 -245,-1442 0,-959 245,-1439 246,-480 733,-480 491,0 736,480 246,480 246,1439 0,963 -246,1442 -245,480 -736,480 z m 0,500 q 785,0 1199,-621 414,-620 414,-1801 0,-1178 -414,-1799 -414,-620 -1199,-620 -784,0 -1198,620 -414,621 -414,1799 0,1181 414,1801 414,621 1198,621 z"
       transform="scale(0.015625)" />
    <path
       id="DejaVuSans-2e"
       d="m 684,794 h 660 V 0 H 684 Z"
       transform="scale(0.015625)" />
    <path
       id="DejaVuSans-39"
       d="m 703,97 v 575 q 238,-113 481,-172 244,-59 479,-59 625,0 954,420 330,420 377,1277 -181,-269 -460,-413 -278,-144 -615,-144 -700,0 -1108,423 -408,424 -408,1159 0,718 425,1152 425,435 1131,435 810,0 1236,-621 427,-620 427,-1801 Q 3622,1225 3098,567 2575,-91 1691,-91 1453,-91 1209,-44 966,3 703,97 Z m 1256,1978 q 425,0 673,290 249,291 249,798 0,503 -249,795 -248,292 -673,292 -425,0 -673,-292 -248,-292 -248,-795 0,-507 248,-798 248,-290 673,-290 z"
       transform="scale(0.015625)" />
    <path
       id="DejaVuSans-37"
       d="M 525,4666 H 3525 V 4397 L 1831,0 H 1172 L 2766,4134 H 525 Z"
       transform="scale(0.015625)" />
    <path
       id="DejaVuSans-35"
       d="M 691,4666 H 3169 V 4134 H 1269 V 2991 q 137,47 274,70 138,23 276,23 781,0 1237,-428 457,-428 457,-1159 Q 3513,744 3044,326 2575,-91 1722,-91 1428,-91 1123,-41 819,9 494,109 v 635 q 281,-153 581,-228 300,-75 634,-75 541,0 856,284 316,284 316,772 0,487 -316,771 -315,285 -856,285 -253,0 -505,-56 -251,-56 -513,-175 z"
       transform="scale(0.015625)" />
    <path
       id="DejaVuSans-38"
       d="m 2034,2216 q -450,0 -708,-241 -257,-241 -257,-662 0,-422 257,-663 258,-241 708,-241 450,0 709,242 260,243 260,662 0,421 -258,662 -257,241 -711,241 z m -631,268 q -406,100 -633,378 -226,279 -226,679 0,559 398,884 399,325 1092,325 697,0 1094,-325 397,-325 397,-884 0,-400 -227,-679 -226,-278 -629,-378 456,-106 710,-416 255,-309 255,-755 Q 3634,634 3220,271 2806,-91 2034,-91 1263,-91 848,271 434,634 434,1313 q 0,446 256,755 257,310 713,416 z m -231,997 q 0,-362 226,-565 227,-203 636,-203 407,0 636,203 230,203 230,565 0,363 -230,566 -229,203 -636,203 -409,0 -636,-203 -226,-203 -226,-566 z"
       transform="scale(0.015625)" />
    <path
       id="DejaVuSans-32"
       d="M 1228,531 H 3431 V 0 H 469 v 531 q 359,372 979,998 621,627 780,809 303,340 423,576 121,236 121,464 0,372 -261,606 -261,235 -680,235 -297,0 -627,-103 -329,-103 -704,-313 v 638 q 381,153 712,231 332,78 607,78 725,0 1156,-363 431,-362 431,-968 0,-288 -108,-546 -107,-257 -392,-607 -78,-91 -497,-524 Q 1991,1309 1228,531 Z"
       transform="scale(0.015625)" />
    <path
       id="DejaVuSans-50"
       d="M 1259,4147 V 2394 h 794 q 441,0 681,228 241,228 241,650 0,419 -241,647 -240,228 -681,228 z m -631,519 h 1425 q 785,0 1186,-355 402,-355 402,-1039 0,-691 -402,-1044 -401,-353 -1186,-353 H 1259 V 0 H 628 Z"
       transform="scale(0.015625)" />
    <path
       id="DejaVuSans-65"
       d="M 3597,1894 V 1613 H 953 q 38,-594 358,-905 320,-311 892,-311 331,0 642,81 311,81 618,244 V 178 Q 3153,47 2828,-22 2503,-91 2169,-91 1331,-91 842,396 353,884 353,1716 q 0,859 464,1363 464,505 1252,505 706,0 1117,-455 411,-454 411,-1235 z m -575,169 q -6,471 -264,752 -258,282 -683,282 -481,0 -770,-272 -289,-272 -333,-766 z"
       transform="scale(0.015625)" />
    <path
       id="DejaVuSans-61"
       d="m 2194,1759 q -697,0 -966,-159 -269,-159 -269,-544 0,-306 202,-486 202,-179 548,-179 479,0 768,339 289,339 289,901 v 128 z m 1147,238 V 0 H 2766 V 531 Q 2569,213 2275,61 1981,-91 1556,-91 q -537,0 -855,302 -317,302 -317,808 0,590 395,890 396,300 1180,300 h 807 v 57 q 0,397 -261,614 -261,217 -733,217 -300,0 -585,-72 -284,-72 -546,-216 v 532 q 315,122 612,182 297,61 578,61 760,0 1135,-394 375,-393 375,-1193 z"
       transform="scale(0.015625)" />
    <path
       id="DejaVuSans-72"
       d="m 2631,2963 q -97,56 -211,82 -114,27 -251,27 -488,0 -749,-317 -261,-317 -261,-911 V 0 H 581 v 3500 h 578 v -544 q 182,319 472,473 291,155 707,155 59,0 131,-8 72,-7 159,-23 z"
       transform="scale(0.015625)" />
    <path
       id="DejaVuSans-73"
       d="m 2834,3397 v -544 q -243,125 -506,187 -262,63 -544,63 -428,0 -642,-131 -214,-131 -214,-394 0,-200 153,-314 153,-114 616,-217 l 197,-44 q 612,-131 870,-370 258,-239 258,-667 0,-488 -386,-773 Q 2250,-91 1575,-91 1294,-91 989,-36 684,19 347,128 v 594 q 319,-166 628,-249 309,-82 613,-82 406,0 624,139 219,139 219,392 0,234 -158,359 -157,125 -692,241 l -200,47 q -534,112 -772,345 -237,233 -237,639 0,494 350,762 350,269 994,269 318,0 599,-47 282,-46 519,-140 z"
       transform="scale(0.015625)" />
    <path
       id="DejaVuSans-6f"
       d="m 1959,3097 q -462,0 -731,-361 -269,-361 -269,-989 0,-628 267,-989 268,-361 733,-361 460,0 728,362 269,363 269,988 0,622 -269,986 -268,364 -728,364 z m 0,487 q 750,0 1178,-488 429,-487 429,-1349 Q 3566,888 3137,398 2709,-91 1959,-91 1206,-91 779,398 353,888 353,1747 q 0,862 426,1349 427,488 1180,488 z"
       transform="scale(0.015625)" />
    <path
       id="DejaVuSans-6e"
       d="M 3513,2113 V 0 h -575 v 2094 q 0,497 -194,743 -194,247 -581,247 -466,0 -735,-297 -269,-296 -269,-809 V 0 H 581 v 3500 h 578 v -544 q 207,316 486,472 280,156 646,156 603,0 912,-373 310,-373 310,-1098 z"
       transform="scale(0.015625)" />
    <path
       id="DejaVuSans-20"
       transform="scale(0.015625)"
       d="" />
    <path
       id="mb24350a55d"
       d="M 0,7.071068 C 1.875269,7.071068 3.673985,6.326016 5,5 6.326016,3.673985 7.071068,1.875269 7.071068,0 7.071068,-1.875269 6.326016,-3.673985 5,-5 3.673985,-6.326016 1.875269,-7.071068 0,-7.071068 c -1.875269,0 -3.673985,0.745052 -5,2.071068 -1.326016,1.326015 -2.071068,3.124731 -2.071068,5 0,1.875269 0.745052,3.673985 2.071068,5 1.326015,1.326016 3.124731,2.071068 5,2.071068 z"
       style="stroke:#4c72b0;stroke-width:0.5;stroke-opacity:0.6" />
    <path
       id="DejaVuSans-49"
       d="m 628,4666 h 631 V 0 H 628 Z"
       transform="scale(0.015625)" />
    <path
       id="DejaVuSans-74"
       d="M 1172,4494 V 3500 H 2356 V 3053 H 1172 V 1153 q 0,-428 117,-550 117,-122 477,-122 h 590 V 0 H 1766 Q 1100,0 847,248 594,497 594,1153 V 3053 H 172 v 447 h 422 v 994 z"
       transform="scale(0.015625)" />
    <path
       id="DejaVuSans-2d"
       d="M 313,2009 H 1997 V 1497 H 313 Z"
       transform="scale(0.015625)" />
    <path
       id="DejaVuSans-70"
       d="M 1159,525 V -1331 H 581 v 4831 h 578 v -531 q 182,312 458,463 277,152 661,152 638,0 1036,-506 399,-506 399,-1331 0,-825 -399,-1332 -398,-506 -1036,-506 -384,0 -661,152 -276,152 -458,464 z m 1957,1222 q 0,634 -261,995 -261,361 -717,361 -457,0 -718,-361 -261,-361 -261,-995 0,-634 261,-995 261,-361 718,-361 456,0 717,361 261,361 261,995 z"
       transform="scale(0.015625)" />
    <path
       id="DejaVuSans-6c"
       d="m 603,4863 h 575 V 0 H 603 Z"
       transform="scale(0.015625)" />
    <path
       id="DejaVuSans-69"
       d="m 603,3500 h 575 V 0 H 603 Z m 0,1363 h 575 V 4134 H 603 Z"
       transform="scale(0.015625)" />
    <path
       id="DejaVuSans-63"
       d="m 3122,3366 v -538 q -244,135 -489,202 -245,67 -495,67 -560,0 -870,-355 -309,-354 -309,-995 0,-641 309,-996 310,-354 870,-354 250,0 495,67 245,67 489,202 V 134 Q 2881,22 2623,-34 2366,-91 2075,-91 1284,-91 818,406 353,903 353,1747 q 0,856 470,1346 471,491 1290,491 265,0 518,-55 253,-54 491,-163 z"
       transform="scale(0.015625)" />
    <path
       id="DejaVuSans-66"
       d="m 2375,4863 v -479 h -550 q -309,0 -430,-125 -120,-125 -120,-450 v -309 h 947 V 3053 H 1275 V 0 H 697 V 3053 H 147 v 447 h 550 v 244 q 0,584 272,851 272,268 862,268 z"
       transform="scale(0.015625)" />
    <path
       id="DejaVuSans-76"
       d="M 191,3500 H 800 L 1894,563 2988,3500 h 609 L 2284,0 h -781 z"
       transform="scale(0.015625)" />
    <path
       id="path4-8"
       d="m 2034,4250 q -487,0 -733,-480 -245,-479 -245,-1442 0,-959 245,-1439 246,-480 733,-480 491,0 736,480 246,480 246,1439 0,963 -246,1442 -245,480 -736,480 z m 0,500 q 785,0 1199,-621 414,-620 414,-1801 0,-1178 -414,-1799 -414,-620 -1199,-620 -784,0 -1198,620 -414,621 -414,1799 0,1181 414,1801 414,621 1198,621 z"
       transform="scale(0.015625)" />
    <path
       id="path5-5"
       d="m 684,794 h 660 V 0 H 684 Z"
       transform="scale(0.015625)" />
    <path
       id="path6-5"
       d="m 703,97 v 575 q 238,-113 481,-172 244,-59 479,-59 625,0 954,420 330,420 377,1277 -181,-269 -460,-413 -278,-144 -615,-144 -700,0 -1108,423 -408,424 -408,1159 0,718 425,1152 425,435 1131,435 810,0 1236,-621 427,-620 427,-1801 Q 3622,1225 3098,567 2575,-91 1691,-91 1453,-91 1209,-44 966,3 703,97 Z m 1256,1978 q 425,0 673,290 249,291 249,798 0,503 -249,795 -248,292 -673,292 -425,0 -673,-292 -248,-292 -248,-795 0,-507 248,-798 248,-290 673,-290 z"
       transform="scale(0.015625)" />
    <path
       id="path7-5"
       d="M 525,4666 H 3525 V 4397 L 1831,0 H 1172 L 2766,4134 H 525 Z"
       transform="scale(0.015625)" />
    <path
       id="path8-4"
       d="M 691,4666 H 3169 V 4134 H 1269 V 2991 q 137,47 274,70 138,23 276,23 781,0 1237,-428 457,-428 457,-1159 Q 3513,744 3044,326 2575,-91 1722,-91 1428,-91 1123,-41 819,9 494,109 v 635 q 281,-153 581,-228 300,-75 634,-75 541,0 856,284 316,284 316,772 0,487 -316,771 -315,285 -856,285 -253,0 -505,-56 -251,-56 -513,-175 z"
       transform="scale(0.015625)" />
    <clipPath
       id="paf1fd4e396">
      <rect
         x="138.87"
         y="69.935997"
         width="182.25"
         height="323.18399"
         id="rect79" />
    </clipPath>
    <clipPath
       id="clipPath1-5">
      <rect
         x="138.87"
         y="69.935997"
         width="182.25"
         height="323.18399"
         id="rect1-2" />
    </clipPath>
    <clipPath
       id="clipPath2-2">
      <rect
         x="138.87"
         y="69.935997"
         width="182.25"
         height="323.18399"
         id="rect2-7" />
    </clipPath>
    <clipPath
       id="clipPath3-3">
      <rect
         x="138.87"
         y="69.935997"
         width="182.25"
         height="323.18399"
         id="rect3-7" />
    </clipPath>
    <clipPath
       id="clipPath4-9">
      <rect
         x="138.87"
         y="69.935997"
         width="182.25"
         height="323.18399"
         id="rect4-0" />
    </clipPath>
    <clipPath
       id="clipPath5-2">
      <rect
         x="138.87"
         y="69.935997"
         width="182.25"
         height="323.18399"
         id="rect5-3" />
    </clipPath>
    <clipPath
       id="clipPath6-9">
      <rect
         x="138.87"
         y="69.935997"
         width="182.25"
         height="323.18399"
         id="rect6-9" />
    </clipPath>
    <path
       id="DejaVuSans-30-7"
       d="m 2034,4250 q -487,0 -733,-480 -245,-479 -245,-1442 0,-959 245,-1439 246,-480 733,-480 491,0 736,480 246,480 246,1439 0,963 -246,1442 -245,480 -736,480 z m 0,500 q 785,0 1199,-621 414,-620 414,-1801 0,-1178 -414,-1799 -414,-620 -1199,-620 -784,0 -1198,620 -414,621 -414,1799 0,1181 414,1801 414,621 1198,621 z"
       transform="scale(0.015625)" />
    <path
       id="DejaVuSans-2e-6"
       d="m 684,794 h 660 V 0 H 684 Z"
       transform="scale(0.015625)" />
    <path
       id="DejaVuSans-39-2"
       d="m 703,97 v 575 q 238,-113 481,-172 244,-59 479,-59 625,0 954,420 330,420 377,1277 -181,-269 -460,-413 -278,-144 -615,-144 -700,0 -1108,423 -408,424 -408,1159 0,718 425,1152 425,435 1131,435 810,0 1236,-621 427,-620 427,-1801 Q 3622,1225 3098,567 2575,-91 1691,-91 1453,-91 1209,-44 966,3 703,97 Z m 1256,1978 q 425,0 673,290 249,291 249,798 0,503 -249,795 -248,292 -673,292 -425,0 -673,-292 -248,-292 -248,-795 0,-507 248,-798 248,-290 673,-290 z"
       transform="scale(0.015625)" />
    <path
       id="DejaVuSans-36"
       d="m 2113,2584 q -425,0 -674,-291 -248,-290 -248,-796 0,-503 248,-796 249,-292 674,-292 425,0 673,292 248,293 248,796 0,506 -248,796 -248,291 -673,291 z m 1253,1979 v -575 q -238,112 -480,171 -242,60 -480,60 -625,0 -955,-422 -329,-422 -376,-1275 184,272 462,417 279,145 613,145 703,0 1111,-427 408,-426 408,-1160 0,-719 -425,-1154 -425,-434 -1131,-434 -810,0 -1238,620 -428,621 -428,1799 0,1106 525,1764 525,658 1409,658 238,0 480,-47 242,-47 505,-140 z"
       transform="scale(0.015625)" />
    <path
       id="DejaVuSans-38-7"
       d="m 2034,2216 q -450,0 -708,-241 -257,-241 -257,-662 0,-422 257,-663 258,-241 708,-241 450,0 709,242 260,243 260,662 0,421 -258,662 -257,241 -711,241 z m -631,268 q -406,100 -633,378 -226,279 -226,679 0,559 398,884 399,325 1092,325 697,0 1094,-325 397,-325 397,-884 0,-400 -227,-679 -226,-278 -629,-378 456,-106 710,-416 255,-309 255,-755 Q 3634,634 3220,271 2806,-91 2034,-91 1263,-91 848,271 434,634 434,1313 q 0,446 256,755 257,310 713,416 z m -231,997 q 0,-362 226,-565 227,-203 636,-203 407,0 636,203 230,203 230,565 0,363 -230,566 -229,203 -636,203 -409,0 -636,-203 -226,-203 -226,-566 z"
       transform="scale(0.015625)" />
    <path
       id="DejaVuSans-50-0"
       d="M 1259,4147 V 2394 h 794 q 441,0 681,228 241,228 241,650 0,419 -241,647 -240,228 -681,228 z m -631,519 h 1425 q 785,0 1186,-355 402,-355 402,-1039 0,-691 -402,-1044 -401,-353 -1186,-353 H 1259 V 0 H 628 Z"
       transform="scale(0.015625)" />
    <path
       id="DejaVuSans-65-3"
       d="M 3597,1894 V 1613 H 953 q 38,-594 358,-905 320,-311 892,-311 331,0 642,81 311,81 618,244 V 178 Q 3153,47 2828,-22 2503,-91 2169,-91 1331,-91 842,396 353,884 353,1716 q 0,859 464,1363 464,505 1252,505 706,0 1117,-455 411,-454 411,-1235 z m -575,169 q -6,471 -264,752 -258,282 -683,282 -481,0 -770,-272 -289,-272 -333,-766 z"
       transform="scale(0.015625)" />
    <path
       id="DejaVuSans-61-9"
       d="m 2194,1759 q -697,0 -966,-159 -269,-159 -269,-544 0,-306 202,-486 202,-179 548,-179 479,0 768,339 289,339 289,901 v 128 z m 1147,238 V 0 H 2766 V 531 Q 2569,213 2275,61 1981,-91 1556,-91 q -537,0 -855,302 -317,302 -317,808 0,590 395,890 396,300 1180,300 h 807 v 57 q 0,397 -261,614 -261,217 -733,217 -300,0 -585,-72 -284,-72 -546,-216 v 532 q 315,122 612,182 297,61 578,61 760,0 1135,-394 375,-393 375,-1193 z"
       transform="scale(0.015625)" />
    <path
       id="DejaVuSans-72-9"
       d="m 2631,2963 q -97,56 -211,82 -114,27 -251,27 -488,0 -749,-317 -261,-317 -261,-911 V 0 H 581 v 3500 h 578 v -544 q 182,319 472,473 291,155 707,155 59,0 131,-8 72,-7 159,-23 z"
       transform="scale(0.015625)" />
    <path
       id="DejaVuSans-73-9"
       d="m 2834,3397 v -544 q -243,125 -506,187 -262,63 -544,63 -428,0 -642,-131 -214,-131 -214,-394 0,-200 153,-314 153,-114 616,-217 l 197,-44 q 612,-131 870,-370 258,-239 258,-667 0,-488 -386,-773 Q 2250,-91 1575,-91 1294,-91 989,-36 684,19 347,128 v 594 q 319,-166 628,-249 309,-82 613,-82 406,0 624,139 219,139 219,392 0,234 -158,359 -157,125 -692,241 l -200,47 q -534,112 -772,345 -237,233 -237,639 0,494 350,762 350,269 994,269 318,0 599,-47 282,-46 519,-140 z"
       transform="scale(0.015625)" />
    <path
       id="DejaVuSans-6f-1"
       d="m 1959,3097 q -462,0 -731,-361 -269,-361 -269,-989 0,-628 267,-989 268,-361 733,-361 460,0 728,362 269,363 269,988 0,622 -269,986 -268,364 -728,364 z m 0,487 q 750,0 1178,-488 429,-487 429,-1349 Q 3566,888 3137,398 2709,-91 1959,-91 1206,-91 779,398 353,888 353,1747 q 0,862 426,1349 427,488 1180,488 z"
       transform="scale(0.015625)" />
    <path
       id="DejaVuSans-6e-7"
       d="M 3513,2113 V 0 h -575 v 2094 q 0,497 -194,743 -194,247 -581,247 -466,0 -735,-297 -269,-296 -269,-809 V 0 H 581 v 3500 h 578 v -544 q 207,316 486,472 280,156 646,156 603,0 912,-373 310,-373 310,-1098 z"
       transform="scale(0.015625)" />
    <path
       id="DejaVuSans-20-2"
       transform="scale(0.015625)"
       d="" />
    <path
       id="m290c69ca74"
       d="M 0,7.071068 C 1.875269,7.071068 3.673985,6.326016 5,5 6.326016,3.673985 7.071068,1.875269 7.071068,0 7.071068,-1.875269 6.326016,-3.673985 5,-5 3.673985,-6.326016 1.875269,-7.071068 0,-7.071068 c -1.875269,0 -3.673985,0.745052 -5,2.071068 -1.326016,1.326015 -2.071068,3.124731 -2.071068,5 0,1.875269 0.745052,3.673985 2.071068,5 1.326015,1.326016 3.124731,2.071068 5,2.071068 z"
       style="stroke:#4c72b0;stroke-width:0.5;stroke-opacity:0.6" />
    <path
       id="DejaVuSans-49-3"
       d="m 628,4666 h 631 V 0 H 628 Z"
       transform="scale(0.015625)" />
    <path
       id="DejaVuSans-74-8"
       d="M 1172,4494 V 3500 H 2356 V 3053 H 1172 V 1153 q 0,-428 117,-550 117,-122 477,-122 h 590 V 0 H 1766 Q 1100,0 847,248 594,497 594,1153 V 3053 H 172 v 447 h 422 v 994 z"
       transform="scale(0.015625)" />
    <path
       id="DejaVuSans-2d-4"
       d="M 313,2009 H 1997 V 1497 H 313 Z"
       transform="scale(0.015625)" />
    <path
       id="DejaVuSans-70-8"
       d="M 1159,525 V -1331 H 581 v 4831 h 578 v -531 q 182,312 458,463 277,152 661,152 638,0 1036,-506 399,-506 399,-1331 0,-825 -399,-1332 -398,-506 -1036,-506 -384,0 -661,152 -276,152 -458,464 z m 1957,1222 q 0,634 -261,995 -261,361 -717,361 -457,0 -718,-361 -261,-361 -261,-995 0,-634 261,-995 261,-361 718,-361 456,0 717,361 261,361 261,995 z"
       transform="scale(0.015625)" />
    <path
       id="DejaVuSans-6c-0"
       d="m 603,4863 h 575 V 0 H 603 Z"
       transform="scale(0.015625)" />
    <path
       id="DejaVuSans-69-4"
       d="m 603,3500 h 575 V 0 H 603 Z m 0,1363 h 575 V 4134 H 603 Z"
       transform="scale(0.015625)" />
    <path
       id="DejaVuSans-63-6"
       d="m 3122,3366 v -538 q -244,135 -489,202 -245,67 -495,67 -560,0 -870,-355 -309,-354 -309,-995 0,-641 309,-996 310,-354 870,-354 250,0 495,67 245,67 489,202 V 134 Q 2881,22 2623,-34 2366,-91 2075,-91 1284,-91 818,406 353,903 353,1747 q 0,856 470,1346 471,491 1290,491 265,0 518,-55 253,-54 491,-163 z"
       transform="scale(0.015625)" />
    <path
       id="DejaVuSans-66-0"
       d="m 2375,4863 v -479 h -550 q -309,0 -430,-125 -120,-125 -120,-450 v -309 h 947 V 3053 H 1275 V 0 H 697 V 3053 H 147 v 447 h 550 v 244 q 0,584 272,851 272,268 862,268 z"
       transform="scale(0.015625)" />
    <path
       id="DejaVuSans-76-3"
       d="M 191,3500 H 800 L 1894,563 2988,3500 h 609 L 2284,0 h -781 z"
       transform="scale(0.015625)" />
    <clipPath
       id="pd9a316ed42">
      <rect
         x="138.87"
         y="69.935997"
         width="182.25"
         height="323.18399"
         id="rect79-8" />
    </clipPath>
    <clipPath
       id="clipPath1-4">
      <rect
         x="138.87"
         y="69.935997"
         width="182.25"
         height="323.18399"
         id="rect1-0" />
    </clipPath>
    <clipPath
       id="clipPath2-0">
      <rect
         x="138.87"
         y="69.935997"
         width="182.25"
         height="323.18399"
         id="rect2-9" />
    </clipPath>
    <clipPath
       id="clipPath3-37">
      <rect
         x="138.87"
         y="69.935997"
         width="182.25"
         height="323.18399"
         id="rect3-5" />
    </clipPath>
    <clipPath
       id="clipPath4-7">
      <rect
         x="138.87"
         y="69.935997"
         width="182.25"
         height="323.18399"
         id="rect4-2" />
    </clipPath>
    <clipPath
       id="clipPath5-9">
      <rect
         x="138.87"
         y="69.935997"
         width="182.25"
         height="323.18399"
         id="rect5-7" />
    </clipPath>
    <clipPath
       id="clipPath6-5">
      <rect
         x="138.87"
         y="69.935997"
         width="182.25"
         height="323.18399"
         id="rect6-6" />
    </clipPath>
    <path
       id="DejaVuSans-30-5"
       d="m 2034,4250 q -487,0 -733,-480 -245,-479 -245,-1442 0,-959 245,-1439 246,-480 733,-480 491,0 736,480 246,480 246,1439 0,963 -246,1442 -245,480 -736,480 z m 0,500 q 785,0 1199,-621 414,-620 414,-1801 0,-1178 -414,-1799 -414,-620 -1199,-620 -784,0 -1198,620 -414,621 -414,1799 0,1181 414,1801 414,621 1198,621 z"
       transform="scale(0.015625)" />
    <path
       id="DejaVuSans-2e-4"
       d="m 684,794 h 660 V 0 H 684 Z"
       transform="scale(0.015625)" />
    <path
       id="DejaVuSans-39-21"
       d="m 703,97 v 575 q 238,-113 481,-172 244,-59 479,-59 625,0 954,420 330,420 377,1277 -181,-269 -460,-413 -278,-144 -615,-144 -700,0 -1108,423 -408,424 -408,1159 0,718 425,1152 425,435 1131,435 810,0 1236,-621 427,-620 427,-1801 Q 3622,1225 3098,567 2575,-91 1691,-91 1453,-91 1209,-44 966,3 703,97 Z m 1256,1978 q 425,0 673,290 249,291 249,798 0,503 -249,795 -248,292 -673,292 -425,0 -673,-292 -248,-292 -248,-795 0,-507 248,-798 248,-290 673,-290 z"
       transform="scale(0.015625)" />
    <path
       id="DejaVuSans-36-9"
       d="m 2113,2584 q -425,0 -674,-291 -248,-290 -248,-796 0,-503 248,-796 249,-292 674,-292 425,0 673,292 248,293 248,796 0,506 -248,796 -248,291 -673,291 z m 1253,1979 v -575 q -238,112 -480,171 -242,60 -480,60 -625,0 -955,-422 -329,-422 -376,-1275 184,272 462,417 279,145 613,145 703,0 1111,-427 408,-426 408,-1160 0,-719 -425,-1154 -425,-434 -1131,-434 -810,0 -1238,620 -428,621 -428,1799 0,1106 525,1764 525,658 1409,658 238,0 480,-47 242,-47 505,-140 z"
       transform="scale(0.015625)" />
    <path
       id="DejaVuSans-38-2"
       d="m 2034,2216 q -450,0 -708,-241 -257,-241 -257,-662 0,-422 257,-663 258,-241 708,-241 450,0 709,242 260,243 260,662 0,421 -258,662 -257,241 -711,241 z m -631,268 q -406,100 -633,378 -226,279 -226,679 0,559 398,884 399,325 1092,325 697,0 1094,-325 397,-325 397,-884 0,-400 -227,-679 -226,-278 -629,-378 456,-106 710,-416 255,-309 255,-755 Q 3634,634 3220,271 2806,-91 2034,-91 1263,-91 848,271 434,634 434,1313 q 0,446 256,755 257,310 713,416 z m -231,997 q 0,-362 226,-565 227,-203 636,-203 407,0 636,203 230,203 230,565 0,363 -230,566 -229,203 -636,203 -409,0 -636,-203 -226,-203 -226,-566 z"
       transform="scale(0.015625)" />
    <path
       id="DejaVuSans-50-4"
       d="M 1259,4147 V 2394 h 794 q 441,0 681,228 241,228 241,650 0,419 -241,647 -240,228 -681,228 z m -631,519 h 1425 q 785,0 1186,-355 402,-355 402,-1039 0,-691 -402,-1044 -401,-353 -1186,-353 H 1259 V 0 H 628 Z"
       transform="scale(0.015625)" />
    <path
       id="DejaVuSans-65-5"
       d="M 3597,1894 V 1613 H 953 q 38,-594 358,-905 320,-311 892,-311 331,0 642,81 311,81 618,244 V 178 Q 3153,47 2828,-22 2503,-91 2169,-91 1331,-91 842,396 353,884 353,1716 q 0,859 464,1363 464,505 1252,505 706,0 1117,-455 411,-454 411,-1235 z m -575,169 q -6,471 -264,752 -258,282 -683,282 -481,0 -770,-272 -289,-272 -333,-766 z"
       transform="scale(0.015625)" />
    <path
       id="DejaVuSans-61-8"
       d="m 2194,1759 q -697,0 -966,-159 -269,-159 -269,-544 0,-306 202,-486 202,-179 548,-179 479,0 768,339 289,339 289,901 v 128 z m 1147,238 V 0 H 2766 V 531 Q 2569,213 2275,61 1981,-91 1556,-91 q -537,0 -855,302 -317,302 -317,808 0,590 395,890 396,300 1180,300 h 807 v 57 q 0,397 -261,614 -261,217 -733,217 -300,0 -585,-72 -284,-72 -546,-216 v 532 q 315,122 612,182 297,61 578,61 760,0 1135,-394 375,-393 375,-1193 z"
       transform="scale(0.015625)" />
    <path
       id="DejaVuSans-72-6"
       d="m 2631,2963 q -97,56 -211,82 -114,27 -251,27 -488,0 -749,-317 -261,-317 -261,-911 V 0 H 581 v 3500 h 578 v -544 q 182,319 472,473 291,155 707,155 59,0 131,-8 72,-7 159,-23 z"
       transform="scale(0.015625)" />
    <path
       id="DejaVuSans-73-2"
       d="m 2834,3397 v -544 q -243,125 -506,187 -262,63 -544,63 -428,0 -642,-131 -214,-131 -214,-394 0,-200 153,-314 153,-114 616,-217 l 197,-44 q 612,-131 870,-370 258,-239 258,-667 0,-488 -386,-773 Q 2250,-91 1575,-91 1294,-91 989,-36 684,19 347,128 v 594 q 319,-166 628,-249 309,-82 613,-82 406,0 624,139 219,139 219,392 0,234 -158,359 -157,125 -692,241 l -200,47 q -534,112 -772,345 -237,233 -237,639 0,494 350,762 350,269 994,269 318,0 599,-47 282,-46 519,-140 z"
       transform="scale(0.015625)" />
    <path
       id="DejaVuSans-6f-5"
       d="m 1959,3097 q -462,0 -731,-361 -269,-361 -269,-989 0,-628 267,-989 268,-361 733,-361 460,0 728,362 269,363 269,988 0,622 -269,986 -268,364 -728,364 z m 0,487 q 750,0 1178,-488 429,-487 429,-1349 Q 3566,888 3137,398 2709,-91 1959,-91 1206,-91 779,398 353,888 353,1747 q 0,862 426,1349 427,488 1180,488 z"
       transform="scale(0.015625)" />
    <path
       id="DejaVuSans-6e-1"
       d="M 3513,2113 V 0 h -575 v 2094 q 0,497 -194,743 -194,247 -581,247 -466,0 -735,-297 -269,-296 -269,-809 V 0 H 581 v 3500 h 578 v -544 q 207,316 486,472 280,156 646,156 603,0 912,-373 310,-373 310,-1098 z"
       transform="scale(0.015625)" />
    <path
       id="DejaVuSans-20-3"
       transform="scale(0.015625)"
       d="" />
    <path
       id="ma543bc2611"
       d="M 0,3.535534 C 0.937635,3.535534 1.836992,3.163008 2.5,2.5 3.163008,1.836992 3.535534,0.937635 3.535534,0 3.535534,-0.937635 3.163008,-1.836992 2.5,-2.5 1.836992,-3.163008 0.937635,-3.535534 0,-3.535534 c -0.937635,0 -1.836992,0.372526 -2.5,1.035534 -0.663008,0.663008 -1.035534,1.562365 -1.035534,2.5 0,0.937635 0.372526,1.836992 1.035534,2.5 0.663008,0.663008 1.562365,1.035534 2.5,1.035534 z"
       style="stroke:#4c72b0;stroke-width:0.5;stroke-opacity:0.6" />
    <path
       id="DejaVuSans-49-6"
       d="m 628,4666 h 631 V 0 H 628 Z"
       transform="scale(0.015625)" />
    <path
       id="DejaVuSans-74-1"
       d="M 1172,4494 V 3500 H 2356 V 3053 H 1172 V 1153 q 0,-428 117,-550 117,-122 477,-122 h 590 V 0 H 1766 Q 1100,0 847,248 594,497 594,1153 V 3053 H 172 v 447 h 422 v 994 z"
       transform="scale(0.015625)" />
    <path
       id="DejaVuSans-2d-2"
       d="M 313,2009 H 1997 V 1497 H 313 Z"
       transform="scale(0.015625)" />
    <path
       id="DejaVuSans-70-0"
       d="M 1159,525 V -1331 H 581 v 4831 h 578 v -531 q 182,312 458,463 277,152 661,152 638,0 1036,-506 399,-506 399,-1331 0,-825 -399,-1332 -398,-506 -1036,-506 -384,0 -661,152 -276,152 -458,464 z m 1957,1222 q 0,634 -261,995 -261,361 -717,361 -457,0 -718,-361 -261,-361 -261,-995 0,-634 261,-995 261,-361 718,-361 456,0 717,361 261,361 261,995 z"
       transform="scale(0.015625)" />
    <path
       id="DejaVuSans-6c-4"
       d="m 603,4863 h 575 V 0 H 603 Z"
       transform="scale(0.015625)" />
    <path
       id="DejaVuSans-69-45"
       d="m 603,3500 h 575 V 0 H 603 Z m 0,1363 h 575 V 4134 H 603 Z"
       transform="scale(0.015625)" />
    <path
       id="DejaVuSans-63-9"
       d="m 3122,3366 v -538 q -244,135 -489,202 -245,67 -495,67 -560,0 -870,-355 -309,-354 -309,-995 0,-641 309,-996 310,-354 870,-354 250,0 495,67 245,67 489,202 V 134 Q 2881,22 2623,-34 2366,-91 2075,-91 1284,-91 818,406 353,903 353,1747 q 0,856 470,1346 471,491 1290,491 265,0 518,-55 253,-54 491,-163 z"
       transform="scale(0.015625)" />
    <path
       id="DejaVuSans-66-7"
       d="m 2375,4863 v -479 h -550 q -309,0 -430,-125 -120,-125 -120,-450 v -309 h 947 V 3053 H 1275 V 0 H 697 V 3053 H 147 v 447 h 550 v 244 q 0,584 272,851 272,268 862,268 z"
       transform="scale(0.015625)" />
    <path
       id="DejaVuSans-76-5"
       d="M 191,3500 H 800 L 1894,563 2988,3500 h 609 L 2284,0 h -781 z"
       transform="scale(0.015625)" />
    <clipPath
       id="peac0cd855e">
      <rect
         x="121.91"
         y="38.880001"
         width="199.21001"
         height="354.23999"
         id="rect33" />
    </clipPath>
    <clipPath
       id="clipPath1-2">
      <rect
         x="121.91"
         y="38.880001"
         width="199.21001"
         height="354.23999"
         id="rect1-4" />
    </clipPath>
    <clipPath
       id="clipPath2-8">
      <rect
         x="121.91"
         y="38.880001"
         width="199.21001"
         height="354.23999"
         id="rect2-3" />
    </clipPath>
    <clipPath
       id="clipPath3-9">
      <rect
         x="121.91"
         y="38.880001"
         width="199.21001"
         height="354.23999"
         id="rect3-0" />
    </clipPath>
    <clipPath
       id="clipPath4-5">
      <rect
         x="121.91"
         y="38.880001"
         width="199.21001"
         height="354.23999"
         id="rect4-22" />
    </clipPath>
    <clipPath
       id="clipPath5-7">
      <rect
         x="121.91"
         y="38.880001"
         width="199.21001"
         height="354.23999"
         id="rect5-37" />
    </clipPath>
    <clipPath
       id="clipPath6-90">
      <rect
         x="121.91"
         y="38.880001"
         width="199.21001"
         height="354.23999"
         id="rect6-2" />
    </clipPath>
    <path
       id="DejaVuSans-30-3"
       d="m 2034,4250 q -487,0 -733,-480 -245,-479 -245,-1442 0,-959 245,-1439 246,-480 733,-480 491,0 736,480 246,480 246,1439 0,963 -246,1442 -245,480 -736,480 z m 0,500 q 785,0 1199,-621 414,-620 414,-1801 0,-1178 -414,-1799 -414,-620 -1199,-620 -784,0 -1198,620 -414,621 -414,1799 0,1181 414,1801 414,621 1198,621 z"
       transform="scale(0.015625)" />
    <path
       id="DejaVuSans-2e-9"
       d="m 684,794 h 660 V 0 H 684 Z"
       transform="scale(0.015625)" />
    <path
       id="DejaVuSans-39-8"
       d="m 703,97 v 575 q 238,-113 481,-172 244,-59 479,-59 625,0 954,420 330,420 377,1277 -181,-269 -460,-413 -278,-144 -615,-144 -700,0 -1108,423 -408,424 -408,1159 0,718 425,1152 425,435 1131,435 810,0 1236,-621 427,-620 427,-1801 Q 3622,1225 3098,567 2575,-91 1691,-91 1453,-91 1209,-44 966,3 703,97 Z m 1256,1978 q 425,0 673,290 249,291 249,798 0,503 -249,795 -248,292 -673,292 -425,0 -673,-292 -248,-292 -248,-795 0,-507 248,-798 248,-290 673,-290 z"
       transform="scale(0.015625)" />
    <path
       id="DejaVuSans-36-6"
       d="m 2113,2584 q -425,0 -674,-291 -248,-290 -248,-796 0,-503 248,-796 249,-292 674,-292 425,0 673,292 248,293 248,796 0,506 -248,796 -248,291 -673,291 z m 1253,1979 v -575 q -238,112 -480,171 -242,60 -480,60 -625,0 -955,-422 -329,-422 -376,-1275 184,272 462,417 279,145 613,145 703,0 1111,-427 408,-426 408,-1160 0,-719 -425,-1154 -425,-434 -1131,-434 -810,0 -1238,620 -428,621 -428,1799 0,1106 525,1764 525,658 1409,658 238,0 480,-47 242,-47 505,-140 z"
       transform="scale(0.015625)" />
    <path
       id="DejaVuSans-37-5"
       d="M 525,4666 H 3525 V 4397 L 1831,0 H 1172 L 2766,4134 H 525 Z"
       transform="scale(0.015625)" />
    <path
       id="DejaVuSans-38-76"
       d="m 2034,2216 q -450,0 -708,-241 -257,-241 -257,-662 0,-422 257,-663 258,-241 708,-241 450,0 709,242 260,243 260,662 0,421 -258,662 -257,241 -711,241 z m -631,268 q -406,100 -633,378 -226,279 -226,679 0,559 398,884 399,325 1092,325 697,0 1094,-325 397,-325 397,-884 0,-400 -227,-679 -226,-278 -629,-378 456,-106 710,-416 255,-309 255,-755 Q 3634,634 3220,271 2806,-91 2034,-91 1263,-91 848,271 434,634 434,1313 q 0,446 256,755 257,310 713,416 z m -231,997 q 0,-362 226,-565 227,-203 636,-203 407,0 636,203 230,203 230,565 0,363 -230,566 -229,203 -636,203 -409,0 -636,-203 -226,-203 -226,-566 z"
       transform="scale(0.015625)" />
    <path
       id="m34291f9113"
       d="M 0,3.535534 C 0.937635,3.535534 1.836992,3.163008 2.5,2.5 3.163008,1.836992 3.535534,0.937635 3.535534,0 3.535534,-0.937635 3.163008,-1.836992 2.5,-2.5 1.836992,-3.163008 0.937635,-3.535534 0,-3.535534 c -0.937635,0 -1.836992,0.372526 -2.5,1.035534 -0.663008,0.663008 -1.035534,1.562365 -1.035534,2.5 0,0.937635 0.372526,1.836992 1.035534,2.5 0.663008,0.663008 1.562365,1.035534 2.5,1.035534 z"
       style="stroke:#4c72b0;stroke-width:0.5;stroke-opacity:0.6" />
  </defs>
  <g
     id="figure_1">
    <g
       id="axes_1">
      <g
         id="patch_2" />
      <g
         id="matplotlib.axis_1"
         transform="translate(-4.4375535)" />
      <g
         id="text_19">
        <!-- Distribution of Variant Effect $R^2$ -->
        <!-- from Bootstrapped Replicate Splits -->
      </g>
      <g
         id="g37"
         transform="translate(-716.41622,9.0521905)">
        <g
           id="figure_1-7"
           style="stroke-linecap:butt;stroke-linejoin:round"
           transform="translate(754.5758,22.000071)">
          <path
             d="M 84.469218,295.48668 H 242.85851 V 50.193642 H 84.469218 Z"
             style="fill:#ffffff;stroke-width:0.677485;stroke-linecap:butt;stroke-linejoin:round"
             id="path2" />
          <g
             id="matplotlib.axis_1-2"
             style="stroke-linecap:butt;stroke-linejoin:round" />
          <g
             id="line2d_13"
             style="stroke-linecap:butt;stroke-linejoin:round" />
          <g
             id="figure_1-70"
             style="stroke-linecap:butt;stroke-linejoin:round"
             transform="translate(271.62808,-37.592276)">
            <g
               id="axes_1-3"
               style="stroke-linecap:butt;stroke-linejoin:round">
              <g
                 id="matplotlib.axis_1-6"
                 style="stroke-linecap:butt;stroke-linejoin:round" />
              <g
                 id="line2d_5-4"
                 style="stroke-linecap:butt;stroke-linejoin:round" />
              <g
                 id="figure_1-3"
                 style="stroke-linecap:butt;stroke-linejoin:round"
                 transform="matrix(0.6449111,0,0,0.6449111,111.90507,61.914805)">
                <g
                   id="patch_1"
                   style="stroke-linecap:butt;stroke-linejoin:round">
                  <path
                     d="M 0,432 H 360 V 0 H 0 Z"
                     style="fill:#ffffff;stroke-linecap:butt;stroke-linejoin:round"
                     id="path1" />
                </g>
                <text
                   xml:space="preserve"
                   style="font-weight:bold;font-size:15.506px;line-height:49.6192px;font-family:Calibri;-inkscape-font-specification:'Calibri Bold';text-align:start;letter-spacing:0px;word-spacing:0px;writing-mode:lr-tb;direction:ltr;text-anchor:start;opacity:0.5;fill:#ff0000;stroke-width:0.452628;stroke-linecap:butt;stroke-linejoin:round;stroke-miterlimit:8.9;paint-order:stroke fill markers"
                   x="53.999004"
                   y="245.44066"
                   id="text33-4-8-1-0-0-7-5-2-2-7"><tspan
                     sodipodi:role="line"
                     id="tspan33-1-2-5-0-8-5-4-2-7-0"
                     style="font-size:15.506px;line-height:49.6192px;fill:#000000;fill-opacity:1;stroke-width:0.452628"
                     x="53.999004"
                     y="245.44066">0.9700</tspan></text>
                <g
                   id="axes_1-9"
                   style="stroke-linecap:butt;stroke-linejoin:round">
                  <g
                     id="patch_2-9"
                     style="stroke-linecap:butt;stroke-linejoin:round">
                    <path
                       d="M 121.91,393.12 H 321.12 V 38.88 H 121.91 Z"
                       style="fill:#ffffff;stroke-linecap:butt;stroke-linejoin:round"
                       id="path2-7" />
                  </g>
                  <g
                     id="matplotlib.axis_1-0"
                     style="stroke-linecap:butt;stroke-linejoin:round" />
                  <g
                     id="matplotlib.axis_2"
                     style="stroke-linecap:butt;stroke-linejoin:round"
                     transform="translate(0.12119703)">
                    <text
                       xml:space="preserve"
                       style="font-weight:bold;font-size:15.506px;line-height:49.6192px;font-family:Calibri;-inkscape-font-specification:'Calibri Bold';text-align:start;letter-spacing:0px;word-spacing:0px;writing-mode:lr-tb;direction:ltr;text-anchor:start;opacity:0.5;fill:#ff0000;stroke-width:0.452628;stroke-linecap:butt;stroke-linejoin:round;stroke-miterlimit:8.9;paint-order:stroke fill markers"
                       x="53.877827"
                       y="64.732117"
                       id="text33-4-8-1-0-0-7-5-2-2"><tspan
                         sodipodi:role="line"
                         id="tspan33-1-2-5-0-8-5-4-2-7"
                         style="font-size:15.506px;line-height:49.6192px;fill:#000000;fill-opacity:1;stroke-width:0.452628"
                         x="53.877827"
                         y="64.732117">0.9900</tspan></text>
                  </g>
                  <g
                     id="patch_3"
                     style="stroke-linecap:butt;stroke-linejoin:round">
                    <path
                       d="m 181.673,256.44041 h 79.684 V 104.69348 h -79.684 z"
                       clip-path="url(#peac0cd855e)"
                       style="opacity:0.6;fill:#4c72b0;stroke-linecap:butt;stroke-linejoin:round"
                       id="path17" />
                  </g>
                  <g
                     id="line2d_1"
                     style="stroke-linecap:butt;stroke-linejoin:round">
                    <path
                       d="M 221.515,256.44041 V 377.01818"
                       clip-path="url(#peac0cd855e)"
                       style="fill:none;stroke:#2e4a7a;stroke-width:1.5;stroke-linecap:round;stroke-linejoin:round"
                       id="path18" />
                  </g>
                  <g
                     id="line2d_2"
                     style="stroke-linecap:butt;stroke-linejoin:round">
                    <path
                       d="M 221.515,104.69348 V 54.981818"
                       clip-path="url(#peac0cd855e)"
                       style="fill:none;stroke:#2e4a7a;stroke-width:1.5;stroke-linecap:round;stroke-linejoin:round"
                       id="path19" />
                  </g>
                  <g
                     id="line2d_3"
                     style="stroke-linecap:butt;stroke-linejoin:round">
                    <path
                       d="m 201.594,377.01818 h 39.842"
                       clip-path="url(#peac0cd855e)"
                       style="fill:none;stroke:#2e4a7a;stroke-width:1.5;stroke-linecap:round;stroke-linejoin:round"
                       id="path20" />
                  </g>
                  <g
                     id="line2d_4"
                     style="stroke-linecap:butt;stroke-linejoin:round">
                    <path
                       d="m 201.594,54.981818 h 39.842"
                       clip-path="url(#peac0cd855e)"
                       style="fill:none;stroke:#2e4a7a;stroke-width:1.5;stroke-linecap:round;stroke-linejoin:round"
                       id="path21" />
                  </g>
                  <g
                     id="line2d_5"
                     style="stroke-linecap:butt;stroke-linejoin:round" />
                  <g
                     id="line2d_6"
                     style="stroke-linecap:butt;stroke-linejoin:round">
                    <path
                       d="m 181.673,173.27627 h 79.684"
                       clip-path="url(#peac0cd855e)"
                       style="fill:none;stroke:#2e4a7a;stroke-width:2.5;stroke-linecap:butt;stroke-linejoin:round"
                       id="path22" />
                  </g>
                  <g
                     id="patch_4"
                     style="stroke-linecap:butt;stroke-linejoin:round">
                    <path
                       d="M 121.91,393.12 V 38.88"
                       style="fill:none;stroke:#262626;stroke-width:1.25;stroke-linecap:square;stroke-linejoin:miter"
                       id="path23" />
                  </g>
                  <g
                     id="patch_5"
                     style="stroke-linecap:butt;stroke-linejoin:round">
                    <path
                       d="M 121.91,393.12 H 321.12"
                       style="fill:none;stroke:#262626;stroke-width:1.25;stroke-linecap:square;stroke-linejoin:miter"
                       id="path24" />
                  </g>
                  <g
                     id="PathCollection_1"
                     style="stroke-linecap:butt;stroke-linejoin:round">
                    <defs
                       id="defs24">
                      <path
                         id="path9"
                         d="M 0,3.535534 C 0.937635,3.535534 1.836992,3.163008 2.5,2.5 3.163008,1.836992 3.535534,0.937635 3.535534,0 3.535534,-0.937635 3.163008,-1.836992 2.5,-2.5 1.836992,-3.163008 0.937635,-3.535534 0,-3.535534 c -0.937635,0 -1.836992,0.372526 -2.5,1.035534 -0.663008,0.663008 -1.035534,1.562365 -1.035534,2.5 0,0.937635 0.372526,1.836992 1.035534,2.5 0.663008,0.663008 1.562365,1.035534 2.5,1.035534 z"
                         style="stroke:#4c72b0;stroke-width:0.5;stroke-opacity:0.6" />
                    </defs>
                    <g
                       clip-path="url(#peac0cd855e)"
                       id="g33"
                       style="stroke-linecap:butt;stroke-linejoin:round">
                      <use
                         xlink:href="#m34291f9113"
                         x="216.51643"
                         y="194.19312"
                         style="fill:#4c72b0;fill-opacity:0.6;stroke:#4c72b0;stroke-width:0.5;stroke-linecap:butt;stroke-linejoin:round;stroke-opacity:0.6"
                         id="use24" />
                      <use
                         xlink:href="#m34291f9113"
                         x="239.47237"
                         y="98.550858"
                         style="fill:#4c72b0;fill-opacity:0.6;stroke:#4c72b0;stroke-width:0.5;stroke-linecap:butt;stroke-linejoin:round;stroke-opacity:0.6"
                         id="use25" />
                      <use
                         xlink:href="#m34291f9113"
                         x="230.7581"
                         y="377.01819"
                         style="fill:#4c72b0;fill-opacity:0.6;stroke:#4c72b0;stroke-width:0.5;stroke-linecap:butt;stroke-linejoin:round;stroke-opacity:0.6"
                         id="use26" />
                      <use
                         xlink:href="#m34291f9113"
                         x="225.44576"
                         y="54.981819"
                         style="fill:#4c72b0;fill-opacity:0.6;stroke:#4c72b0;stroke-width:0.5;stroke-linecap:butt;stroke-linejoin:round;stroke-opacity:0.6"
                         id="use27" />
                      <use
                         xlink:href="#m34291f9113"
                         x="207.81009"
                         y="172.71771"
                         style="fill:#4c72b0;fill-opacity:0.6;stroke:#4c72b0;stroke-width:0.5;stroke-linecap:butt;stroke-linejoin:round;stroke-opacity:0.6"
                         id="use28" />
                      <use
                         xlink:href="#m34291f9113"
                         x="207.80913"
                         y="173.83482"
                         style="fill:#4c72b0;fill-opacity:0.6;stroke:#4c72b0;stroke-width:0.5;stroke-linecap:butt;stroke-linejoin:round;stroke-opacity:0.6"
                         id="use29" />
                      <use
                         xlink:href="#m34291f9113"
                         x="203.90817"
                         y="277.18951"
                         style="fill:#4c72b0;fill-opacity:0.6;stroke:#4c72b0;stroke-width:0.5;stroke-linecap:butt;stroke-linejoin:round;stroke-opacity:0.6"
                         id="use30" />
                      <use
                         xlink:href="#m34291f9113"
                         x="236.10419"
                         y="123.12136"
                         style="fill:#4c72b0;fill-opacity:0.6;stroke:#4c72b0;stroke-width:0.5;stroke-linecap:butt;stroke-linejoin:round;stroke-opacity:0.6"
                         id="use31" />
                      <use
                         xlink:href="#m34291f9113"
                         x="225.54362"
                         y="299.31686"
                         style="fill:#4c72b0;fill-opacity:0.6;stroke:#4c72b0;stroke-width:0.5;stroke-linecap:butt;stroke-linejoin:round;stroke-opacity:0.6"
                         id="use32" />
                      <use
                         xlink:href="#m34291f9113"
                         x="229.80502"
                         y="77.185272"
                         style="fill:#4c72b0;fill-opacity:0.6;stroke:#4c72b0;stroke-width:0.5;stroke-linecap:butt;stroke-linejoin:round;stroke-opacity:0.6"
                         id="use33" />
                    </g>
                  </g>
                </g>
              </g>
            </g>
          </g>
          <text
             xml:space="preserve"
             style="font-weight:bold;font-size:10px;line-height:32px;font-family:Calibri;-inkscape-font-specification:'Calibri Bold';text-align:start;letter-spacing:0px;word-spacing:0px;writing-mode:lr-tb;direction:ltr;text-anchor:start;opacity:0.5;fill:#ff0000;stroke-width:0.291905;stroke-linecap:butt;stroke-linejoin:round;stroke-miterlimit:8.9;paint-order:stroke fill markers"
             x="418.3577"
             y="128.83682"
             id="text33-4-8-1-0-0-7-5"><tspan
               sodipodi:role="line"
               id="tspan33-1-2-5-0-8-5-4"
               style="font-size:10px;line-height:32px;fill:#000000;fill-opacity:1;stroke-width:0.291905"
               x="418.3577"
               y="128.83682">0.9800</tspan></text>
          <text
             xml:space="preserve"
             style="font-weight:bold;font-size:10px;line-height:32px;font-family:Calibri;-inkscape-font-specification:'Calibri Bold';text-align:start;letter-spacing:0px;word-spacing:0px;writing-mode:lr-tb;direction:ltr;text-anchor:start;opacity:0.5;fill:#ff0000;stroke-width:0.291905;stroke-linecap:butt;stroke-linejoin:round;stroke-miterlimit:8.9;paint-order:stroke fill markers"
             x="418.3577"
             y="245.16051"
             id="text33-4-8-1-0-0-7-5-2"><tspan
               sodipodi:role="line"
               id="tspan33-1-2-5-0-8-5-4-2"
               style="font-size:10px;line-height:32px;fill:#000000;fill-opacity:1;stroke-width:0.291905"
               x="418.3577"
               y="245.16051">0.9600</tspan></text>
        </g>
        <text
           xml:space="preserve"
           style="font-style:italic;font-variant:normal;font-weight:bold;font-stretch:normal;font-size:12px;line-height:2.1px;font-family:Calibri;-inkscape-font-specification:'Calibri Bold Italic';text-align:center;letter-spacing:-0.015px;word-spacing:0px;writing-mode:lr-tb;direction:ltr;text-anchor:middle;fill:#000000;stroke:none;stroke-width:0.776693;stroke-linecap:butt;stroke-linejoin:round;stroke-miterlimit:16.7;paint-order:stroke fill markers"
           x="-185.72008"
           y="1157.7036"
           id="text6-7"
           transform="rotate(-90)"><tspan
             sodipodi:role="line"
             id="tspan6-6"
             style="font-style:normal;font-variant:normal;font-weight:bold;font-stretch:normal;font-size:12px;line-height:2.1px;font-family:Calibri;-inkscape-font-specification:'Calibri Bold';stroke-width:0.776693"
             x="-185.72758"
             y="1157.7036">Bootstrapped interreplicate correlation (Pearson's <tspan
   style="font-style:italic;font-variant:normal;font-weight:bold;font-stretch:normal;font-size:12px;line-height:2.1px;font-family:Calibri;-inkscape-font-specification:'Calibri Bold Italic'"
   id="tspan7-2">r</tspan>)</tspan></text>
      </g>
    </g>
  </g>
  <defs
     id="defs252">
    <clipPath
       id="paadb079758">
      <rect
         x="76.98"
         y="61.44"
         width="589.737902"
         height="300.636"
         id="rect252" />
    </clipPath>
  </defs>
</svg>
