<?xml version="1.0" encoding="utf-8" standalone="no"?>
<!DOCTYPE svg PUBLIC "-//W3C//DTD SVG 1.1//EN"
  "http://www.w3.org/Graphics/SVG/1.1/DTD/svg11.dtd">
<svg xmlns:xlink="http://www.w3.org/1999/xlink" width="1296pt" height="432pt" viewBox="0 0 1296 432" xmlns="http://www.w3.org/2000/svg" version="1.1">
 <metadata>
  <rdf:RDF xmlns:dc="http://purl.org/dc/elements/1.1/" xmlns:cc="http://creativecommons.org/ns#" xmlns:rdf="http://www.w3.org/1999/02/22-rdf-syntax-ns#">
   <cc:Work>
    <dc:type rdf:resource="http://purl.org/dc/dcmitype/StillImage"/>
    <dc:date>2025-07-17T16:56:27.262408</dc:date>
    <dc:format>image/svg+xml</dc:format>
    <dc:creator>
     <cc:Agent>
      <dc:title>Matplotlib v3.9.0, https://matplotlib.org/</dc:title>
     </cc:Agent>
    </dc:creator>
   </cc:Work>
  </rdf:RDF>
 </metadata>
 <defs>
  <style type="text/css">*{stroke-linejoin: round; stroke-linecap: butt}</style>
 </defs>
 <g id="figure_1">
  <g id="patch_1">
   <path d="M 0 432 
L 1296 432 
L 1296 0 
L 0 0 
z
" style="fill: #ffffff"/>
  </g>
  <g id="axes_1">
   <g id="patch_2">
    <path d="M 135.72 312.66 
L 402.932098 312.66 
L 402.932098 38.88 
L 135.72 38.88 
z
" style="fill: #ffffff"/>
   </g>
   <g id="matplotlib.axis_1">
    <g id="xtick_1">
     <g id="line2d_1">
      <path d="M 183.042331 312.66 
L 183.042331 38.88 
" clip-path="url(#p9db1d09367)" style="fill: none; stroke-dasharray: 1,1.65; stroke-dashoffset: 0; stroke: #cccccc; stroke-opacity: 0.3"/>
     </g>
     <g id="text_1">
      <!-- −2.5 -->
      <g style="fill: #262626" transform="translate(142.975691 347.234844) scale(0.33 -0.33)">
       <defs>
        <path id="DejaVuSans-2212" d="M 678 2272 
L 4684 2272 
L 4684 1741 
L 678 1741 
L 678 2272 
z
" transform="scale(0.015625)"/>
        <path id="DejaVuSans-32" d="M 1228 531 
L 3431 531 
L 3431 0 
L 469 0 
L 469 531 
Q 828 903 1448 1529 
Q 2069 2156 2228 2338 
Q 2531 2678 2651 2914 
Q 2772 3150 2772 3378 
Q 2772 3750 2511 3984 
Q 2250 4219 1831 4219 
Q 1534 4219 1204 4116 
Q 875 4013 500 3803 
L 500 4441 
Q 881 4594 1212 4672 
Q 1544 4750 1819 4750 
Q 2544 4750 2975 4387 
Q 3406 4025 3406 3419 
Q 3406 3131 3298 2873 
Q 3191 2616 2906 2266 
Q 2828 2175 2409 1742 
Q 1991 1309 1228 531 
z
" transform="scale(0.015625)"/>
        <path id="DejaVuSans-2e" d="M 684 794 
L 1344 794 
L 1344 0 
L 684 0 
L 684 794 
z
" transform="scale(0.015625)"/>
        <path id="DejaVuSans-35" d="M 691 4666 
L 3169 4666 
L 3169 4134 
L 1269 4134 
L 1269 2991 
Q 1406 3038 1543 3061 
Q 1681 3084 1819 3084 
Q 2600 3084 3056 2656 
Q 3513 2228 3513 1497 
Q 3513 744 3044 326 
Q 2575 -91 1722 -91 
Q 1428 -91 1123 -41 
Q 819 9 494 109 
L 494 744 
Q 775 591 1075 516 
Q 1375 441 1709 441 
Q 2250 441 2565 725 
Q 2881 1009 2881 1497 
Q 2881 1984 2565 2268 
Q 2250 2553 1709 2553 
Q 1456 2553 1204 2497 
Q 953 2441 691 2322 
L 691 4666 
z
" transform="scale(0.015625)"/>
       </defs>
       <use xlink:href="#DejaVuSans-2212"/>
       <use xlink:href="#DejaVuSans-32" x="83.789062"/>
       <use xlink:href="#DejaVuSans-2e" x="147.412109"/>
       <use xlink:href="#DejaVuSans-35" x="179.199219"/>
      </g>
     </g>
    </g>
    <g id="xtick_2">
     <g id="line2d_2">
      <path d="M 269.440093 312.66 
L 269.440093 38.88 
" clip-path="url(#p9db1d09367)" style="fill: none; stroke-dasharray: 1,1.65; stroke-dashoffset: 0; stroke: #cccccc; stroke-opacity: 0.3"/>
     </g>
     <g id="text_2">
      <!-- 0.0 -->
      <g style="fill: #262626" transform="translate(243.199936 347.234844) scale(0.33 -0.33)">
       <defs>
        <path id="DejaVuSans-30" d="M 2034 4250 
Q 1547 4250 1301 3770 
Q 1056 3291 1056 2328 
Q 1056 1369 1301 889 
Q 1547 409 2034 409 
Q 2525 409 2770 889 
Q 3016 1369 3016 2328 
Q 3016 3291 2770 3770 
Q 2525 4250 2034 4250 
z
M 2034 4750 
Q 2819 4750 3233 4129 
Q 3647 3509 3647 2328 
Q 3647 1150 3233 529 
Q 2819 -91 2034 -91 
Q 1250 -91 836 529 
Q 422 1150 422 2328 
Q 422 3509 836 4129 
Q 1250 4750 2034 4750 
z
" transform="scale(0.015625)"/>
       </defs>
       <use xlink:href="#DejaVuSans-30"/>
       <use xlink:href="#DejaVuSans-2e" x="63.623047"/>
       <use xlink:href="#DejaVuSans-30" x="95.410156"/>
      </g>
     </g>
    </g>
    <g id="xtick_3">
     <g id="line2d_3">
      <path d="M 355.837854 312.66 
L 355.837854 38.88 
" clip-path="url(#p9db1d09367)" style="fill: none; stroke-dasharray: 1,1.65; stroke-dashoffset: 0; stroke: #cccccc; stroke-opacity: 0.3"/>
     </g>
     <g id="text_3">
      <!-- 2.5 -->
      <g style="fill: #262626" transform="translate(329.597698 347.234844) scale(0.33 -0.33)">
       <use xlink:href="#DejaVuSans-32"/>
       <use xlink:href="#DejaVuSans-2e" x="63.623047"/>
       <use xlink:href="#DejaVuSans-35" x="95.410156"/>
      </g>
     </g>
    </g>
    <g id="text_4">
     <!-- left -->
     <g style="fill: #262626" transform="translate(240.171674 385.452187) scale(0.36 -0.36)">
      <defs>
       <path id="DejaVuSans-6c" d="M 603 4863 
L 1178 4863 
L 1178 0 
L 603 0 
L 603 4863 
z
" transform="scale(0.015625)"/>
       <path id="DejaVuSans-65" d="M 3597 1894 
L 3597 1613 
L 953 1613 
Q 991 1019 1311 708 
Q 1631 397 2203 397 
Q 2534 397 2845 478 
Q 3156 559 3463 722 
L 3463 178 
Q 3153 47 2828 -22 
Q 2503 -91 2169 -91 
Q 1331 -91 842 396 
Q 353 884 353 1716 
Q 353 2575 817 3079 
Q 1281 3584 2069 3584 
Q 2775 3584 3186 3129 
Q 3597 2675 3597 1894 
z
M 3022 2063 
Q 3016 2534 2758 2815 
Q 2500 3097 2075 3097 
Q 1594 3097 1305 2825 
Q 1016 2553 972 2059 
L 3022 2063 
z
" transform="scale(0.015625)"/>
       <path id="DejaVuSans-66" d="M 2375 4863 
L 2375 4384 
L 1825 4384 
Q 1516 4384 1395 4259 
Q 1275 4134 1275 3809 
L 1275 3500 
L 2222 3500 
L 2222 3053 
L 1275 3053 
L 1275 0 
L 697 0 
L 697 3053 
L 147 3053 
L 147 3500 
L 697 3500 
L 697 3744 
Q 697 4328 969 4595 
Q 1241 4863 1831 4863 
L 2375 4863 
z
" transform="scale(0.015625)"/>
       <path id="DejaVuSans-74" d="M 1172 4494 
L 1172 3500 
L 2356 3500 
L 2356 3053 
L 1172 3053 
L 1172 1153 
Q 1172 725 1289 603 
Q 1406 481 1766 481 
L 2356 481 
L 2356 0 
L 1766 0 
Q 1100 0 847 248 
Q 594 497 594 1153 
L 594 3053 
L 172 3053 
L 172 3500 
L 594 3500 
L 594 4494 
L 1172 4494 
z
" transform="scale(0.015625)"/>
      </defs>
      <use xlink:href="#DejaVuSans-6c"/>
      <use xlink:href="#DejaVuSans-65" x="27.783203"/>
      <use xlink:href="#DejaVuSans-66" x="89.306641"/>
      <use xlink:href="#DejaVuSans-74" x="122.761719"/>
     </g>
    </g>
   </g>
   <g id="matplotlib.axis_2">
    <g id="ytick_1">
     <g id="line2d_4">
      <path d="M 135.72 308.519879 
L 402.932098 308.519879 
" clip-path="url(#p9db1d09367)" style="fill: none; stroke-dasharray: 1,1.65; stroke-dashoffset: 0; stroke: #cccccc; stroke-opacity: 0.3"/>
     </g>
     <g id="text_5">
      <!-- −4 -->
      <g style="fill: #262626" transform="translate(77.570781 321.057301) scale(0.33 -0.33)">
       <defs>
        <path id="DejaVuSans-34" d="M 2419 4116 
L 825 1625 
L 2419 1625 
L 2419 4116 
z
M 2253 4666 
L 3047 4666 
L 3047 1625 
L 3713 1625 
L 3713 1100 
L 3047 1100 
L 3047 0 
L 2419 0 
L 2419 1100 
L 313 1100 
L 313 1709 
L 2253 4666 
z
" transform="scale(0.015625)"/>
       </defs>
       <use xlink:href="#DejaVuSans-2212"/>
       <use xlink:href="#DejaVuSans-34" x="83.789062"/>
      </g>
     </g>
    </g>
    <g id="ytick_2">
     <g id="line2d_5">
      <path d="M 135.72 226.170609 
L 402.932098 226.170609 
" clip-path="url(#p9db1d09367)" style="fill: none; stroke-dasharray: 1,1.65; stroke-dashoffset: 0; stroke: #cccccc; stroke-opacity: 0.3"/>
     </g>
     <g id="text_6">
      <!-- −2 -->
      <g style="fill: #262626" transform="translate(77.570781 238.708031) scale(0.33 -0.33)">
       <use xlink:href="#DejaVuSans-2212"/>
       <use xlink:href="#DejaVuSans-32" x="83.789062"/>
      </g>
     </g>
    </g>
    <g id="ytick_3">
     <g id="line2d_6">
      <path d="M 135.72 143.821338 
L 402.932098 143.821338 
" clip-path="url(#p9db1d09367)" style="fill: none; stroke-dasharray: 1,1.65; stroke-dashoffset: 0; stroke: #cccccc; stroke-opacity: 0.3"/>
     </g>
     <g id="text_7">
      <!-- 0 -->
      <g style="fill: #262626" transform="translate(105.22375 156.35876) scale(0.33 -0.33)">
       <use xlink:href="#DejaVuSans-30"/>
      </g>
     </g>
    </g>
    <g id="ytick_4">
     <g id="line2d_7">
      <path d="M 135.72 61.472067 
L 402.932098 61.472067 
" clip-path="url(#p9db1d09367)" style="fill: none; stroke-dasharray: 1,1.65; stroke-dashoffset: 0; stroke: #cccccc; stroke-opacity: 0.3"/>
     </g>
     <g id="text_8">
      <!-- 2 -->
      <g style="fill: #262626" transform="translate(105.22375 74.009489) scale(0.33 -0.33)">
       <use xlink:href="#DejaVuSans-32"/>
      </g>
     </g>
    </g>
    <g id="text_9">
     <!-- right -->
     <g style="fill: #262626" transform="translate(66.083906 218.061562) rotate(-90) scale(0.36 -0.36)">
      <defs>
       <path id="DejaVuSans-72" d="M 2631 2963 
Q 2534 3019 2420 3045 
Q 2306 3072 2169 3072 
Q 1681 3072 1420 2755 
Q 1159 2438 1159 1844 
L 1159 0 
L 581 0 
L 581 3500 
L 1159 3500 
L 1159 2956 
Q 1341 3275 1631 3429 
Q 1922 3584 2338 3584 
Q 2397 3584 2469 3576 
Q 2541 3569 2628 3553 
L 2631 2963 
z
" transform="scale(0.015625)"/>
       <path id="DejaVuSans-69" d="M 603 3500 
L 1178 3500 
L 1178 0 
L 603 0 
L 603 3500 
z
M 603 4863 
L 1178 4863 
L 1178 4134 
L 603 4134 
L 603 4863 
z
" transform="scale(0.015625)"/>
       <path id="DejaVuSans-67" d="M 2906 1791 
Q 2906 2416 2648 2759 
Q 2391 3103 1925 3103 
Q 1463 3103 1205 2759 
Q 947 2416 947 1791 
Q 947 1169 1205 825 
Q 1463 481 1925 481 
Q 2391 481 2648 825 
Q 2906 1169 2906 1791 
z
M 3481 434 
Q 3481 -459 3084 -895 
Q 2688 -1331 1869 -1331 
Q 1566 -1331 1297 -1286 
Q 1028 -1241 775 -1147 
L 775 -588 
Q 1028 -725 1275 -790 
Q 1522 -856 1778 -856 
Q 2344 -856 2625 -561 
Q 2906 -266 2906 331 
L 2906 616 
Q 2728 306 2450 153 
Q 2172 0 1784 0 
Q 1141 0 747 490 
Q 353 981 353 1791 
Q 353 2603 747 3093 
Q 1141 3584 1784 3584 
Q 2172 3584 2450 3431 
Q 2728 3278 2906 2969 
L 2906 3500 
L 3481 3500 
L 3481 434 
z
" transform="scale(0.015625)"/>
       <path id="DejaVuSans-68" d="M 3513 2113 
L 3513 0 
L 2938 0 
L 2938 2094 
Q 2938 2591 2744 2837 
Q 2550 3084 2163 3084 
Q 1697 3084 1428 2787 
Q 1159 2491 1159 1978 
L 1159 0 
L 581 0 
L 581 4863 
L 1159 4863 
L 1159 2956 
Q 1366 3272 1645 3428 
Q 1925 3584 2291 3584 
Q 2894 3584 3203 3211 
Q 3513 2838 3513 2113 
z
" transform="scale(0.015625)"/>
      </defs>
      <use xlink:href="#DejaVuSans-72"/>
      <use xlink:href="#DejaVuSans-69" x="41.113281"/>
      <use xlink:href="#DejaVuSans-67" x="68.896484"/>
      <use xlink:href="#DejaVuSans-68" x="132.373047"/>
      <use xlink:href="#DejaVuSans-74" x="195.751953"/>
     </g>
    </g>
   </g>
   <g id="PathCollection_1">
    <defs>
     <path id="mc4510699e8" d="M 0 7.071068 
C 1.875269 7.071068 3.673985 6.326016 5 5 
C 6.326016 3.673985 7.071068 1.875269 7.071068 0 
C 7.071068 -1.875269 6.326016 -3.673985 5 -5 
C 3.673985 -6.326016 1.875269 -7.071068 0 -7.071068 
C -1.875269 -7.071068 -3.673985 -6.326016 -5 -5 
C -6.326016 -3.673985 -7.071068 -1.875269 -7.071068 0 
C -7.071068 1.875269 -6.326016 3.673985 -5 5 
C -3.673985 6.326016 -1.875269 7.071068 0 7.071068 
z
" style="stroke: #ffffff; stroke-opacity: 0.6; stroke-width: 1.131371"/>
    </defs>
    <g clip-path="url(#p9db1d09367)">
     <use xlink:href="#mc4510699e8" x="234.46278" y="153.611524" style="fill: #003366; fill-opacity: 0.6; stroke: #ffffff; stroke-opacity: 0.6; stroke-width: 1.131371"/>
     <use xlink:href="#mc4510699e8" x="278.247247" y="149.969415" style="fill: #003366; fill-opacity: 0.6; stroke: #ffffff; stroke-opacity: 0.6; stroke-width: 1.131371"/>
     <use xlink:href="#mc4510699e8" x="318.941028" y="89.448206" style="fill: #003366; fill-opacity: 0.6; stroke: #ffffff; stroke-opacity: 0.6; stroke-width: 1.131371"/>
     <use xlink:href="#mc4510699e8" x="338.968076" y="57.610756" style="fill: #003366; fill-opacity: 0.6; stroke: #ffffff; stroke-opacity: 0.6; stroke-width: 1.131371"/>
     <use xlink:href="#mc4510699e8" x="274.975942" y="51.324545" style="fill: #003366; fill-opacity: 0.6; stroke: #ffffff; stroke-opacity: 0.6; stroke-width: 1.131371"/>
     <use xlink:href="#mc4510699e8" x="263.908929" y="162.032867" style="fill: #003366; fill-opacity: 0.6; stroke: #ffffff; stroke-opacity: 0.6; stroke-width: 1.131371"/>
     <use xlink:href="#mc4510699e8" x="244.164544" y="195.709525" style="fill: #003366; fill-opacity: 0.6; stroke: #ffffff; stroke-opacity: 0.6; stroke-width: 1.131371"/>
     <use xlink:href="#mc4510699e8" x="314.252986" y="146.27022" style="fill: #003366; fill-opacity: 0.6; stroke: #ffffff; stroke-opacity: 0.6; stroke-width: 1.131371"/>
     <use xlink:href="#mc4510699e8" x="198.222255" y="188.157949" style="fill: #003366; fill-opacity: 0.6; stroke: #ffffff; stroke-opacity: 0.6; stroke-width: 1.131371"/>
     <use xlink:href="#mc4510699e8" x="286.990418" y="158.378631" style="fill: #003366; fill-opacity: 0.6; stroke: #ffffff; stroke-opacity: 0.6; stroke-width: 1.131371"/>
     <use xlink:href="#mc4510699e8" x="329.477231" y="102.923829" style="fill: #003366; fill-opacity: 0.6; stroke: #ffffff; stroke-opacity: 0.6; stroke-width: 1.131371"/>
     <use xlink:href="#mc4510699e8" x="252.47012" y="153.267502" style="fill: #003366; fill-opacity: 0.6; stroke: #ffffff; stroke-opacity: 0.6; stroke-width: 1.131371"/>
     <use xlink:href="#mc4510699e8" x="266.331126" y="217.901349" style="fill: #003366; fill-opacity: 0.6; stroke: #ffffff; stroke-opacity: 0.6; stroke-width: 1.131371"/>
     <use xlink:href="#mc4510699e8" x="354.157353" y="138.484283" style="fill: #003366; fill-opacity: 0.6; stroke: #ffffff; stroke-opacity: 0.6; stroke-width: 1.131371"/>
     <use xlink:href="#mc4510699e8" x="270.957727" y="142.669661" style="fill: #003366; fill-opacity: 0.6; stroke: #ffffff; stroke-opacity: 0.6; stroke-width: 1.131371"/>
     <use xlink:href="#mc4510699e8" x="277.04488" y="148.450907" style="fill: #003366; fill-opacity: 0.6; stroke: #ffffff; stroke-opacity: 0.6; stroke-width: 1.131371"/>
     <use xlink:href="#mc4510699e8" x="226.534673" y="133.525327" style="fill: #003366; fill-opacity: 0.6; stroke: #ffffff; stroke-opacity: 0.6; stroke-width: 1.131371"/>
     <use xlink:href="#mc4510699e8" x="253.903224" y="143.333584" style="fill: #003366; fill-opacity: 0.6; stroke: #ffffff; stroke-opacity: 0.6; stroke-width: 1.131371"/>
     <use xlink:href="#mc4510699e8" x="224.436366" y="145.86012" style="fill: #003366; fill-opacity: 0.6; stroke: #ffffff; stroke-opacity: 0.6; stroke-width: 1.131371"/>
     <use xlink:href="#mc4510699e8" x="266.107264" y="153.087639" style="fill: #003366; fill-opacity: 0.6; stroke: #ffffff; stroke-opacity: 0.6; stroke-width: 1.131371"/>
     <use xlink:href="#mc4510699e8" x="239.818954" y="162.853981" style="fill: #003366; fill-opacity: 0.6; stroke: #ffffff; stroke-opacity: 0.6; stroke-width: 1.131371"/>
     <use xlink:href="#mc4510699e8" x="300.363912" y="133.96895" style="fill: #003366; fill-opacity: 0.6; stroke: #ffffff; stroke-opacity: 0.6; stroke-width: 1.131371"/>
     <use xlink:href="#mc4510699e8" x="348.169026" y="66.678447" style="fill: #003366; fill-opacity: 0.6; stroke: #ffffff; stroke-opacity: 0.6; stroke-width: 1.131371"/>
     <use xlink:href="#mc4510699e8" x="251.764825" y="215.993553" style="fill: #003366; fill-opacity: 0.6; stroke: #ffffff; stroke-opacity: 0.6; stroke-width: 1.131371"/>
     <use xlink:href="#mc4510699e8" x="289.229798" y="127.616175" style="fill: #003366; fill-opacity: 0.6; stroke: #ffffff; stroke-opacity: 0.6; stroke-width: 1.131371"/>
     <use xlink:href="#mc4510699e8" x="309.798112" y="93.018207" style="fill: #003366; fill-opacity: 0.6; stroke: #ffffff; stroke-opacity: 0.6; stroke-width: 1.131371"/>
     <use xlink:href="#mc4510699e8" x="361.448098" y="65.723462" style="fill: #003366; fill-opacity: 0.6; stroke: #ffffff; stroke-opacity: 0.6; stroke-width: 1.131371"/>
     <use xlink:href="#mc4510699e8" x="269.369284" y="103.320672" style="fill: #003366; fill-opacity: 0.6; stroke: #ffffff; stroke-opacity: 0.6; stroke-width: 1.131371"/>
     <use xlink:href="#mc4510699e8" x="302.995707" y="142.410825" style="fill: #003366; fill-opacity: 0.6; stroke: #ffffff; stroke-opacity: 0.6; stroke-width: 1.131371"/>
     <use xlink:href="#mc4510699e8" x="280.773829" y="123.425406" style="fill: #003366; fill-opacity: 0.6; stroke: #ffffff; stroke-opacity: 0.6; stroke-width: 1.131371"/>
     <use xlink:href="#mc4510699e8" x="234.076667" y="194.474588" style="fill: #003366; fill-opacity: 0.6; stroke: #ffffff; stroke-opacity: 0.6; stroke-width: 1.131371"/>
     <use xlink:href="#mc4510699e8" x="147.866004" y="300.215455" style="fill: #003366; fill-opacity: 0.6; stroke: #ffffff; stroke-opacity: 0.6; stroke-width: 1.131371"/>
     <use xlink:href="#mc4510699e8" x="183.950933" y="284.752206" style="fill: #003366; fill-opacity: 0.6; stroke: #ffffff; stroke-opacity: 0.6; stroke-width: 1.131371"/>
     <use xlink:href="#mc4510699e8" x="343.475266" y="138.691171" style="fill: #003366; fill-opacity: 0.6; stroke: #ffffff; stroke-opacity: 0.6; stroke-width: 1.131371"/>
     <use xlink:href="#mc4510699e8" x="271.076817" y="166.304612" style="fill: #003366; fill-opacity: 0.6; stroke: #ffffff; stroke-opacity: 0.6; stroke-width: 1.131371"/>
     <use xlink:href="#mc4510699e8" x="299.279489" y="95.278733" style="fill: #003366; fill-opacity: 0.6; stroke: #ffffff; stroke-opacity: 0.6; stroke-width: 1.131371"/>
     <use xlink:href="#mc4510699e8" x="237.94255" y="166.309214" style="fill: #003366; fill-opacity: 0.6; stroke: #ffffff; stroke-opacity: 0.6; stroke-width: 1.131371"/>
     <use xlink:href="#mc4510699e8" x="181.904178" y="149.70979" style="fill: #003366; fill-opacity: 0.6; stroke: #ffffff; stroke-opacity: 0.6; stroke-width: 1.131371"/>
     <use xlink:href="#mc4510699e8" x="390.786094" y="51.447267" style="fill: #003366; fill-opacity: 0.6; stroke: #ffffff; stroke-opacity: 0.6; stroke-width: 1.131371"/>
     <use xlink:href="#mc4510699e8" x="283.998877" y="132.575791" style="fill: #003366; fill-opacity: 0.6; stroke: #ffffff; stroke-opacity: 0.6; stroke-width: 1.131371"/>
     <use xlink:href="#mc4510699e8" x="254.181209" y="154.213583" style="fill: #003366; fill-opacity: 0.6; stroke: #ffffff; stroke-opacity: 0.6; stroke-width: 1.131371"/>
     <use xlink:href="#mc4510699e8" x="291.188885" y="152.17014" style="fill: #003366; fill-opacity: 0.6; stroke: #ffffff; stroke-opacity: 0.6; stroke-width: 1.131371"/>
     <use xlink:href="#mc4510699e8" x="249.281947" y="154.234356" style="fill: #003366; fill-opacity: 0.6; stroke: #ffffff; stroke-opacity: 0.6; stroke-width: 1.131371"/>
    </g>
   </g>
   <g id="line2d_8">
    <path d="M 135.72 143.821338 
L 402.932098 143.821338 
" clip-path="url(#p9db1d09367)" style="fill: none; stroke-dasharray: 2.59,1.12; stroke-dashoffset: 0; stroke: #000000; stroke-width: 0.7"/>
   </g>
   <g id="line2d_9">
    <path d="M 269.440093 312.66 
L 269.440093 38.88 
" clip-path="url(#p9db1d09367)" style="fill: none; stroke-dasharray: 2.59,1.12; stroke-dashoffset: 0; stroke: #000000; stroke-width: 0.7"/>
   </g>
   <g id="patch_3">
    <path d="M 135.72 312.66 
L 135.72 38.88 
" style="fill: none; stroke: #262626; stroke-width: 1.25; stroke-linejoin: miter; stroke-linecap: square"/>
   </g>
   <g id="patch_4">
    <path d="M 135.72 312.66 
L 402.932098 312.66 
" style="fill: none; stroke: #262626; stroke-width: 1.25; stroke-linejoin: miter; stroke-linecap: square"/>
   </g>
  </g>
  <g id="axes_2">
   <g id="patch_5">
    <path d="M 562.813951 312.66 
L 830.026049 312.66 
L 830.026049 38.88 
L 562.813951 38.88 
z
" style="fill: #ffffff"/>
   </g>
   <g id="matplotlib.axis_3">
    <g id="xtick_4">
     <g id="line2d_10">
      <path d="M 627.135053 312.66 
L 627.135053 38.88 
" clip-path="url(#p47dd6e27cb)" style="fill: none; stroke-dasharray: 1,1.65; stroke-dashoffset: 0; stroke: #cccccc; stroke-opacity: 0.3"/>
     </g>
     <g id="text_10">
      <!-- −2.5 -->
      <g style="fill: #262626" transform="translate(587.068412 347.234844) scale(0.33 -0.33)">
       <use xlink:href="#DejaVuSans-2212"/>
       <use xlink:href="#DejaVuSans-32" x="83.789062"/>
       <use xlink:href="#DejaVuSans-2e" x="147.412109"/>
       <use xlink:href="#DejaVuSans-35" x="179.199219"/>
      </g>
     </g>
    </g>
    <g id="xtick_5">
     <g id="line2d_11">
      <path d="M 727.602223 312.66 
L 727.602223 38.88 
" clip-path="url(#p47dd6e27cb)" style="fill: none; stroke-dasharray: 1,1.65; stroke-dashoffset: 0; stroke: #cccccc; stroke-opacity: 0.3"/>
     </g>
     <g id="text_11">
      <!-- 0.0 -->
      <g style="fill: #262626" transform="translate(701.362067 347.234844) scale(0.33 -0.33)">
       <use xlink:href="#DejaVuSans-30"/>
       <use xlink:href="#DejaVuSans-2e" x="63.623047"/>
       <use xlink:href="#DejaVuSans-30" x="95.410156"/>
      </g>
     </g>
    </g>
    <g id="xtick_6">
     <g id="line2d_12">
      <path d="M 828.069393 312.66 
L 828.069393 38.88 
" clip-path="url(#p47dd6e27cb)" style="fill: none; stroke-dasharray: 1,1.65; stroke-dashoffset: 0; stroke: #cccccc; stroke-opacity: 0.3"/>
     </g>
     <g id="text_12">
      <!-- 2.5 -->
      <g style="fill: #262626" transform="translate(801.829237 347.234844) scale(0.33 -0.33)">
       <use xlink:href="#DejaVuSans-32"/>
       <use xlink:href="#DejaVuSans-2e" x="63.623047"/>
       <use xlink:href="#DejaVuSans-35" x="95.410156"/>
      </g>
     </g>
    </g>
    <g id="text_13">
     <!-- right -->
     <g style="fill: #262626" transform="translate(654.128438 385.452187) scale(0.36 -0.36)">
      <use xlink:href="#DejaVuSans-72"/>
      <use xlink:href="#DejaVuSans-69" x="41.113281"/>
      <use xlink:href="#DejaVuSans-67" x="68.896484"/>
      <use xlink:href="#DejaVuSans-68" x="132.373047"/>
      <use xlink:href="#DejaVuSans-74" x="195.751953"/>
     </g>
    </g>
   </g>
   <g id="matplotlib.axis_4">
    <g id="ytick_5">
     <g id="line2d_13">
      <path d="M 562.813951 258.56277 
L 830.026049 258.56277 
" clip-path="url(#p47dd6e27cb)" style="fill: none; stroke-dasharray: 1,1.65; stroke-dashoffset: 0; stroke: #cccccc; stroke-opacity: 0.3"/>
     </g>
     <g id="text_14">
      <!-- −2 -->
      <g style="fill: #262626" transform="translate(504.664732 271.100191) scale(0.33 -0.33)">
       <use xlink:href="#DejaVuSans-2212"/>
       <use xlink:href="#DejaVuSans-32" x="83.789062"/>
      </g>
     </g>
    </g>
    <g id="ytick_6">
     <g id="line2d_14">
      <path d="M 562.813951 174.884489 
L 830.026049 174.884489 
" clip-path="url(#p47dd6e27cb)" style="fill: none; stroke-dasharray: 1,1.65; stroke-dashoffset: 0; stroke: #cccccc; stroke-opacity: 0.3"/>
     </g>
     <g id="text_15">
      <!-- 0 -->
      <g style="fill: #262626" transform="translate(532.317701 187.421911) scale(0.33 -0.33)">
       <use xlink:href="#DejaVuSans-30"/>
      </g>
     </g>
    </g>
    <g id="ytick_7">
     <g id="line2d_15">
      <path d="M 562.813951 91.206208 
L 830.026049 91.206208 
" clip-path="url(#p47dd6e27cb)" style="fill: none; stroke-dasharray: 1,1.65; stroke-dashoffset: 0; stroke: #cccccc; stroke-opacity: 0.3"/>
     </g>
     <g id="text_16">
      <!-- 2 -->
      <g style="fill: #262626" transform="translate(532.317701 103.74363) scale(0.33 -0.33)">
       <use xlink:href="#DejaVuSans-32"/>
      </g>
     </g>
    </g>
    <g id="text_17">
     <!-- centre -->
     <g style="fill: #262626" transform="translate(493.177857 233.277187) rotate(-90) scale(0.36 -0.36)">
      <defs>
       <path id="DejaVuSans-63" d="M 3122 3366 
L 3122 2828 
Q 2878 2963 2633 3030 
Q 2388 3097 2138 3097 
Q 1578 3097 1268 2742 
Q 959 2388 959 1747 
Q 959 1106 1268 751 
Q 1578 397 2138 397 
Q 2388 397 2633 464 
Q 2878 531 3122 666 
L 3122 134 
Q 2881 22 2623 -34 
Q 2366 -91 2075 -91 
Q 1284 -91 818 406 
Q 353 903 353 1747 
Q 353 2603 823 3093 
Q 1294 3584 2113 3584 
Q 2378 3584 2631 3529 
Q 2884 3475 3122 3366 
z
" transform="scale(0.015625)"/>
       <path id="DejaVuSans-6e" d="M 3513 2113 
L 3513 0 
L 2938 0 
L 2938 2094 
Q 2938 2591 2744 2837 
Q 2550 3084 2163 3084 
Q 1697 3084 1428 2787 
Q 1159 2491 1159 1978 
L 1159 0 
L 581 0 
L 581 3500 
L 1159 3500 
L 1159 2956 
Q 1366 3272 1645 3428 
Q 1925 3584 2291 3584 
Q 2894 3584 3203 3211 
Q 3513 2838 3513 2113 
z
" transform="scale(0.015625)"/>
      </defs>
      <use xlink:href="#DejaVuSans-63"/>
      <use xlink:href="#DejaVuSans-65" x="54.980469"/>
      <use xlink:href="#DejaVuSans-6e" x="116.503906"/>
      <use xlink:href="#DejaVuSans-74" x="179.882812"/>
      <use xlink:href="#DejaVuSans-72" x="219.091797"/>
      <use xlink:href="#DejaVuSans-65" x="257.955078"/>
     </g>
    </g>
   </g>
   <g id="PathCollection_2">
    <g clip-path="url(#p47dd6e27cb)">
     <use xlink:href="#mc4510699e8" x="718.0469" y="203.90125" style="fill: #003366; fill-opacity: 0.6; stroke: #ffffff; stroke-opacity: 0.6; stroke-width: 1.131371"/>
     <use xlink:href="#mc4510699e8" x="721.601637" y="160.271968" style="fill: #003366; fill-opacity: 0.6; stroke: #ffffff; stroke-opacity: 0.6; stroke-width: 1.131371"/>
     <use xlink:href="#mc4510699e8" x="780.670959" y="102.070136" style="fill: #003366; fill-opacity: 0.6; stroke: #ffffff; stroke-opacity: 0.6; stroke-width: 1.131371"/>
     <use xlink:href="#mc4510699e8" x="811.744638" y="92.919639" style="fill: #003366; fill-opacity: 0.6; stroke: #ffffff; stroke-opacity: 0.6; stroke-width: 1.131371"/>
     <use xlink:href="#mc4510699e8" x="817.880045" y="101.054464" style="fill: #003366; fill-opacity: 0.6; stroke: #ffffff; stroke-opacity: 0.6; stroke-width: 1.131371"/>
     <use xlink:href="#mc4510699e8" x="709.827583" y="168.965861" style="fill: #003366; fill-opacity: 0.6; stroke: #ffffff; stroke-opacity: 0.6; stroke-width: 1.131371"/>
     <use xlink:href="#mc4510699e8" x="676.958819" y="208.735975" style="fill: #003366; fill-opacity: 0.6; stroke: #ffffff; stroke-opacity: 0.6; stroke-width: 1.131371"/>
     <use xlink:href="#mc4510699e8" x="725.212089" y="133.068686" style="fill: #003366; fill-opacity: 0.6; stroke: #ffffff; stroke-opacity: 0.6; stroke-width: 1.131371"/>
     <use xlink:href="#mc4510699e8" x="684.329234" y="241.66437" style="fill: #003366; fill-opacity: 0.6; stroke: #ffffff; stroke-opacity: 0.6; stroke-width: 1.131371"/>
     <use xlink:href="#mc4510699e8" x="713.394155" y="145.785719" style="fill: #003366; fill-opacity: 0.6; stroke: #ffffff; stroke-opacity: 0.6; stroke-width: 1.131371"/>
     <use xlink:href="#mc4510699e8" x="767.518613" y="79.694837" style="fill: #003366; fill-opacity: 0.6; stroke: #ffffff; stroke-opacity: 0.6; stroke-width: 1.131371"/>
     <use xlink:href="#mc4510699e8" x="718.38267" y="189.910122" style="fill: #003366; fill-opacity: 0.6; stroke: #ffffff; stroke-opacity: 0.6; stroke-width: 1.131371"/>
     <use xlink:href="#mc4510699e8" x="655.299369" y="263.933833" style="fill: #003366; fill-opacity: 0.6; stroke: #ffffff; stroke-opacity: 0.6; stroke-width: 1.131371"/>
     <use xlink:href="#mc4510699e8" x="732.811244" y="53.076092" style="fill: #003366; fill-opacity: 0.6; stroke: #ffffff; stroke-opacity: 0.6; stroke-width: 1.131371"/>
     <use xlink:href="#mc4510699e8" x="728.726272" y="197.10456" style="fill: #003366; fill-opacity: 0.6; stroke: #ffffff; stroke-opacity: 0.6; stroke-width: 1.131371"/>
     <use xlink:href="#mc4510699e8" x="723.083716" y="219.972509" style="fill: #003366; fill-opacity: 0.6; stroke: #ffffff; stroke-opacity: 0.6; stroke-width: 1.131371"/>
     <use xlink:href="#mc4510699e8" x="737.651236" y="239.437038" style="fill: #003366; fill-opacity: 0.6; stroke: #ffffff; stroke-opacity: 0.6; stroke-width: 1.131371"/>
     <use xlink:href="#mc4510699e8" x="728.078276" y="191.459144" style="fill: #003366; fill-opacity: 0.6; stroke: #ffffff; stroke-opacity: 0.6; stroke-width: 1.131371"/>
     <use xlink:href="#mc4510699e8" x="725.612351" y="242.062117" style="fill: #003366; fill-opacity: 0.6; stroke: #ffffff; stroke-opacity: 0.6; stroke-width: 1.131371"/>
     <use xlink:href="#mc4510699e8" x="718.558218" y="163.609836" style="fill: #003366; fill-opacity: 0.6; stroke: #ffffff; stroke-opacity: 0.6; stroke-width: 1.131371"/>
     <use xlink:href="#mc4510699e8" x="709.026167" y="218.442876" style="fill: #003366; fill-opacity: 0.6; stroke: #ffffff; stroke-opacity: 0.6; stroke-width: 1.131371"/>
     <use xlink:href="#mc4510699e8" x="737.218255" y="150.197232" style="fill: #003366; fill-opacity: 0.6; stroke: #ffffff; stroke-opacity: 0.6; stroke-width: 1.131371"/>
     <use xlink:href="#mc4510699e8" x="802.894479" y="82.334193" style="fill: #003366; fill-opacity: 0.6; stroke: #ffffff; stroke-opacity: 0.6; stroke-width: 1.131371"/>
     <use xlink:href="#mc4510699e8" x="657.161399" y="231.492999" style="fill: #003366; fill-opacity: 0.6; stroke: #ffffff; stroke-opacity: 0.6; stroke-width: 1.131371"/>
     <use xlink:href="#mc4510699e8" x="743.418628" y="161.029253" style="fill: #003366; fill-opacity: 0.6; stroke: #ffffff; stroke-opacity: 0.6; stroke-width: 1.131371"/>
     <use xlink:href="#mc4510699e8" x="777.186602" y="124.016879" style="fill: #003366; fill-opacity: 0.6; stroke: #ffffff; stroke-opacity: 0.6; stroke-width: 1.131371"/>
     <use xlink:href="#mc4510699e8" x="803.826554" y="51.324545" style="fill: #003366; fill-opacity: 0.6; stroke: #ffffff; stroke-opacity: 0.6; stroke-width: 1.131371"/>
     <use xlink:href="#mc4510699e8" x="767.131289" y="178.381791" style="fill: #003366; fill-opacity: 0.6; stroke: #ffffff; stroke-opacity: 0.6; stroke-width: 1.131371"/>
     <use xlink:href="#mc4510699e8" x="728.978898" y="147.549726" style="fill: #003366; fill-opacity: 0.6; stroke: #ffffff; stroke-opacity: 0.6; stroke-width: 1.131371"/>
     <use xlink:href="#mc4510699e8" x="747.508862" y="161.190802" style="fill: #003366; fill-opacity: 0.6; stroke: #ffffff; stroke-opacity: 0.6; stroke-width: 1.131371"/>
     <use xlink:href="#mc4510699e8" x="678.16413" y="201.965169" style="fill: #003366; fill-opacity: 0.6; stroke: #ffffff; stroke-opacity: 0.6; stroke-width: 1.131371"/>
     <use xlink:href="#mc4510699e8" x="574.959955" y="300.215455" style="fill: #003366; fill-opacity: 0.6; stroke: #ffffff; stroke-opacity: 0.6; stroke-width: 1.131371"/>
     <use xlink:href="#mc4510699e8" x="590.052245" y="288.584931" style="fill: #003366; fill-opacity: 0.6; stroke: #ffffff; stroke-opacity: 0.6; stroke-width: 1.131371"/>
     <use xlink:href="#mc4510699e8" x="732.609319" y="86.44018" style="fill: #003366; fill-opacity: 0.6; stroke: #ffffff; stroke-opacity: 0.6; stroke-width: 1.131371"/>
     <use xlink:href="#mc4510699e8" x="705.658316" y="189.871673" style="fill: #003366; fill-opacity: 0.6; stroke: #ffffff; stroke-opacity: 0.6; stroke-width: 1.131371"/>
     <use xlink:href="#mc4510699e8" x="774.980305" y="101.641271" style="fill: #003366; fill-opacity: 0.6; stroke: #ffffff; stroke-opacity: 0.6; stroke-width: 1.131371"/>
     <use xlink:href="#mc4510699e8" x="705.653824" y="203.106104" style="fill: #003366; fill-opacity: 0.6; stroke: #ffffff; stroke-opacity: 0.6; stroke-width: 1.131371"/>
     <use xlink:href="#mc4510699e8" x="721.855033" y="174.233098" style="fill: #003366; fill-opacity: 0.6; stroke: #ffffff; stroke-opacity: 0.6; stroke-width: 1.131371"/>
     <use xlink:href="#mc4510699e8" x="817.760267" y="60.122808" style="fill: #003366; fill-opacity: 0.6; stroke: #ffffff; stroke-opacity: 0.6; stroke-width: 1.131371"/>
     <use xlink:href="#mc4510699e8" x="738.577993" y="146.243189" style="fill: #003366; fill-opacity: 0.6; stroke: #ffffff; stroke-opacity: 0.6; stroke-width: 1.131371"/>
     <use xlink:href="#mc4510699e8" x="717.459285" y="180.67956" style="fill: #003366; fill-opacity: 0.6; stroke: #ffffff; stroke-opacity: 0.6; stroke-width: 1.131371"/>
     <use xlink:href="#mc4510699e8" x="719.453706" y="165.141384" style="fill: #003366; fill-opacity: 0.6; stroke: #ffffff; stroke-opacity: 0.6; stroke-width: 1.131371"/>
     <use xlink:href="#mc4510699e8" x="717.43901" y="199.733177" style="fill: #003366; fill-opacity: 0.6; stroke: #ffffff; stroke-opacity: 0.6; stroke-width: 1.131371"/>
    </g>
   </g>
   <g id="line2d_16">
    <path d="M 562.813951 174.884489 
L 830.026049 174.884489 
" clip-path="url(#p47dd6e27cb)" style="fill: none; stroke-dasharray: 2.59,1.12; stroke-dashoffset: 0; stroke: #000000; stroke-width: 0.7"/>
   </g>
   <g id="line2d_17">
    <path d="M 727.602223 312.66 
L 727.602223 38.88 
" clip-path="url(#p47dd6e27cb)" style="fill: none; stroke-dasharray: 2.59,1.12; stroke-dashoffset: 0; stroke: #000000; stroke-width: 0.7"/>
   </g>
   <g id="patch_6">
    <path d="M 562.813951 312.66 
L 562.813951 38.88 
" style="fill: none; stroke: #262626; stroke-width: 1.25; stroke-linejoin: miter; stroke-linecap: square"/>
   </g>
   <g id="patch_7">
    <path d="M 562.813951 312.66 
L 830.026049 312.66 
" style="fill: none; stroke: #262626; stroke-width: 1.25; stroke-linejoin: miter; stroke-linecap: square"/>
   </g>
  </g>
  <g id="axes_3">
   <g id="patch_8">
    <path d="M 989.907902 312.66 
L 1257.12 312.66 
L 1257.12 38.88 
L 989.907902 38.88 
z
" style="fill: #ffffff"/>
   </g>
   <g id="matplotlib.axis_5">
    <g id="xtick_7">
     <g id="line2d_18">
      <path d="M 1022.289639 312.66 
L 1022.289639 38.88 
" clip-path="url(#p9f48e32b48)" style="fill: none; stroke-dasharray: 1,1.65; stroke-dashoffset: 0; stroke: #cccccc; stroke-opacity: 0.3"/>
     </g>
     <g id="text_18">
      <!-- −2.5 -->
      <g style="fill: #262626" transform="translate(982.222999 347.234844) scale(0.33 -0.33)">
       <use xlink:href="#DejaVuSans-2212"/>
       <use xlink:href="#DejaVuSans-32" x="83.789062"/>
       <use xlink:href="#DejaVuSans-2e" x="147.412109"/>
       <use xlink:href="#DejaVuSans-35" x="179.199219"/>
      </g>
     </g>
    </g>
    <g id="xtick_8">
     <g id="line2d_19">
      <path d="M 1124.378219 312.66 
L 1124.378219 38.88 
" clip-path="url(#p9f48e32b48)" style="fill: none; stroke-dasharray: 1,1.65; stroke-dashoffset: 0; stroke: #cccccc; stroke-opacity: 0.3"/>
     </g>
     <g id="text_19">
      <!-- 0.0 -->
      <g style="fill: #262626" transform="translate(1098.138063 347.234844) scale(0.33 -0.33)">
       <use xlink:href="#DejaVuSans-30"/>
       <use xlink:href="#DejaVuSans-2e" x="63.623047"/>
       <use xlink:href="#DejaVuSans-30" x="95.410156"/>
      </g>
     </g>
    </g>
    <g id="xtick_9">
     <g id="line2d_20">
      <path d="M 1226.466799 312.66 
L 1226.466799 38.88 
" clip-path="url(#p9f48e32b48)" style="fill: none; stroke-dasharray: 1,1.65; stroke-dashoffset: 0; stroke: #cccccc; stroke-opacity: 0.3"/>
     </g>
     <g id="text_20">
      <!-- 2.5 -->
      <g style="fill: #262626" transform="translate(1200.226642 347.234844) scale(0.33 -0.33)">
       <use xlink:href="#DejaVuSans-32"/>
       <use xlink:href="#DejaVuSans-2e" x="63.623047"/>
       <use xlink:href="#DejaVuSans-35" x="95.410156"/>
      </g>
     </g>
    </g>
    <g id="text_21">
     <!-- centre -->
     <g style="fill: #262626" transform="translate(1066.006763 385.452187) scale(0.36 -0.36)">
      <use xlink:href="#DejaVuSans-63"/>
      <use xlink:href="#DejaVuSans-65" x="54.980469"/>
      <use xlink:href="#DejaVuSans-6e" x="116.503906"/>
      <use xlink:href="#DejaVuSans-74" x="179.882812"/>
      <use xlink:href="#DejaVuSans-72" x="219.091797"/>
      <use xlink:href="#DejaVuSans-65" x="257.955078"/>
     </g>
    </g>
   </g>
   <g id="matplotlib.axis_6">
    <g id="ytick_8">
     <g id="line2d_21">
      <path d="M 989.907902 246.470244 
L 1257.12 246.470244 
" clip-path="url(#p9f48e32b48)" style="fill: none; stroke-dasharray: 1,1.65; stroke-dashoffset: 0; stroke: #cccccc; stroke-opacity: 0.3"/>
     </g>
     <g id="text_22">
      <!-- −2 -->
      <g style="fill: #262626" transform="translate(931.758683 259.007665) scale(0.33 -0.33)">
       <use xlink:href="#DejaVuSans-2212"/>
       <use xlink:href="#DejaVuSans-32" x="83.789062"/>
      </g>
     </g>
    </g>
    <g id="ytick_9">
     <g id="line2d_22">
      <path d="M 989.907902 175.653153 
L 1257.12 175.653153 
" clip-path="url(#p9f48e32b48)" style="fill: none; stroke-dasharray: 1,1.65; stroke-dashoffset: 0; stroke: #cccccc; stroke-opacity: 0.3"/>
     </g>
     <g id="text_23">
      <!-- 0 -->
      <g style="fill: #262626" transform="translate(959.411652 188.190575) scale(0.33 -0.33)">
       <use xlink:href="#DejaVuSans-30"/>
      </g>
     </g>
    </g>
    <g id="ytick_10">
     <g id="line2d_23">
      <path d="M 989.907902 104.836063 
L 1257.12 104.836063 
" clip-path="url(#p9f48e32b48)" style="fill: none; stroke-dasharray: 1,1.65; stroke-dashoffset: 0; stroke: #cccccc; stroke-opacity: 0.3"/>
     </g>
     <g id="text_24">
      <!-- 2 -->
      <g style="fill: #262626" transform="translate(959.411652 117.373485) scale(0.33 -0.33)">
       <use xlink:href="#DejaVuSans-32"/>
      </g>
     </g>
    </g>
    <g id="text_25">
     <!-- left -->
     <g style="fill: #262626" transform="translate(920.271808 204.924375) rotate(-90) scale(0.36 -0.36)">
      <use xlink:href="#DejaVuSans-6c"/>
      <use xlink:href="#DejaVuSans-65" x="27.783203"/>
      <use xlink:href="#DejaVuSans-66" x="89.306641"/>
      <use xlink:href="#DejaVuSans-74" x="122.761719"/>
     </g>
    </g>
   </g>
   <g id="PathCollection_3">
    <g clip-path="url(#p9f48e32b48)">
     <use xlink:href="#mc4510699e8" x="1096.057561" y="211.490186" style="fill: #003366; fill-opacity: 0.6; stroke: #ffffff; stroke-opacity: 0.6; stroke-width: 1.131371"/>
     <use xlink:href="#mc4510699e8" x="1138.640189" y="166.629525" style="fill: #003366; fill-opacity: 0.6; stroke: #ffffff; stroke-opacity: 0.6; stroke-width: 1.131371"/>
     <use xlink:href="#mc4510699e8" x="1195.445777" y="124.935517" style="fill: #003366; fill-opacity: 0.6; stroke: #ffffff; stroke-opacity: 0.6; stroke-width: 1.131371"/>
     <use xlink:href="#mc4510699e8" x="1204.376756" y="104.416217" style="fill: #003366; fill-opacity: 0.6; stroke: #ffffff; stroke-opacity: 0.6; stroke-width: 1.131371"/>
     <use xlink:href="#mc4510699e8" x="1196.437083" y="169.981236" style="fill: #003366; fill-opacity: 0.6; stroke: #ffffff; stroke-opacity: 0.6; stroke-width: 1.131371"/>
     <use xlink:href="#mc4510699e8" x="1130.15486" y="181.320269" style="fill: #003366; fill-opacity: 0.6; stroke: #ffffff; stroke-opacity: 0.6; stroke-width: 1.131371"/>
     <use xlink:href="#mc4510699e8" x="1091.33882" y="201.549959" style="fill: #003366; fill-opacity: 0.6; stroke: #ffffff; stroke-opacity: 0.6; stroke-width: 1.131371"/>
     <use xlink:href="#mc4510699e8" x="1165.190873" y="129.738788" style="fill: #003366; fill-opacity: 0.6; stroke: #ffffff; stroke-opacity: 0.6; stroke-width: 1.131371"/>
     <use xlink:href="#mc4510699e8" x="1059.200367" y="248.621479" style="fill: #003366; fill-opacity: 0.6; stroke: #ffffff; stroke-opacity: 0.6; stroke-width: 1.131371"/>
     <use xlink:href="#mc4510699e8" x="1152.778918" y="157.671452" style="fill: #003366; fill-opacity: 0.6; stroke: #ffffff; stroke-opacity: 0.6; stroke-width: 1.131371"/>
     <use xlink:href="#mc4510699e8" x="1217.284299" y="114.140341" style="fill: #003366; fill-opacity: 0.6; stroke: #ffffff; stroke-opacity: 0.6; stroke-width: 1.131371"/>
     <use xlink:href="#mc4510699e8" x="1109.713046" y="193.040237" style="fill: #003366; fill-opacity: 0.6; stroke: #ffffff; stroke-opacity: 0.6; stroke-width: 1.131371"/>
     <use xlink:href="#mc4510699e8" x="1037.465142" y="178.838537" style="fill: #003366; fill-opacity: 0.6; stroke: #ffffff; stroke-opacity: 0.6; stroke-width: 1.131371"/>
     <use xlink:href="#mc4510699e8" x="1243.264468" y="88.853597" style="fill: #003366; fill-opacity: 0.6; stroke: #ffffff; stroke-opacity: 0.6; stroke-width: 1.131371"/>
     <use xlink:href="#mc4510699e8" x="1102.6912" y="174.098217" style="fill: #003366; fill-opacity: 0.6; stroke: #ffffff; stroke-opacity: 0.6; stroke-width: 1.131371"/>
     <use xlink:href="#mc4510699e8" x="1080.371847" y="167.861445" style="fill: #003366; fill-opacity: 0.6; stroke: #ffffff; stroke-opacity: 0.6; stroke-width: 1.131371"/>
     <use xlink:href="#mc4510699e8" x="1061.374266" y="219.613161" style="fill: #003366; fill-opacity: 0.6; stroke: #ffffff; stroke-opacity: 0.6; stroke-width: 1.131371"/>
     <use xlink:href="#mc4510699e8" x="1108.201185" y="191.571908" style="fill: #003366; fill-opacity: 0.6; stroke: #ffffff; stroke-opacity: 0.6; stroke-width: 1.131371"/>
     <use xlink:href="#mc4510699e8" x="1058.812163" y="221.763043" style="fill: #003366; fill-opacity: 0.6; stroke: #ffffff; stroke-opacity: 0.6; stroke-width: 1.131371"/>
     <use xlink:href="#mc4510699e8" x="1135.382396" y="179.0679" style="fill: #003366; fill-opacity: 0.6; stroke: #ffffff; stroke-opacity: 0.6; stroke-width: 1.131371"/>
     <use xlink:href="#mc4510699e8" x="1081.864784" y="206.002361" style="fill: #003366; fill-opacity: 0.6; stroke: #ffffff; stroke-opacity: 0.6; stroke-width: 1.131371"/>
     <use xlink:href="#mc4510699e8" x="1148.473235" y="143.969247" style="fill: #003366; fill-opacity: 0.6; stroke: #ffffff; stroke-opacity: 0.6; stroke-width: 1.131371"/>
     <use xlink:href="#mc4510699e8" x="1214.70826" y="94.989113" style="fill: #003366; fill-opacity: 0.6; stroke: #ffffff; stroke-opacity: 0.6; stroke-width: 1.131371"/>
     <use xlink:href="#mc4510699e8" x="1069.12773" y="193.762868" style="fill: #003366; fill-opacity: 0.6; stroke: #ffffff; stroke-opacity: 0.6; stroke-width: 1.131371"/>
     <use xlink:href="#mc4510699e8" x="1137.901071" y="155.37703" style="fill: #003366; fill-opacity: 0.6; stroke: #ffffff; stroke-opacity: 0.6; stroke-width: 1.131371"/>
     <use xlink:href="#mc4510699e8" x="1174.02553" y="134.30316" style="fill: #003366; fill-opacity: 0.6; stroke: #ffffff; stroke-opacity: 0.6; stroke-width: 1.131371"/>
     <use xlink:href="#mc4510699e8" x="1244.973996" y="81.383651" style="fill: #003366; fill-opacity: 0.6; stroke: #ffffff; stroke-opacity: 0.6; stroke-width: 1.131371"/>
     <use xlink:href="#mc4510699e8" x="1120.964816" y="175.725703" style="fill: #003366; fill-opacity: 0.6; stroke: #ffffff; stroke-opacity: 0.6; stroke-width: 1.131371"/>
     <use xlink:href="#mc4510699e8" x="1151.057228" y="141.272764" style="fill: #003366; fill-opacity: 0.6; stroke: #ffffff; stroke-opacity: 0.6; stroke-width: 1.131371"/>
     <use xlink:href="#mc4510699e8" x="1137.743398" y="164.040841" style="fill: #003366; fill-opacity: 0.6; stroke: #ffffff; stroke-opacity: 0.6; stroke-width: 1.131371"/>
     <use xlink:href="#mc4510699e8" x="1097.947196" y="211.88579" style="fill: #003366; fill-opacity: 0.6; stroke: #ffffff; stroke-opacity: 0.6; stroke-width: 1.131371"/>
     <use xlink:href="#mc4510699e8" x="1002.053906" y="300.215455" style="fill: #003366; fill-opacity: 0.6; stroke: #ffffff; stroke-opacity: 0.6; stroke-width: 1.131371"/>
     <use xlink:href="#mc4510699e8" x="1013.405417" y="263.243582" style="fill: #003366; fill-opacity: 0.6; stroke: #ffffff; stroke-opacity: 0.6; stroke-width: 1.131371"/>
     <use xlink:href="#mc4510699e8" x="1210.700775" y="99.798243" style="fill: #003366; fill-opacity: 0.6; stroke: #ffffff; stroke-opacity: 0.6; stroke-width: 1.131371"/>
     <use xlink:href="#mc4510699e8" x="1109.750573" y="173.976199" style="fill: #003366; fill-opacity: 0.6; stroke: #ffffff; stroke-opacity: 0.6; stroke-width: 1.131371"/>
     <use xlink:href="#mc4510699e8" x="1195.864354" y="145.080324" style="fill: #003366; fill-opacity: 0.6; stroke: #ffffff; stroke-opacity: 0.6; stroke-width: 1.131371"/>
     <use xlink:href="#mc4510699e8" x="1096.833631" y="207.924886" style="fill: #003366; fill-opacity: 0.6; stroke: #ffffff; stroke-opacity: 0.6; stroke-width: 1.131371"/>
     <use xlink:href="#mc4510699e8" x="1125.013983" y="265.340645" style="fill: #003366; fill-opacity: 0.6; stroke: #ffffff; stroke-opacity: 0.6; stroke-width: 1.131371"/>
     <use xlink:href="#mc4510699e8" x="1236.3868" y="51.324545" style="fill: #003366; fill-opacity: 0.6; stroke: #ffffff; stroke-opacity: 0.6; stroke-width: 1.131371"/>
     <use xlink:href="#mc4510699e8" x="1152.332423" y="160.736524" style="fill: #003366; fill-opacity: 0.6; stroke: #ffffff; stroke-opacity: 0.6; stroke-width: 1.131371"/>
     <use xlink:href="#mc4510699e8" x="1118.72217" y="191.287091" style="fill: #003366; fill-opacity: 0.6; stroke: #ffffff; stroke-opacity: 0.6; stroke-width: 1.131371"/>
     <use xlink:href="#mc4510699e8" x="1133.88759" y="153.36979" style="fill: #003366; fill-opacity: 0.6; stroke: #ffffff; stroke-opacity: 0.6; stroke-width: 1.131371"/>
     <use xlink:href="#mc4510699e8" x="1100.125643" y="196.306774" style="fill: #003366; fill-opacity: 0.6; stroke: #ffffff; stroke-opacity: 0.6; stroke-width: 1.131371"/>
    </g>
   </g>
   <g id="line2d_24">
    <path d="M 989.907902 175.653153 
L 1257.12 175.653153 
" clip-path="url(#p9f48e32b48)" style="fill: none; stroke-dasharray: 2.59,1.12; stroke-dashoffset: 0; stroke: #000000; stroke-width: 0.7"/>
   </g>
   <g id="line2d_25">
    <path d="M 1124.378219 312.66 
L 1124.378219 38.88 
" clip-path="url(#p9f48e32b48)" style="fill: none; stroke-dasharray: 2.59,1.12; stroke-dashoffset: 0; stroke: #000000; stroke-width: 0.7"/>
   </g>
   <g id="patch_9">
    <path d="M 989.907902 312.66 
L 989.907902 38.88 
" style="fill: none; stroke: #262626; stroke-width: 1.25; stroke-linejoin: miter; stroke-linecap: square"/>
   </g>
   <g id="patch_10">
    <path d="M 989.907902 312.66 
L 1257.12 312.66 
" style="fill: none; stroke: #262626; stroke-width: 1.25; stroke-linejoin: miter; stroke-linecap: square"/>
   </g>
  </g>
 </g>
 <defs>
  <clipPath id="p9db1d09367">
   <rect x="135.72" y="38.88" width="267.212098" height="273.78"/>
  </clipPath>
  <clipPath id="p47dd6e27cb">
   <rect x="562.813951" y="38.88" width="267.212098" height="273.78"/>
  </clipPath>
  <clipPath id="p9f48e32b48">
   <rect x="989.907902" y="38.88" width="267.212098" height="273.78"/>
  </clipPath>
 </defs>
</svg>
