<?xml version="1.0" encoding="utf-8" standalone="no"?>
<!DOCTYPE svg PUBLIC "-//W3C//DTD SVG 1.1//EN"
  "http://www.w3.org/Graphics/SVG/1.1/DTD/svg11.dtd">
<svg xmlns:xlink="http://www.w3.org/1999/xlink" width="720pt" height="432pt" viewBox="0 0 720 432" xmlns="http://www.w3.org/2000/svg" version="1.1">
 <metadata>
  <rdf:RDF xmlns:dc="http://purl.org/dc/elements/1.1/" xmlns:cc="http://creativecommons.org/ns#" xmlns:rdf="http://www.w3.org/1999/02/22-rdf-syntax-ns#">
   <cc:Work>
    <dc:type rdf:resource="http://purl.org/dc/dcmitype/StillImage"/>
    <dc:date>2025-07-17T17:09:02.457970</dc:date>
    <dc:format>image/svg+xml</dc:format>
    <dc:creator>
     <cc:Agent>
      <dc:title>Matplotlib v3.9.0, https://matplotlib.org/</dc:title>
     </cc:Agent>
    </dc:creator>
   </cc:Work>
  </rdf:RDF>
 </metadata>
 <defs>
  <style type="text/css">*{stroke-linejoin: round; stroke-linecap: butt}</style>
 </defs>
 <g id="figure_1">
  <g id="patch_1">
   <path d="M 0 432 
L 720 432 
L 720 0 
L 0 0 
z
" style="fill: #ffffff"/>
  </g>
  <g id="axes_1">
   <g id="patch_2">
    <path d="M 65.55 362.076 
L 603.404455 362.076 
L 603.404455 61.44 
L 65.55 61.44 
z
" style="fill: #ffffff"/>
   </g>
   <g id="matplotlib.axis_1">
    <g id="xtick_1">
     <g id="line2d_1">
      <path d="M 103.999331 362.076 
L 103.999331 61.44 
" clip-path="url(#p39de998936)" style="fill: none; stroke: #cccccc; stroke-width: 1.5; stroke-linecap: round"/>
     </g>
     <g id="text_1">
      <!-- 0.86 -->
      <g style="fill: #262626" transform="translate(90.639956 383.694125) scale(0.12 -0.12)">
       <defs>
        <path id="DejaVuSans-30" d="M 2034 4250 
Q 1547 4250 1301 3770 
Q 1056 3291 1056 2328 
Q 1056 1369 1301 889 
Q 1547 409 2034 409 
Q 2525 409 2770 889 
Q 3016 1369 3016 2328 
Q 3016 3291 2770 3770 
Q 2525 4250 2034 4250 
z
M 2034 4750 
Q 2819 4750 3233 4129 
Q 3647 3509 3647 2328 
Q 3647 1150 3233 529 
Q 2819 -91 2034 -91 
Q 1250 -91 836 529 
Q 422 1150 422 2328 
Q 422 3509 836 4129 
Q 1250 4750 2034 4750 
z
" transform="scale(0.015625)"/>
        <path id="DejaVuSans-2e" d="M 684 794 
L 1344 794 
L 1344 0 
L 684 0 
L 684 794 
z
" transform="scale(0.015625)"/>
        <path id="DejaVuSans-38" d="M 2034 2216 
Q 1584 2216 1326 1975 
Q 1069 1734 1069 1313 
Q 1069 891 1326 650 
Q 1584 409 2034 409 
Q 2484 409 2743 651 
Q 3003 894 3003 1313 
Q 3003 1734 2745 1975 
Q 2488 2216 2034 2216 
z
M 1403 2484 
Q 997 2584 770 2862 
Q 544 3141 544 3541 
Q 544 4100 942 4425 
Q 1341 4750 2034 4750 
Q 2731 4750 3128 4425 
Q 3525 4100 3525 3541 
Q 3525 3141 3298 2862 
Q 3072 2584 2669 2484 
Q 3125 2378 3379 2068 
Q 3634 1759 3634 1313 
Q 3634 634 3220 271 
Q 2806 -91 2034 -91 
Q 1263 -91 848 271 
Q 434 634 434 1313 
Q 434 1759 690 2068 
Q 947 2378 1403 2484 
z
M 1172 3481 
Q 1172 3119 1398 2916 
Q 1625 2713 2034 2713 
Q 2441 2713 2670 2916 
Q 2900 3119 2900 3481 
Q 2900 3844 2670 4047 
Q 2441 4250 2034 4250 
Q 1625 4250 1398 4047 
Q 1172 3844 1172 3481 
z
" transform="scale(0.015625)"/>
        <path id="DejaVuSans-36" d="M 2113 2584 
Q 1688 2584 1439 2293 
Q 1191 2003 1191 1497 
Q 1191 994 1439 701 
Q 1688 409 2113 409 
Q 2538 409 2786 701 
Q 3034 994 3034 1497 
Q 3034 2003 2786 2293 
Q 2538 2584 2113 2584 
z
M 3366 4563 
L 3366 3988 
Q 3128 4100 2886 4159 
Q 2644 4219 2406 4219 
Q 1781 4219 1451 3797 
Q 1122 3375 1075 2522 
Q 1259 2794 1537 2939 
Q 1816 3084 2150 3084 
Q 2853 3084 3261 2657 
Q 3669 2231 3669 1497 
Q 3669 778 3244 343 
Q 2819 -91 2113 -91 
Q 1303 -91 875 529 
Q 447 1150 447 2328 
Q 447 3434 972 4092 
Q 1497 4750 2381 4750 
Q 2619 4750 2861 4703 
Q 3103 4656 3366 4563 
z
" transform="scale(0.015625)"/>
       </defs>
       <use xlink:href="#DejaVuSans-30"/>
       <use xlink:href="#DejaVuSans-2e" x="63.623047"/>
       <use xlink:href="#DejaVuSans-38" x="95.410156"/>
       <use xlink:href="#DejaVuSans-36" x="159.033203"/>
      </g>
     </g>
    </g>
    <g id="xtick_2">
     <g id="line2d_2">
      <path d="M 177.708748 362.076 
L 177.708748 61.44 
" clip-path="url(#p39de998936)" style="fill: none; stroke: #cccccc; stroke-width: 1.5; stroke-linecap: round"/>
     </g>
     <g id="text_2">
      <!-- 0.88 -->
      <g style="fill: #262626" transform="translate(164.349373 383.694125) scale(0.12 -0.12)">
       <use xlink:href="#DejaVuSans-30"/>
       <use xlink:href="#DejaVuSans-2e" x="63.623047"/>
       <use xlink:href="#DejaVuSans-38" x="95.410156"/>
       <use xlink:href="#DejaVuSans-38" x="159.033203"/>
      </g>
     </g>
    </g>
    <g id="xtick_3">
     <g id="line2d_3">
      <path d="M 251.418164 362.076 
L 251.418164 61.44 
" clip-path="url(#p39de998936)" style="fill: none; stroke: #cccccc; stroke-width: 1.5; stroke-linecap: round"/>
     </g>
     <g id="text_3">
      <!-- 0.90 -->
      <g style="fill: #262626" transform="translate(238.058789 383.694125) scale(0.12 -0.12)">
       <defs>
        <path id="DejaVuSans-39" d="M 703 97 
L 703 672 
Q 941 559 1184 500 
Q 1428 441 1663 441 
Q 2288 441 2617 861 
Q 2947 1281 2994 2138 
Q 2813 1869 2534 1725 
Q 2256 1581 1919 1581 
Q 1219 1581 811 2004 
Q 403 2428 403 3163 
Q 403 3881 828 4315 
Q 1253 4750 1959 4750 
Q 2769 4750 3195 4129 
Q 3622 3509 3622 2328 
Q 3622 1225 3098 567 
Q 2575 -91 1691 -91 
Q 1453 -91 1209 -44 
Q 966 3 703 97 
z
M 1959 2075 
Q 2384 2075 2632 2365 
Q 2881 2656 2881 3163 
Q 2881 3666 2632 3958 
Q 2384 4250 1959 4250 
Q 1534 4250 1286 3958 
Q 1038 3666 1038 3163 
Q 1038 2656 1286 2365 
Q 1534 2075 1959 2075 
z
" transform="scale(0.015625)"/>
       </defs>
       <use xlink:href="#DejaVuSans-30"/>
       <use xlink:href="#DejaVuSans-2e" x="63.623047"/>
       <use xlink:href="#DejaVuSans-39" x="95.410156"/>
       <use xlink:href="#DejaVuSans-30" x="159.033203"/>
      </g>
     </g>
    </g>
    <g id="xtick_4">
     <g id="line2d_4">
      <path d="M 325.127581 362.076 
L 325.127581 61.44 
" clip-path="url(#p39de998936)" style="fill: none; stroke: #cccccc; stroke-width: 1.5; stroke-linecap: round"/>
     </g>
     <g id="text_4">
      <!-- 0.92 -->
      <g style="fill: #262626" transform="translate(311.768206 383.694125) scale(0.12 -0.12)">
       <defs>
        <path id="DejaVuSans-32" d="M 1228 531 
L 3431 531 
L 3431 0 
L 469 0 
L 469 531 
Q 828 903 1448 1529 
Q 2069 2156 2228 2338 
Q 2531 2678 2651 2914 
Q 2772 3150 2772 3378 
Q 2772 3750 2511 3984 
Q 2250 4219 1831 4219 
Q 1534 4219 1204 4116 
Q 875 4013 500 3803 
L 500 4441 
Q 881 4594 1212 4672 
Q 1544 4750 1819 4750 
Q 2544 4750 2975 4387 
Q 3406 4025 3406 3419 
Q 3406 3131 3298 2873 
Q 3191 2616 2906 2266 
Q 2828 2175 2409 1742 
Q 1991 1309 1228 531 
z
" transform="scale(0.015625)"/>
       </defs>
       <use xlink:href="#DejaVuSans-30"/>
       <use xlink:href="#DejaVuSans-2e" x="63.623047"/>
       <use xlink:href="#DejaVuSans-39" x="95.410156"/>
       <use xlink:href="#DejaVuSans-32" x="159.033203"/>
      </g>
     </g>
    </g>
    <g id="xtick_5">
     <g id="line2d_5">
      <path d="M 398.836997 362.076 
L 398.836997 61.44 
" clip-path="url(#p39de998936)" style="fill: none; stroke: #cccccc; stroke-width: 1.5; stroke-linecap: round"/>
     </g>
     <g id="text_5">
      <!-- 0.94 -->
      <g style="fill: #262626" transform="translate(385.477622 383.694125) scale(0.12 -0.12)">
       <defs>
        <path id="DejaVuSans-34" d="M 2419 4116 
L 825 1625 
L 2419 1625 
L 2419 4116 
z
M 2253 4666 
L 3047 4666 
L 3047 1625 
L 3713 1625 
L 3713 1100 
L 3047 1100 
L 3047 0 
L 2419 0 
L 2419 1100 
L 313 1100 
L 313 1709 
L 2253 4666 
z
" transform="scale(0.015625)"/>
       </defs>
       <use xlink:href="#DejaVuSans-30"/>
       <use xlink:href="#DejaVuSans-2e" x="63.623047"/>
       <use xlink:href="#DejaVuSans-39" x="95.410156"/>
       <use xlink:href="#DejaVuSans-34" x="159.033203"/>
      </g>
     </g>
    </g>
    <g id="xtick_6">
     <g id="line2d_6">
      <path d="M 472.546414 362.076 
L 472.546414 61.44 
" clip-path="url(#p39de998936)" style="fill: none; stroke: #cccccc; stroke-width: 1.5; stroke-linecap: round"/>
     </g>
     <g id="text_6">
      <!-- 0.96 -->
      <g style="fill: #262626" transform="translate(459.187039 383.694125) scale(0.12 -0.12)">
       <use xlink:href="#DejaVuSans-30"/>
       <use xlink:href="#DejaVuSans-2e" x="63.623047"/>
       <use xlink:href="#DejaVuSans-39" x="95.410156"/>
       <use xlink:href="#DejaVuSans-36" x="159.033203"/>
      </g>
     </g>
    </g>
    <g id="xtick_7">
     <g id="line2d_7">
      <path d="M 546.25583 362.076 
L 546.25583 61.44 
" clip-path="url(#p39de998936)" style="fill: none; stroke: #cccccc; stroke-width: 1.5; stroke-linecap: round"/>
     </g>
     <g id="text_7">
      <!-- 0.98 -->
      <g style="fill: #262626" transform="translate(532.896455 383.694125) scale(0.12 -0.12)">
       <use xlink:href="#DejaVuSans-30"/>
       <use xlink:href="#DejaVuSans-2e" x="63.623047"/>
       <use xlink:href="#DejaVuSans-39" x="95.410156"/>
       <use xlink:href="#DejaVuSans-38" x="159.033203"/>
      </g>
     </g>
    </g>
    <g id="text_8">
     <!-- Bootstrap Inter-Replicate $R^2$ -->
     <g style="fill: #262626" transform="translate(221.437228 404.74975) scale(0.16 -0.16)">
      <defs>
       <path id="DejaVuSans-42" d="M 1259 2228 
L 1259 519 
L 2272 519 
Q 2781 519 3026 730 
Q 3272 941 3272 1375 
Q 3272 1813 3026 2020 
Q 2781 2228 2272 2228 
L 1259 2228 
z
M 1259 4147 
L 1259 2741 
L 2194 2741 
Q 2656 2741 2882 2914 
Q 3109 3088 3109 3444 
Q 3109 3797 2882 3972 
Q 2656 4147 2194 4147 
L 1259 4147 
z
M 628 4666 
L 2241 4666 
Q 2963 4666 3353 4366 
Q 3744 4066 3744 3513 
Q 3744 3084 3544 2831 
Q 3344 2578 2956 2516 
Q 3422 2416 3680 2098 
Q 3938 1781 3938 1306 
Q 3938 681 3513 340 
Q 3088 0 2303 0 
L 628 0 
L 628 4666 
z
" transform="scale(0.015625)"/>
       <path id="DejaVuSans-6f" d="M 1959 3097 
Q 1497 3097 1228 2736 
Q 959 2375 959 1747 
Q 959 1119 1226 758 
Q 1494 397 1959 397 
Q 2419 397 2687 759 
Q 2956 1122 2956 1747 
Q 2956 2369 2687 2733 
Q 2419 3097 1959 3097 
z
M 1959 3584 
Q 2709 3584 3137 3096 
Q 3566 2609 3566 1747 
Q 3566 888 3137 398 
Q 2709 -91 1959 -91 
Q 1206 -91 779 398 
Q 353 888 353 1747 
Q 353 2609 779 3096 
Q 1206 3584 1959 3584 
z
" transform="scale(0.015625)"/>
       <path id="DejaVuSans-74" d="M 1172 4494 
L 1172 3500 
L 2356 3500 
L 2356 3053 
L 1172 3053 
L 1172 1153 
Q 1172 725 1289 603 
Q 1406 481 1766 481 
L 2356 481 
L 2356 0 
L 1766 0 
Q 1100 0 847 248 
Q 594 497 594 1153 
L 594 3053 
L 172 3053 
L 172 3500 
L 594 3500 
L 594 4494 
L 1172 4494 
z
" transform="scale(0.015625)"/>
       <path id="DejaVuSans-73" d="M 2834 3397 
L 2834 2853 
Q 2591 2978 2328 3040 
Q 2066 3103 1784 3103 
Q 1356 3103 1142 2972 
Q 928 2841 928 2578 
Q 928 2378 1081 2264 
Q 1234 2150 1697 2047 
L 1894 2003 
Q 2506 1872 2764 1633 
Q 3022 1394 3022 966 
Q 3022 478 2636 193 
Q 2250 -91 1575 -91 
Q 1294 -91 989 -36 
Q 684 19 347 128 
L 347 722 
Q 666 556 975 473 
Q 1284 391 1588 391 
Q 1994 391 2212 530 
Q 2431 669 2431 922 
Q 2431 1156 2273 1281 
Q 2116 1406 1581 1522 
L 1381 1569 
Q 847 1681 609 1914 
Q 372 2147 372 2553 
Q 372 3047 722 3315 
Q 1072 3584 1716 3584 
Q 2034 3584 2315 3537 
Q 2597 3491 2834 3397 
z
" transform="scale(0.015625)"/>
       <path id="DejaVuSans-72" d="M 2631 2963 
Q 2534 3019 2420 3045 
Q 2306 3072 2169 3072 
Q 1681 3072 1420 2755 
Q 1159 2438 1159 1844 
L 1159 0 
L 581 0 
L 581 3500 
L 1159 3500 
L 1159 2956 
Q 1341 3275 1631 3429 
Q 1922 3584 2338 3584 
Q 2397 3584 2469 3576 
Q 2541 3569 2628 3553 
L 2631 2963 
z
" transform="scale(0.015625)"/>
       <path id="DejaVuSans-61" d="M 2194 1759 
Q 1497 1759 1228 1600 
Q 959 1441 959 1056 
Q 959 750 1161 570 
Q 1363 391 1709 391 
Q 2188 391 2477 730 
Q 2766 1069 2766 1631 
L 2766 1759 
L 2194 1759 
z
M 3341 1997 
L 3341 0 
L 2766 0 
L 2766 531 
Q 2569 213 2275 61 
Q 1981 -91 1556 -91 
Q 1019 -91 701 211 
Q 384 513 384 1019 
Q 384 1609 779 1909 
Q 1175 2209 1959 2209 
L 2766 2209 
L 2766 2266 
Q 2766 2663 2505 2880 
Q 2244 3097 1772 3097 
Q 1472 3097 1187 3025 
Q 903 2953 641 2809 
L 641 3341 
Q 956 3463 1253 3523 
Q 1550 3584 1831 3584 
Q 2591 3584 2966 3190 
Q 3341 2797 3341 1997 
z
" transform="scale(0.015625)"/>
       <path id="DejaVuSans-70" d="M 1159 525 
L 1159 -1331 
L 581 -1331 
L 581 3500 
L 1159 3500 
L 1159 2969 
Q 1341 3281 1617 3432 
Q 1894 3584 2278 3584 
Q 2916 3584 3314 3078 
Q 3713 2572 3713 1747 
Q 3713 922 3314 415 
Q 2916 -91 2278 -91 
Q 1894 -91 1617 61 
Q 1341 213 1159 525 
z
M 3116 1747 
Q 3116 2381 2855 2742 
Q 2594 3103 2138 3103 
Q 1681 3103 1420 2742 
Q 1159 2381 1159 1747 
Q 1159 1113 1420 752 
Q 1681 391 2138 391 
Q 2594 391 2855 752 
Q 3116 1113 3116 1747 
z
" transform="scale(0.015625)"/>
       <path id="DejaVuSans-20" transform="scale(0.015625)"/>
       <path id="DejaVuSans-49" d="M 628 4666 
L 1259 4666 
L 1259 0 
L 628 0 
L 628 4666 
z
" transform="scale(0.015625)"/>
       <path id="DejaVuSans-6e" d="M 3513 2113 
L 3513 0 
L 2938 0 
L 2938 2094 
Q 2938 2591 2744 2837 
Q 2550 3084 2163 3084 
Q 1697 3084 1428 2787 
Q 1159 2491 1159 1978 
L 1159 0 
L 581 0 
L 581 3500 
L 1159 3500 
L 1159 2956 
Q 1366 3272 1645 3428 
Q 1925 3584 2291 3584 
Q 2894 3584 3203 3211 
Q 3513 2838 3513 2113 
z
" transform="scale(0.015625)"/>
       <path id="DejaVuSans-65" d="M 3597 1894 
L 3597 1613 
L 953 1613 
Q 991 1019 1311 708 
Q 1631 397 2203 397 
Q 2534 397 2845 478 
Q 3156 559 3463 722 
L 3463 178 
Q 3153 47 2828 -22 
Q 2503 -91 2169 -91 
Q 1331 -91 842 396 
Q 353 884 353 1716 
Q 353 2575 817 3079 
Q 1281 3584 2069 3584 
Q 2775 3584 3186 3129 
Q 3597 2675 3597 1894 
z
M 3022 2063 
Q 3016 2534 2758 2815 
Q 2500 3097 2075 3097 
Q 1594 3097 1305 2825 
Q 1016 2553 972 2059 
L 3022 2063 
z
" transform="scale(0.015625)"/>
       <path id="DejaVuSans-2d" d="M 313 2009 
L 1997 2009 
L 1997 1497 
L 313 1497 
L 313 2009 
z
" transform="scale(0.015625)"/>
       <path id="DejaVuSans-52" d="M 2841 2188 
Q 3044 2119 3236 1894 
Q 3428 1669 3622 1275 
L 4263 0 
L 3584 0 
L 2988 1197 
Q 2756 1666 2539 1819 
Q 2322 1972 1947 1972 
L 1259 1972 
L 1259 0 
L 628 0 
L 628 4666 
L 2053 4666 
Q 2853 4666 3247 4331 
Q 3641 3997 3641 3322 
Q 3641 2881 3436 2590 
Q 3231 2300 2841 2188 
z
M 1259 4147 
L 1259 2491 
L 2053 2491 
Q 2509 2491 2742 2702 
Q 2975 2913 2975 3322 
Q 2975 3731 2742 3939 
Q 2509 4147 2053 4147 
L 1259 4147 
z
" transform="scale(0.015625)"/>
       <path id="DejaVuSans-6c" d="M 603 4863 
L 1178 4863 
L 1178 0 
L 603 0 
L 603 4863 
z
" transform="scale(0.015625)"/>
       <path id="DejaVuSans-69" d="M 603 3500 
L 1178 3500 
L 1178 0 
L 603 0 
L 603 3500 
z
M 603 4863 
L 1178 4863 
L 1178 4134 
L 603 4134 
L 603 4863 
z
" transform="scale(0.015625)"/>
       <path id="DejaVuSans-63" d="M 3122 3366 
L 3122 2828 
Q 2878 2963 2633 3030 
Q 2388 3097 2138 3097 
Q 1578 3097 1268 2742 
Q 959 2388 959 1747 
Q 959 1106 1268 751 
Q 1578 397 2138 397 
Q 2388 397 2633 464 
Q 2878 531 3122 666 
L 3122 134 
Q 2881 22 2623 -34 
Q 2366 -91 2075 -91 
Q 1284 -91 818 406 
Q 353 903 353 1747 
Q 353 2603 823 3093 
Q 1294 3584 2113 3584 
Q 2378 3584 2631 3529 
Q 2884 3475 3122 3366 
z
" transform="scale(0.015625)"/>
       <path id="DejaVuSans-Oblique-52" d="M 1613 4147 
L 1294 2491 
L 2106 2491 
Q 2584 2491 2879 2755 
Q 3175 3019 3175 3444 
Q 3175 3784 2976 3965 
Q 2778 4147 2406 4147 
L 1613 4147 
z
M 2772 2241 
Q 2972 2194 3105 2009 
Q 3238 1825 3413 1275 
L 3809 0 
L 3144 0 
L 2778 1197 
Q 2638 1659 2453 1815 
Q 2269 1972 1888 1972 
L 1191 1972 
L 806 0 
L 172 0 
L 1081 4666 
L 2503 4666 
Q 3150 4666 3495 4373 
Q 3841 4081 3841 3531 
Q 3841 3044 3547 2687 
Q 3253 2331 2772 2241 
z
" transform="scale(0.015625)"/>
      </defs>
      <use xlink:href="#DejaVuSans-42" transform="translate(0 0.765625)"/>
      <use xlink:href="#DejaVuSans-6f" transform="translate(68.603516 0.765625)"/>
      <use xlink:href="#DejaVuSans-6f" transform="translate(129.785156 0.765625)"/>
      <use xlink:href="#DejaVuSans-74" transform="translate(190.966797 0.765625)"/>
      <use xlink:href="#DejaVuSans-73" transform="translate(230.175781 0.765625)"/>
      <use xlink:href="#DejaVuSans-74" transform="translate(282.275391 0.765625)"/>
      <use xlink:href="#DejaVuSans-72" transform="translate(321.484375 0.765625)"/>
      <use xlink:href="#DejaVuSans-61" transform="translate(362.597656 0.765625)"/>
      <use xlink:href="#DejaVuSans-70" transform="translate(423.876953 0.765625)"/>
      <use xlink:href="#DejaVuSans-20" transform="translate(487.353516 0.765625)"/>
      <use xlink:href="#DejaVuSans-49" transform="translate(519.140625 0.765625)"/>
      <use xlink:href="#DejaVuSans-6e" transform="translate(548.632812 0.765625)"/>
      <use xlink:href="#DejaVuSans-74" transform="translate(612.011719 0.765625)"/>
      <use xlink:href="#DejaVuSans-65" transform="translate(651.220703 0.765625)"/>
      <use xlink:href="#DejaVuSans-72" transform="translate(712.744141 0.765625)"/>
      <use xlink:href="#DejaVuSans-2d" transform="translate(753.857422 0.765625)"/>
      <use xlink:href="#DejaVuSans-52" transform="translate(789.941406 0.765625)"/>
      <use xlink:href="#DejaVuSans-65" transform="translate(859.423828 0.765625)"/>
      <use xlink:href="#DejaVuSans-70" transform="translate(920.947266 0.765625)"/>
      <use xlink:href="#DejaVuSans-6c" transform="translate(984.423828 0.765625)"/>
      <use xlink:href="#DejaVuSans-69" transform="translate(1012.207031 0.765625)"/>
      <use xlink:href="#DejaVuSans-63" transform="translate(1039.990234 0.765625)"/>
      <use xlink:href="#DejaVuSans-61" transform="translate(1094.970703 0.765625)"/>
      <use xlink:href="#DejaVuSans-74" transform="translate(1156.25 0.765625)"/>
      <use xlink:href="#DejaVuSans-65" transform="translate(1195.458984 0.765625)"/>
      <use xlink:href="#DejaVuSans-20" transform="translate(1256.982422 0.765625)"/>
      <use xlink:href="#DejaVuSans-Oblique-52" transform="translate(1288.769531 0.765625)"/>
      <use xlink:href="#DejaVuSans-32" transform="translate(1365.268724 39.046875) scale(0.7)"/>
     </g>
    </g>
   </g>
   <g id="matplotlib.axis_2">
    <g id="ytick_1">
     <g id="line2d_8">
      <path d="M 65.55 362.076 
L 603.404455 362.076 
" clip-path="url(#p39de998936)" style="fill: none; stroke: #cccccc; stroke-width: 1.5; stroke-linecap: round"/>
     </g>
     <g id="text_9">
      <!-- 0 -->
      <g style="fill: #262626" transform="translate(45.415 366.635063) scale(0.12 -0.12)">
       <use xlink:href="#DejaVuSans-30"/>
      </g>
     </g>
    </g>
    <g id="ytick_2">
     <g id="line2d_9">
      <path d="M 65.55 298.449333 
L 603.404455 298.449333 
" clip-path="url(#p39de998936)" style="fill: none; stroke: #cccccc; stroke-width: 1.5; stroke-linecap: round"/>
     </g>
     <g id="text_10">
      <!-- 20 -->
      <g style="fill: #262626" transform="translate(37.78 303.008396) scale(0.12 -0.12)">
       <use xlink:href="#DejaVuSans-32"/>
       <use xlink:href="#DejaVuSans-30" x="63.623047"/>
      </g>
     </g>
    </g>
    <g id="ytick_3">
     <g id="line2d_10">
      <path d="M 65.55 234.822667 
L 603.404455 234.822667 
" clip-path="url(#p39de998936)" style="fill: none; stroke: #cccccc; stroke-width: 1.5; stroke-linecap: round"/>
     </g>
     <g id="text_11">
      <!-- 40 -->
      <g style="fill: #262626" transform="translate(37.78 239.381729) scale(0.12 -0.12)">
       <use xlink:href="#DejaVuSans-34"/>
       <use xlink:href="#DejaVuSans-30" x="63.623047"/>
      </g>
     </g>
    </g>
    <g id="ytick_4">
     <g id="line2d_11">
      <path d="M 65.55 171.196 
L 603.404455 171.196 
" clip-path="url(#p39de998936)" style="fill: none; stroke: #cccccc; stroke-width: 1.5; stroke-linecap: round"/>
     </g>
     <g id="text_12">
      <!-- 60 -->
      <g style="fill: #262626" transform="translate(37.78 175.755062) scale(0.12 -0.12)">
       <use xlink:href="#DejaVuSans-36"/>
       <use xlink:href="#DejaVuSans-30" x="63.623047"/>
      </g>
     </g>
    </g>
    <g id="ytick_5">
     <g id="line2d_12">
      <path d="M 65.55 107.569333 
L 603.404455 107.569333 
" clip-path="url(#p39de998936)" style="fill: none; stroke: #cccccc; stroke-width: 1.5; stroke-linecap: round"/>
     </g>
     <g id="text_13">
      <!-- 80 -->
      <g style="fill: #262626" transform="translate(37.78 112.128396) scale(0.12 -0.12)">
       <use xlink:href="#DejaVuSans-38"/>
       <use xlink:href="#DejaVuSans-30" x="63.623047"/>
      </g>
     </g>
    </g>
    <g id="text_14">
     <!-- Frequency -->
     <g style="fill: #262626" transform="translate(30.4525 253.0855) rotate(-90) scale(0.16 -0.16)">
      <defs>
       <path id="DejaVuSans-46" d="M 628 4666 
L 3309 4666 
L 3309 4134 
L 1259 4134 
L 1259 2759 
L 3109 2759 
L 3109 2228 
L 1259 2228 
L 1259 0 
L 628 0 
L 628 4666 
z
" transform="scale(0.015625)"/>
       <path id="DejaVuSans-71" d="M 947 1747 
Q 947 1113 1208 752 
Q 1469 391 1925 391 
Q 2381 391 2643 752 
Q 2906 1113 2906 1747 
Q 2906 2381 2643 2742 
Q 2381 3103 1925 3103 
Q 1469 3103 1208 2742 
Q 947 2381 947 1747 
z
M 2906 525 
Q 2725 213 2448 61 
Q 2172 -91 1784 -91 
Q 1150 -91 751 415 
Q 353 922 353 1747 
Q 353 2572 751 3078 
Q 1150 3584 1784 3584 
Q 2172 3584 2448 3432 
Q 2725 3281 2906 2969 
L 2906 3500 
L 3481 3500 
L 3481 -1331 
L 2906 -1331 
L 2906 525 
z
" transform="scale(0.015625)"/>
       <path id="DejaVuSans-75" d="M 544 1381 
L 544 3500 
L 1119 3500 
L 1119 1403 
Q 1119 906 1312 657 
Q 1506 409 1894 409 
Q 2359 409 2629 706 
Q 2900 1003 2900 1516 
L 2900 3500 
L 3475 3500 
L 3475 0 
L 2900 0 
L 2900 538 
Q 2691 219 2414 64 
Q 2138 -91 1772 -91 
Q 1169 -91 856 284 
Q 544 659 544 1381 
z
M 1991 3584 
L 1991 3584 
z
" transform="scale(0.015625)"/>
       <path id="DejaVuSans-79" d="M 2059 -325 
Q 1816 -950 1584 -1140 
Q 1353 -1331 966 -1331 
L 506 -1331 
L 506 -850 
L 844 -850 
Q 1081 -850 1212 -737 
Q 1344 -625 1503 -206 
L 1606 56 
L 191 3500 
L 800 3500 
L 1894 763 
L 2988 3500 
L 3597 3500 
L 2059 -325 
z
" transform="scale(0.015625)"/>
      </defs>
      <use xlink:href="#DejaVuSans-46"/>
      <use xlink:href="#DejaVuSans-72" x="50.269531"/>
      <use xlink:href="#DejaVuSans-65" x="89.132812"/>
      <use xlink:href="#DejaVuSans-71" x="150.65625"/>
      <use xlink:href="#DejaVuSans-75" x="214.132812"/>
      <use xlink:href="#DejaVuSans-65" x="277.511719"/>
      <use xlink:href="#DejaVuSans-6e" x="339.035156"/>
      <use xlink:href="#DejaVuSans-63" x="402.414062"/>
      <use xlink:href="#DejaVuSans-79" x="457.394531"/>
     </g>
    </g>
   </g>
   <g id="patch_3">
    <path d="M 89.99793 362.076 
L 106.29655 362.076 
L 106.29655 358.894667 
L 89.99793 358.894667 
z
" clip-path="url(#p39de998936)" style="fill: #4c72b0; fill-opacity: 0.5; stroke: #ffffff; stroke-width: 1.2; stroke-linejoin: miter"/>
   </g>
   <g id="patch_4">
    <path d="M 106.29655 362.076 
L 122.595169 362.076 
L 122.595169 362.076 
L 106.29655 362.076 
z
" clip-path="url(#p39de998936)" style="fill: #4c72b0; fill-opacity: 0.5; stroke: #ffffff; stroke-width: 1.2; stroke-linejoin: miter"/>
   </g>
   <g id="patch_5">
    <path d="M 122.595169 362.076 
L 138.893789 362.076 
L 138.893789 352.532 
L 122.595169 352.532 
z
" clip-path="url(#p39de998936)" style="fill: #4c72b0; fill-opacity: 0.5; stroke: #ffffff; stroke-width: 1.2; stroke-linejoin: miter"/>
   </g>
   <g id="patch_6">
    <path d="M 138.893789 362.076 
L 155.192409 362.076 
L 155.192409 362.076 
L 138.893789 362.076 
z
" clip-path="url(#p39de998936)" style="fill: #4c72b0; fill-opacity: 0.5; stroke: #ffffff; stroke-width: 1.2; stroke-linejoin: miter"/>
   </g>
   <g id="patch_7">
    <path d="M 155.192409 362.076 
L 171.491029 362.076 
L 171.491029 362.076 
L 155.192409 362.076 
z
" clip-path="url(#p39de998936)" style="fill: #4c72b0; fill-opacity: 0.5; stroke: #ffffff; stroke-width: 1.2; stroke-linejoin: miter"/>
   </g>
   <g id="patch_8">
    <path d="M 171.491029 362.076 
L 187.789649 362.076 
L 187.789649 362.076 
L 171.491029 362.076 
z
" clip-path="url(#p39de998936)" style="fill: #4c72b0; fill-opacity: 0.5; stroke: #ffffff; stroke-width: 1.2; stroke-linejoin: miter"/>
   </g>
   <g id="patch_9">
    <path d="M 187.789649 362.076 
L 204.088269 362.076 
L 204.088269 362.076 
L 187.789649 362.076 
z
" clip-path="url(#p39de998936)" style="fill: #4c72b0; fill-opacity: 0.5; stroke: #ffffff; stroke-width: 1.2; stroke-linejoin: miter"/>
   </g>
   <g id="patch_10">
    <path d="M 204.088269 362.076 
L 220.386889 362.076 
L 220.386889 362.076 
L 204.088269 362.076 
z
" clip-path="url(#p39de998936)" style="fill: #4c72b0; fill-opacity: 0.5; stroke: #ffffff; stroke-width: 1.2; stroke-linejoin: miter"/>
   </g>
   <g id="patch_11">
    <path d="M 220.386889 362.076 
L 236.685508 362.076 
L 236.685508 362.076 
L 220.386889 362.076 
z
" clip-path="url(#p39de998936)" style="fill: #4c72b0; fill-opacity: 0.5; stroke: #ffffff; stroke-width: 1.2; stroke-linejoin: miter"/>
   </g>
   <g id="patch_12">
    <path d="M 236.685508 362.076 
L 252.984128 362.076 
L 252.984128 362.076 
L 236.685508 362.076 
z
" clip-path="url(#p39de998936)" style="fill: #4c72b0; fill-opacity: 0.5; stroke: #ffffff; stroke-width: 1.2; stroke-linejoin: miter"/>
   </g>
   <g id="patch_13">
    <path d="M 252.984128 362.076 
L 269.282748 362.076 
L 269.282748 362.076 
L 252.984128 362.076 
z
" clip-path="url(#p39de998936)" style="fill: #4c72b0; fill-opacity: 0.5; stroke: #ffffff; stroke-width: 1.2; stroke-linejoin: miter"/>
   </g>
   <g id="patch_14">
    <path d="M 269.282748 362.076 
L 285.581368 362.076 
L 285.581368 346.169333 
L 269.282748 346.169333 
z
" clip-path="url(#p39de998936)" style="fill: #4c72b0; fill-opacity: 0.5; stroke: #ffffff; stroke-width: 1.2; stroke-linejoin: miter"/>
   </g>
   <g id="patch_15">
    <path d="M 285.581368 362.076 
L 301.879988 362.076 
L 301.879988 358.894667 
L 285.581368 358.894667 
z
" clip-path="url(#p39de998936)" style="fill: #4c72b0; fill-opacity: 0.5; stroke: #ffffff; stroke-width: 1.2; stroke-linejoin: miter"/>
   </g>
   <g id="patch_16">
    <path d="M 301.879988 362.076 
L 318.178608 362.076 
L 318.178608 362.076 
L 301.879988 362.076 
z
" clip-path="url(#p39de998936)" style="fill: #4c72b0; fill-opacity: 0.5; stroke: #ffffff; stroke-width: 1.2; stroke-linejoin: miter"/>
   </g>
   <g id="patch_17">
    <path d="M 318.178608 362.076 
L 334.477228 362.076 
L 334.477228 362.076 
L 318.178608 362.076 
z
" clip-path="url(#p39de998936)" style="fill: #4c72b0; fill-opacity: 0.5; stroke: #ffffff; stroke-width: 1.2; stroke-linejoin: miter"/>
   </g>
   <g id="patch_18">
    <path d="M 334.477228 362.076 
L 350.775847 362.076 
L 350.775847 362.076 
L 334.477228 362.076 
z
" clip-path="url(#p39de998936)" style="fill: #4c72b0; fill-opacity: 0.5; stroke: #ffffff; stroke-width: 1.2; stroke-linejoin: miter"/>
   </g>
   <g id="patch_19">
    <path d="M 350.775847 362.076 
L 367.074467 362.076 
L 367.074467 362.076 
L 350.775847 362.076 
z
" clip-path="url(#p39de998936)" style="fill: #4c72b0; fill-opacity: 0.5; stroke: #ffffff; stroke-width: 1.2; stroke-linejoin: miter"/>
   </g>
   <g id="patch_20">
    <path d="M 367.074467 362.076 
L 383.373087 362.076 
L 383.373087 362.076 
L 367.074467 362.076 
z
" clip-path="url(#p39de998936)" style="fill: #4c72b0; fill-opacity: 0.5; stroke: #ffffff; stroke-width: 1.2; stroke-linejoin: miter"/>
   </g>
   <g id="patch_21">
    <path d="M 383.373087 362.076 
L 399.671707 362.076 
L 399.671707 362.076 
L 383.373087 362.076 
z
" clip-path="url(#p39de998936)" style="fill: #4c72b0; fill-opacity: 0.5; stroke: #ffffff; stroke-width: 1.2; stroke-linejoin: miter"/>
   </g>
   <g id="patch_22">
    <path d="M 399.671707 362.076 
L 415.970327 362.076 
L 415.970327 362.076 
L 399.671707 362.076 
z
" clip-path="url(#p39de998936)" style="fill: #4c72b0; fill-opacity: 0.5; stroke: #ffffff; stroke-width: 1.2; stroke-linejoin: miter"/>
   </g>
   <g id="patch_23">
    <path d="M 415.970327 362.076 
L 432.268947 362.076 
L 432.268947 346.169333 
L 415.970327 346.169333 
z
" clip-path="url(#p39de998936)" style="fill: #4c72b0; fill-opacity: 0.5; stroke: #ffffff; stroke-width: 1.2; stroke-linejoin: miter"/>
   </g>
   <g id="patch_24">
    <path d="M 432.268947 362.076 
L 448.567566 362.076 
L 448.567566 346.169333 
L 432.268947 346.169333 
z
" clip-path="url(#p39de998936)" style="fill: #4c72b0; fill-opacity: 0.5; stroke: #ffffff; stroke-width: 1.2; stroke-linejoin: miter"/>
   </g>
   <g id="patch_25">
    <path d="M 448.567566 362.076 
L 464.866186 362.076 
L 464.866186 260.273333 
L 448.567566 260.273333 
z
" clip-path="url(#p39de998936)" style="fill: #4c72b0; fill-opacity: 0.5; stroke: #ffffff; stroke-width: 1.2; stroke-linejoin: miter"/>
   </g>
   <g id="patch_26">
    <path d="M 464.866186 362.076 
L 481.164806 362.076 
L 481.164806 203.009333 
L 464.866186 203.009333 
z
" clip-path="url(#p39de998936)" style="fill: #4c72b0; fill-opacity: 0.5; stroke: #ffffff; stroke-width: 1.2; stroke-linejoin: miter"/>
   </g>
   <g id="patch_27">
    <path d="M 481.164806 362.076 
L 497.463426 362.076 
L 497.463426 155.289333 
L 481.164806 155.289333 
z
" clip-path="url(#p39de998936)" style="fill: #4c72b0; fill-opacity: 0.5; stroke: #ffffff; stroke-width: 1.2; stroke-linejoin: miter"/>
   </g>
   <g id="patch_28">
    <path d="M 497.463426 362.076 
L 513.762046 362.076 
L 513.762046 98.025333 
L 497.463426 98.025333 
z
" clip-path="url(#p39de998936)" style="fill: #4c72b0; fill-opacity: 0.5; stroke: #ffffff; stroke-width: 1.2; stroke-linejoin: miter"/>
   </g>
   <g id="patch_29">
    <path d="M 513.762046 362.076 
L 530.060666 362.076 
L 530.060666 123.476 
L 513.762046 123.476 
z
" clip-path="url(#p39de998936)" style="fill: #4c72b0; fill-opacity: 0.5; stroke: #ffffff; stroke-width: 1.2; stroke-linejoin: miter"/>
   </g>
   <g id="patch_30">
    <path d="M 530.060666 362.076 
L 546.359286 362.076 
L 546.359286 75.756 
L 530.060666 75.756 
z
" clip-path="url(#p39de998936)" style="fill: #4c72b0; fill-opacity: 0.5; stroke: #ffffff; stroke-width: 1.2; stroke-linejoin: miter"/>
   </g>
   <g id="patch_31">
    <path d="M 546.359286 362.076 
L 562.657905 362.076 
L 562.657905 145.745333 
L 546.359286 145.745333 
z
" clip-path="url(#p39de998936)" style="fill: #4c72b0; fill-opacity: 0.5; stroke: #ffffff; stroke-width: 1.2; stroke-linejoin: miter"/>
   </g>
   <g id="patch_32">
    <path d="M 562.657905 362.076 
L 578.956525 362.076 
L 578.956525 307.993333 
L 562.657905 307.993333 
z
" clip-path="url(#p39de998936)" style="fill: #4c72b0; fill-opacity: 0.5; stroke: #ffffff; stroke-width: 1.2; stroke-linejoin: miter"/>
   </g>
   <g id="line2d_13">
    <path d="M 89.99793 360.549202 
L 102.283322 360.116648 
L 109.654557 359.55603 
L 121.939949 358.320969 
L 126.854105 358.097571 
L 131.768262 358.199646 
L 136.682419 358.625121 
L 144.053654 359.643982 
L 151.424889 360.69214 
L 156.339046 361.232795 
L 161.253202 361.609153 
L 168.624438 361.915315 
L 178.452751 362.048297 
L 207.937691 362.075818 
L 234.965554 361.966115 
L 242.336789 361.6927 
L 247.250945 361.296203 
L 252.165102 360.637272 
L 257.079259 359.667522 
L 261.993416 358.415457 
L 271.821729 355.726599 
L 274.278807 355.206103 
L 276.735886 354.813631 
L 279.192964 354.573601 
L 281.650043 354.500602 
L 284.107121 354.597913 
L 286.564199 354.857326 
L 289.021278 355.260255 
L 293.935434 356.384354 
L 306.220826 359.569287 
L 311.134983 360.511155 
L 316.04914 361.174358 
L 320.963296 361.5964 
L 328.334532 361.916059 
L 338.162845 362.048316 
L 365.190707 362.067928 
L 377.476099 361.973807 
L 384.847334 361.720392 
L 389.761491 361.346536 
L 394.675648 360.704291 
L 399.589804 359.700707 
L 402.046883 359.039229 
L 404.503961 358.261842 
L 406.961039 357.363057 
L 409.418118 356.337174 
L 411.875196 355.176189 
L 414.332274 353.867173 
L 416.789353 352.389478 
L 419.246431 350.712284 
L 421.70351 348.793075 
L 424.160588 346.577567 
L 426.617666 344.001481 
L 429.074745 340.994253 
L 431.531823 337.484485 
L 433.988901 333.406569 
L 436.44598 328.707684 
L 438.903058 323.354211 
L 441.360137 317.336645 
L 443.817215 310.672232 
L 446.274293 303.404879 
L 448.731372 295.60221 
L 453.645528 278.744836 
L 461.016764 251.753886 
L 480.67339 179.05135 
L 485.587547 161.669163 
L 488.044626 153.560887 
L 490.501704 146.071864 
L 492.958782 139.378859 
L 495.415861 133.634278 
L 497.872939 128.943419 
L 500.330017 125.346333 
L 502.787096 122.807748 
L 505.244174 121.217234 
L 507.701253 120.400111 
L 510.158331 120.137755 
L 519.986644 120.274949 
L 522.443723 119.893185 
L 529.814958 118.161273 
L 532.272036 118.040059 
L 534.729115 118.591089 
L 537.186193 120.103222 
L 539.643271 122.845463 
L 542.10035 127.044053 
L 544.557428 132.863153 
L 547.014506 140.390408 
L 549.471585 149.628265 
L 551.928663 160.49164 
L 554.385742 172.812037 
L 556.84282 186.347816 
L 561.756977 215.83065 
L 569.128212 260.909835 
L 571.58529 274.874702 
L 574.042368 287.889845 
L 576.499447 299.79054 
L 578.956525 310.473935 
L 578.956525 310.473935 
" clip-path="url(#p39de998936)" style="fill: none; stroke: #4c72b0; stroke-width: 2.25; stroke-linecap: round"/>
   </g>
   <g id="line2d_14">
    <path d="M 507.169405 362.076 
L 507.169405 61.44 
" clip-path="url(#p39de998936)" style="fill: none; stroke-dasharray: 8.325,3.6; stroke-dashoffset: 0; stroke: #ff0000; stroke-width: 2.25"/>
   </g>
   <g id="line2d_15">
    <path d="M 425.694698 362.076 
L 425.694698 61.44 
" clip-path="url(#p39de998936)" style="fill: none; stroke-dasharray: 1,1.65; stroke-dashoffset: 0; stroke: #808080"/>
   </g>
   <g id="line2d_16">
    <path d="M 565.095121 362.076 
L 565.095121 61.44 
" clip-path="url(#p39de998936)" style="fill: none; stroke-dasharray: 1,1.65; stroke-dashoffset: 0; stroke: #808080"/>
   </g>
   <g id="patch_33">
    <path d="M 65.55 362.076 
L 65.55 61.44 
" style="fill: none; stroke: #cccccc; stroke-width: 1.875; stroke-linejoin: miter; stroke-linecap: square"/>
   </g>
   <g id="patch_34">
    <path d="M 603.404455 362.076 
L 603.404455 61.44 
" style="fill: none; stroke: #cccccc; stroke-width: 1.875; stroke-linejoin: miter; stroke-linecap: square"/>
   </g>
   <g id="patch_35">
    <path d="M 65.55 362.076 
L 603.404455 362.076 
" style="fill: none; stroke: #cccccc; stroke-width: 1.875; stroke-linejoin: miter; stroke-linecap: square"/>
   </g>
   <g id="patch_36">
    <path d="M 65.55 61.44 
L 603.404455 61.44 
" style="fill: none; stroke: #cccccc; stroke-width: 1.875; stroke-linejoin: miter; stroke-linecap: square"/>
   </g>
   <g id="text_15">
    <g id="patch_37">
     <path d="M 544.024113 128.678762 
L 702.644113 128.678762 
Q 706.844113 128.678762 706.844113 124.478762 
L 706.844113 95.25245 
Q 706.844113 91.05245 702.644113 91.05245 
L 544.024113 91.05245 
Q 539.824113 91.05245 539.824113 95.25245 
L 539.824113 124.478762 
Q 539.824113 128.678762 544.024113 128.678762 
z
" style="fill: #ffffff; stroke: #808080; stroke-width: 1.5; stroke-linejoin: miter"/>
    </g>
    <!-- Mean $R^2$: 0.969 -->
    <g transform="translate(544.024113 105.890262) scale(0.14 -0.14)">
     <defs>
      <path id="DejaVuSans-4d" d="M 628 4666 
L 1569 4666 
L 2759 1491 
L 3956 4666 
L 4897 4666 
L 4897 0 
L 4281 0 
L 4281 4097 
L 3078 897 
L 2444 897 
L 1241 4097 
L 1241 0 
L 628 0 
L 628 4666 
z
" transform="scale(0.015625)"/>
      <path id="DejaVuSans-3a" d="M 750 794 
L 1409 794 
L 1409 0 
L 750 0 
L 750 794 
z
M 750 3309 
L 1409 3309 
L 1409 2516 
L 750 2516 
L 750 3309 
z
" transform="scale(0.015625)"/>
     </defs>
     <use xlink:href="#DejaVuSans-4d" transform="translate(0 0.765625)"/>
     <use xlink:href="#DejaVuSans-65" transform="translate(86.279297 0.765625)"/>
     <use xlink:href="#DejaVuSans-61" transform="translate(147.802734 0.765625)"/>
     <use xlink:href="#DejaVuSans-6e" transform="translate(209.082031 0.765625)"/>
     <use xlink:href="#DejaVuSans-20" transform="translate(272.460938 0.765625)"/>
     <use xlink:href="#DejaVuSans-Oblique-52" transform="translate(304.248047 0.765625)"/>
     <use xlink:href="#DejaVuSans-32" transform="translate(380.74724 39.046875) scale(0.7)"/>
     <use xlink:href="#DejaVuSans-3a" transform="translate(428.017747 0.765625)"/>
     <use xlink:href="#DejaVuSans-20" transform="translate(461.709154 0.765625)"/>
     <use xlink:href="#DejaVuSans-30" transform="translate(493.496263 0.765625)"/>
     <use xlink:href="#DejaVuSans-2e" transform="translate(557.11931 0.765625)"/>
     <use xlink:href="#DejaVuSans-39" transform="translate(588.906419 0.765625)"/>
     <use xlink:href="#DejaVuSans-36" transform="translate(652.529466 0.765625)"/>
     <use xlink:href="#DejaVuSans-39" transform="translate(716.152513 0.765625)"/>
    </g>
    <!-- 95% CI: [0.947, 0.985] -->
    <g transform="translate(544.024113 121.5672) scale(0.14 -0.14)">
     <defs>
      <path id="DejaVuSans-35" d="M 691 4666 
L 3169 4666 
L 3169 4134 
L 1269 4134 
L 1269 2991 
Q 1406 3038 1543 3061 
Q 1681 3084 1819 3084 
Q 2600 3084 3056 2656 
Q 3513 2228 3513 1497 
Q 3513 744 3044 326 
Q 2575 -91 1722 -91 
Q 1428 -91 1123 -41 
Q 819 9 494 109 
L 494 744 
Q 775 591 1075 516 
Q 1375 441 1709 441 
Q 2250 441 2565 725 
Q 2881 1009 2881 1497 
Q 2881 1984 2565 2268 
Q 2250 2553 1709 2553 
Q 1456 2553 1204 2497 
Q 953 2441 691 2322 
L 691 4666 
z
" transform="scale(0.015625)"/>
      <path id="DejaVuSans-25" d="M 4653 2053 
Q 4381 2053 4226 1822 
Q 4072 1591 4072 1178 
Q 4072 772 4226 539 
Q 4381 306 4653 306 
Q 4919 306 5073 539 
Q 5228 772 5228 1178 
Q 5228 1588 5073 1820 
Q 4919 2053 4653 2053 
z
M 4653 2450 
Q 5147 2450 5437 2106 
Q 5728 1763 5728 1178 
Q 5728 594 5436 251 
Q 5144 -91 4653 -91 
Q 4153 -91 3862 251 
Q 3572 594 3572 1178 
Q 3572 1766 3864 2108 
Q 4156 2450 4653 2450 
z
M 1428 4353 
Q 1159 4353 1004 4120 
Q 850 3888 850 3481 
Q 850 3069 1003 2837 
Q 1156 2606 1428 2606 
Q 1700 2606 1854 2837 
Q 2009 3069 2009 3481 
Q 2009 3884 1853 4118 
Q 1697 4353 1428 4353 
z
M 4250 4750 
L 4750 4750 
L 1831 -91 
L 1331 -91 
L 4250 4750 
z
M 1428 4750 
Q 1922 4750 2215 4408 
Q 2509 4066 2509 3481 
Q 2509 2891 2217 2550 
Q 1925 2209 1428 2209 
Q 931 2209 642 2551 
Q 353 2894 353 3481 
Q 353 4063 643 4406 
Q 934 4750 1428 4750 
z
" transform="scale(0.015625)"/>
      <path id="DejaVuSans-43" d="M 4122 4306 
L 4122 3641 
Q 3803 3938 3442 4084 
Q 3081 4231 2675 4231 
Q 1875 4231 1450 3742 
Q 1025 3253 1025 2328 
Q 1025 1406 1450 917 
Q 1875 428 2675 428 
Q 3081 428 3442 575 
Q 3803 722 4122 1019 
L 4122 359 
Q 3791 134 3420 21 
Q 3050 -91 2638 -91 
Q 1578 -91 968 557 
Q 359 1206 359 2328 
Q 359 3453 968 4101 
Q 1578 4750 2638 4750 
Q 3056 4750 3426 4639 
Q 3797 4528 4122 4306 
z
" transform="scale(0.015625)"/>
      <path id="DejaVuSans-5b" d="M 550 4863 
L 1875 4863 
L 1875 4416 
L 1125 4416 
L 1125 -397 
L 1875 -397 
L 1875 -844 
L 550 -844 
L 550 4863 
z
" transform="scale(0.015625)"/>
      <path id="DejaVuSans-37" d="M 525 4666 
L 3525 4666 
L 3525 4397 
L 1831 0 
L 1172 0 
L 2766 4134 
L 525 4134 
L 525 4666 
z
" transform="scale(0.015625)"/>
      <path id="DejaVuSans-2c" d="M 750 794 
L 1409 794 
L 1409 256 
L 897 -744 
L 494 -744 
L 750 256 
L 750 794 
z
" transform="scale(0.015625)"/>
      <path id="DejaVuSans-5d" d="M 1947 4863 
L 1947 -844 
L 622 -844 
L 622 -397 
L 1369 -397 
L 1369 4416 
L 622 4416 
L 622 4863 
L 1947 4863 
z
" transform="scale(0.015625)"/>
     </defs>
     <use xlink:href="#DejaVuSans-39"/>
     <use xlink:href="#DejaVuSans-35" x="63.623047"/>
     <use xlink:href="#DejaVuSans-25" x="127.246094"/>
     <use xlink:href="#DejaVuSans-20" x="222.265625"/>
     <use xlink:href="#DejaVuSans-43" x="254.052734"/>
     <use xlink:href="#DejaVuSans-49" x="323.876953"/>
     <use xlink:href="#DejaVuSans-3a" x="353.369141"/>
     <use xlink:href="#DejaVuSans-20" x="387.060547"/>
     <use xlink:href="#DejaVuSans-5b" x="418.847656"/>
     <use xlink:href="#DejaVuSans-30" x="457.861328"/>
     <use xlink:href="#DejaVuSans-2e" x="521.484375"/>
     <use xlink:href="#DejaVuSans-39" x="553.271484"/>
     <use xlink:href="#DejaVuSans-34" x="616.894531"/>
     <use xlink:href="#DejaVuSans-37" x="680.517578"/>
     <use xlink:href="#DejaVuSans-2c" x="744.140625"/>
     <use xlink:href="#DejaVuSans-20" x="775.927734"/>
     <use xlink:href="#DejaVuSans-30" x="807.714844"/>
     <use xlink:href="#DejaVuSans-2e" x="871.337891"/>
     <use xlink:href="#DejaVuSans-39" x="903.125"/>
     <use xlink:href="#DejaVuSans-38" x="966.748047"/>
     <use xlink:href="#DejaVuSans-35" x="1030.371094"/>
     <use xlink:href="#DejaVuSans-5d" x="1093.994141"/>
    </g>
   </g>
   <g id="text_16">
    <!-- Distribution of Variant Effect $R^2$ -->
    <g style="fill: #262626" transform="translate(192.007228 35.283937) scale(0.18 -0.18)">
     <defs>
      <path id="DejaVuSans-44" d="M 1259 4147 
L 1259 519 
L 2022 519 
Q 2988 519 3436 956 
Q 3884 1394 3884 2338 
Q 3884 3275 3436 3711 
Q 2988 4147 2022 4147 
L 1259 4147 
z
M 628 4666 
L 1925 4666 
Q 3281 4666 3915 4102 
Q 4550 3538 4550 2338 
Q 4550 1131 3912 565 
Q 3275 0 1925 0 
L 628 0 
L 628 4666 
z
" transform="scale(0.015625)"/>
      <path id="DejaVuSans-62" d="M 3116 1747 
Q 3116 2381 2855 2742 
Q 2594 3103 2138 3103 
Q 1681 3103 1420 2742 
Q 1159 2381 1159 1747 
Q 1159 1113 1420 752 
Q 1681 391 2138 391 
Q 2594 391 2855 752 
Q 3116 1113 3116 1747 
z
M 1159 2969 
Q 1341 3281 1617 3432 
Q 1894 3584 2278 3584 
Q 2916 3584 3314 3078 
Q 3713 2572 3713 1747 
Q 3713 922 3314 415 
Q 2916 -91 2278 -91 
Q 1894 -91 1617 61 
Q 1341 213 1159 525 
L 1159 0 
L 581 0 
L 581 4863 
L 1159 4863 
L 1159 2969 
z
" transform="scale(0.015625)"/>
      <path id="DejaVuSans-66" d="M 2375 4863 
L 2375 4384 
L 1825 4384 
Q 1516 4384 1395 4259 
Q 1275 4134 1275 3809 
L 1275 3500 
L 2222 3500 
L 2222 3053 
L 1275 3053 
L 1275 0 
L 697 0 
L 697 3053 
L 147 3053 
L 147 3500 
L 697 3500 
L 697 3744 
Q 697 4328 969 4595 
Q 1241 4863 1831 4863 
L 2375 4863 
z
" transform="scale(0.015625)"/>
      <path id="DejaVuSans-56" d="M 1831 0 
L 50 4666 
L 709 4666 
L 2188 738 
L 3669 4666 
L 4325 4666 
L 2547 0 
L 1831 0 
z
" transform="scale(0.015625)"/>
      <path id="DejaVuSans-45" d="M 628 4666 
L 3578 4666 
L 3578 4134 
L 1259 4134 
L 1259 2753 
L 3481 2753 
L 3481 2222 
L 1259 2222 
L 1259 531 
L 3634 531 
L 3634 0 
L 628 0 
L 628 4666 
z
" transform="scale(0.015625)"/>
     </defs>
     <use xlink:href="#DejaVuSans-44" transform="translate(0 0.765625)"/>
     <use xlink:href="#DejaVuSans-69" transform="translate(77.001953 0.765625)"/>
     <use xlink:href="#DejaVuSans-73" transform="translate(104.785156 0.765625)"/>
     <use xlink:href="#DejaVuSans-74" transform="translate(156.884766 0.765625)"/>
     <use xlink:href="#DejaVuSans-72" transform="translate(196.09375 0.765625)"/>
     <use xlink:href="#DejaVuSans-69" transform="translate(237.207031 0.765625)"/>
     <use xlink:href="#DejaVuSans-62" transform="translate(264.990234 0.765625)"/>
     <use xlink:href="#DejaVuSans-75" transform="translate(328.466797 0.765625)"/>
     <use xlink:href="#DejaVuSans-74" transform="translate(391.845703 0.765625)"/>
     <use xlink:href="#DejaVuSans-69" transform="translate(431.054688 0.765625)"/>
     <use xlink:href="#DejaVuSans-6f" transform="translate(458.837891 0.765625)"/>
     <use xlink:href="#DejaVuSans-6e" transform="translate(520.019531 0.765625)"/>
     <use xlink:href="#DejaVuSans-20" transform="translate(583.398438 0.765625)"/>
     <use xlink:href="#DejaVuSans-6f" transform="translate(615.185547 0.765625)"/>
     <use xlink:href="#DejaVuSans-66" transform="translate(676.367188 0.765625)"/>
     <use xlink:href="#DejaVuSans-20" transform="translate(711.572266 0.765625)"/>
     <use xlink:href="#DejaVuSans-56" transform="translate(743.359375 0.765625)"/>
     <use xlink:href="#DejaVuSans-61" transform="translate(811.767578 0.765625)"/>
     <use xlink:href="#DejaVuSans-72" transform="translate(873.046875 0.765625)"/>
     <use xlink:href="#DejaVuSans-69" transform="translate(914.160156 0.765625)"/>
     <use xlink:href="#DejaVuSans-61" transform="translate(941.943359 0.765625)"/>
     <use xlink:href="#DejaVuSans-6e" transform="translate(1003.222656 0.765625)"/>
     <use xlink:href="#DejaVuSans-74" transform="translate(1066.601562 0.765625)"/>
     <use xlink:href="#DejaVuSans-20" transform="translate(1105.810547 0.765625)"/>
     <use xlink:href="#DejaVuSans-45" transform="translate(1137.597656 0.765625)"/>
     <use xlink:href="#DejaVuSans-66" transform="translate(1200.78125 0.765625)"/>
     <use xlink:href="#DejaVuSans-66" transform="translate(1235.986328 0.765625)"/>
     <use xlink:href="#DejaVuSans-65" transform="translate(1271.191406 0.765625)"/>
     <use xlink:href="#DejaVuSans-63" transform="translate(1332.714844 0.765625)"/>
     <use xlink:href="#DejaVuSans-74" transform="translate(1387.695312 0.765625)"/>
     <use xlink:href="#DejaVuSans-20" transform="translate(1426.904297 0.765625)"/>
     <use xlink:href="#DejaVuSans-Oblique-52" transform="translate(1458.691406 0.765625)"/>
     <use xlink:href="#DejaVuSans-32" transform="translate(1535.190599 39.046875) scale(0.7)"/>
    </g>
    <!-- from Bootstrapped Replicate Splits -->
    <g style="fill: #262626" transform="translate(177.854728 55.44) scale(0.18 -0.18)">
     <defs>
      <path id="DejaVuSans-6d" d="M 3328 2828 
Q 3544 3216 3844 3400 
Q 4144 3584 4550 3584 
Q 5097 3584 5394 3201 
Q 5691 2819 5691 2113 
L 5691 0 
L 5113 0 
L 5113 2094 
Q 5113 2597 4934 2840 
Q 4756 3084 4391 3084 
Q 3944 3084 3684 2787 
Q 3425 2491 3425 1978 
L 3425 0 
L 2847 0 
L 2847 2094 
Q 2847 2600 2669 2842 
Q 2491 3084 2119 3084 
Q 1678 3084 1418 2786 
Q 1159 2488 1159 1978 
L 1159 0 
L 581 0 
L 581 3500 
L 1159 3500 
L 1159 2956 
Q 1356 3278 1631 3431 
Q 1906 3584 2284 3584 
Q 2666 3584 2933 3390 
Q 3200 3197 3328 2828 
z
" transform="scale(0.015625)"/>
      <path id="DejaVuSans-64" d="M 2906 2969 
L 2906 4863 
L 3481 4863 
L 3481 0 
L 2906 0 
L 2906 525 
Q 2725 213 2448 61 
Q 2172 -91 1784 -91 
Q 1150 -91 751 415 
Q 353 922 353 1747 
Q 353 2572 751 3078 
Q 1150 3584 1784 3584 
Q 2172 3584 2448 3432 
Q 2725 3281 2906 2969 
z
M 947 1747 
Q 947 1113 1208 752 
Q 1469 391 1925 391 
Q 2381 391 2643 752 
Q 2906 1113 2906 1747 
Q 2906 2381 2643 2742 
Q 2381 3103 1925 3103 
Q 1469 3103 1208 2742 
Q 947 2381 947 1747 
z
" transform="scale(0.015625)"/>
      <path id="DejaVuSans-53" d="M 3425 4513 
L 3425 3897 
Q 3066 4069 2747 4153 
Q 2428 4238 2131 4238 
Q 1616 4238 1336 4038 
Q 1056 3838 1056 3469 
Q 1056 3159 1242 3001 
Q 1428 2844 1947 2747 
L 2328 2669 
Q 3034 2534 3370 2195 
Q 3706 1856 3706 1288 
Q 3706 609 3251 259 
Q 2797 -91 1919 -91 
Q 1588 -91 1214 -16 
Q 841 59 441 206 
L 441 856 
Q 825 641 1194 531 
Q 1563 422 1919 422 
Q 2459 422 2753 634 
Q 3047 847 3047 1241 
Q 3047 1584 2836 1778 
Q 2625 1972 2144 2069 
L 1759 2144 
Q 1053 2284 737 2584 
Q 422 2884 422 3419 
Q 422 4038 858 4394 
Q 1294 4750 2059 4750 
Q 2388 4750 2728 4690 
Q 3069 4631 3425 4513 
z
" transform="scale(0.015625)"/>
     </defs>
     <use xlink:href="#DejaVuSans-66"/>
     <use xlink:href="#DejaVuSans-72" x="35.205078"/>
     <use xlink:href="#DejaVuSans-6f" x="74.068359"/>
     <use xlink:href="#DejaVuSans-6d" x="135.25"/>
     <use xlink:href="#DejaVuSans-20" x="232.662109"/>
     <use xlink:href="#DejaVuSans-42" x="264.449219"/>
     <use xlink:href="#DejaVuSans-6f" x="333.052734"/>
     <use xlink:href="#DejaVuSans-6f" x="394.234375"/>
     <use xlink:href="#DejaVuSans-74" x="455.416016"/>
     <use xlink:href="#DejaVuSans-73" x="494.625"/>
     <use xlink:href="#DejaVuSans-74" x="546.724609"/>
     <use xlink:href="#DejaVuSans-72" x="585.933594"/>
     <use xlink:href="#DejaVuSans-61" x="627.046875"/>
     <use xlink:href="#DejaVuSans-70" x="688.326172"/>
     <use xlink:href="#DejaVuSans-70" x="751.802734"/>
     <use xlink:href="#DejaVuSans-65" x="815.279297"/>
     <use xlink:href="#DejaVuSans-64" x="876.802734"/>
     <use xlink:href="#DejaVuSans-20" x="940.279297"/>
     <use xlink:href="#DejaVuSans-52" x="972.066406"/>
     <use xlink:href="#DejaVuSans-65" x="1037.048828"/>
     <use xlink:href="#DejaVuSans-70" x="1098.572266"/>
     <use xlink:href="#DejaVuSans-6c" x="1162.048828"/>
     <use xlink:href="#DejaVuSans-69" x="1189.832031"/>
     <use xlink:href="#DejaVuSans-63" x="1217.615234"/>
     <use xlink:href="#DejaVuSans-61" x="1272.595703"/>
     <use xlink:href="#DejaVuSans-74" x="1333.875"/>
     <use xlink:href="#DejaVuSans-65" x="1373.083984"/>
     <use xlink:href="#DejaVuSans-20" x="1434.607422"/>
     <use xlink:href="#DejaVuSans-53" x="1466.394531"/>
     <use xlink:href="#DejaVuSans-70" x="1529.871094"/>
     <use xlink:href="#DejaVuSans-6c" x="1593.347656"/>
     <use xlink:href="#DejaVuSans-69" x="1621.130859"/>
     <use xlink:href="#DejaVuSans-74" x="1648.914062"/>
     <use xlink:href="#DejaVuSans-73" x="1688.123047"/>
    </g>
   </g>
   <g id="legend_1">
    <g id="patch_38">
     <path d="M 77.1 98.858906 
L 200.685 98.858906 
Q 203.985 98.858906 203.985 95.558906 
L 203.985 72.99 
Q 203.985 69.69 200.685 69.69 
L 77.1 69.69 
Q 73.8 69.69 73.8 72.99 
L 73.8 95.558906 
Q 73.8 98.858906 77.1 98.858906 
z
" style="fill: #ffffff; opacity: 0.8; stroke: #cccccc; stroke-width: 1.5; stroke-linejoin: miter"/>
    </g>
    <g id="line2d_17">
     <path d="M 80.4 83.052422 
L 96.9 83.052422 
L 113.4 83.052422 
" style="fill: none; stroke-dasharray: 8.325,3.6; stroke-dashoffset: 0; stroke: #ff0000; stroke-width: 2.25"/>
    </g>
    <g id="text_17">
     <!-- Mean $R^2$ -->
     <g style="fill: #262626" transform="translate(126.6 88.827422) scale(0.165 -0.165)">
      <use xlink:href="#DejaVuSans-4d" transform="translate(0 0.765625)"/>
      <use xlink:href="#DejaVuSans-65" transform="translate(86.279297 0.765625)"/>
      <use xlink:href="#DejaVuSans-61" transform="translate(147.802734 0.765625)"/>
      <use xlink:href="#DejaVuSans-6e" transform="translate(209.082031 0.765625)"/>
      <use xlink:href="#DejaVuSans-20" transform="translate(272.460938 0.765625)"/>
      <use xlink:href="#DejaVuSans-Oblique-52" transform="translate(304.248047 0.765625)"/>
      <use xlink:href="#DejaVuSans-32" transform="translate(380.74724 39.046875) scale(0.7)"/>
     </g>
    </g>
   </g>
  </g>
 </g>
 <defs>
  <clipPath id="p39de998936">
   <rect x="65.55" y="61.44" width="537.854455" height="300.636"/>
  </clipPath>
 </defs>
</svg>
