<?xml version="1.0" encoding="utf-8" standalone="no"?>
<!DOCTYPE svg PUBLIC "-//W3C//DTD SVG 1.1//EN"
  "http://www.w3.org/Graphics/SVG/1.1/DTD/svg11.dtd">
<svg xmlns:xlink="http://www.w3.org/1999/xlink" width="460.8pt" height="345.6pt" viewBox="0 0 460.8 345.6" xmlns="http://www.w3.org/2000/svg" version="1.1">
 <metadata>
  <rdf:RDF xmlns:dc="http://purl.org/dc/elements/1.1/" xmlns:cc="http://creativecommons.org/ns#" xmlns:rdf="http://www.w3.org/1999/02/22-rdf-syntax-ns#">
   <cc:Work>
    <dc:type rdf:resource="http://purl.org/dc/dcmitype/StillImage"/>
    <dc:date>2025-08-05T14:03:45.029583</dc:date>
    <dc:format>image/svg+xml</dc:format>
    <dc:creator>
     <cc:Agent>
      <dc:title>Matplotlib v3.9.0, https://matplotlib.org/</dc:title>
     </cc:Agent>
    </dc:creator>
   </cc:Work>
  </rdf:RDF>
 </metadata>
 <defs>
  <style type="text/css">*{stroke-linejoin: round; stroke-linecap: butt}</style>
 </defs>
 <g id="figure_1">
  <g id="patch_1">
   <path d="M 0 345.6 
L 460.8 345.6 
L 460.8 0 
L 0 0 
z
" style="fill: #ffffff"/>
  </g>
  <g id="axes_1">
   <g id="line2d_1">
    <path d="M 73.832727 295.488 
L 116.405045 295.347807 
L 132.654021 295.088073 
L 143.378346 294.704693 
L 151.177854 294.21733 
L 157.677445 293.591192 
L 162.877117 292.87867 
L 167.42683 292.043105 
L 171.651564 291.03474 
L 175.226339 289.960145 
L 178.476134 288.766638 
L 181.72593 287.324847 
L 184.650745 285.775859 
L 187.250581 284.166074 
L 189.850418 282.304911 
L 192.450254 280.15843 
L 195.05009 277.689934 
L 197.324947 275.235217 
L 199.599803 272.476907 
L 201.87466 269.387361 
L 204.149517 265.939183 
L 206.424373 262.106106 
L 208.69923 257.864065 
L 210.974087 253.192457 
L 213.573923 247.307598 
L 216.173759 240.828324 
L 218.773595 233.755527 
L 221.698411 225.111772 
L 224.948206 214.719534 
L 228.522981 202.471113 
L 233.072695 185.997196 
L 244.771957 143.170666 
L 248.346732 131.13758 
L 251.596527 120.984699 
L 254.521343 112.579344 
L 257.121179 105.72801 
L 259.721016 99.472348 
L 262.320852 93.807688 
L 264.920688 88.716538 
L 267.195545 84.710967 
L 269.470401 81.100947 
L 271.745258 77.861013 
L 274.020115 74.964133 
L 276.294971 72.382674 
L 278.894808 69.783469 
L 281.494644 67.520669 
L 284.09448 65.556644 
L 286.694316 63.856385 
L 289.619132 62.219019 
L 292.543948 60.833781 
L 295.793743 59.546217 
L 299.368518 58.386032 
L 303.268272 57.371 
L 307.493006 56.507688 
L 312.367699 55.749206 
L 317.892351 55.120909 
L 324.391941 54.607145 
L 332.516429 54.194723 
L 343.240753 53.886818 
L 358.839771 53.68328 
L 386.46303 53.580053 
L 398.487273 53.568 
L 398.487273 53.568 
" clip-path="url(#p3da7438cb2)" style="fill: none; stroke: #000000; stroke-width: 1.5; stroke-linecap: square"/>
   </g>
  </g>
 </g>
 <defs>
  <clipPath id="p3da7438cb2">
   <rect x="57.6" y="41.472" width="357.12" height="266.112"/>
  </clipPath>
 </defs>
</svg>
